G75*
%MOIN*%
%OFA0B0*%
%FSLAX25Y25*%
%IPPOS*%
%LPD*%
%AMOC8*
5,1,8,0,0,1.08239X$1,22.5*
%
%ADD10R,0.04000X0.00800*%
%ADD11R,0.00800X0.04000*%
%ADD12R,0.22047X0.22047*%
%ADD13R,0.04724X0.03543*%
%ADD14C,0.05937*%
%ADD15R,0.05118X0.05906*%
%ADD16R,0.03937X0.02598*%
%ADD17C,0.01000*%
%ADD18C,0.04000*%
%ADD19C,0.03962*%
D10*
X0069752Y0125705D03*
X0069752Y0127673D03*
X0069752Y0129642D03*
X0069752Y0131610D03*
X0069752Y0133579D03*
X0069752Y0135547D03*
X0069752Y0137516D03*
X0069752Y0139484D03*
X0069752Y0141453D03*
X0069752Y0143421D03*
X0069752Y0145390D03*
X0069752Y0147358D03*
X0069752Y0149327D03*
X0069752Y0151295D03*
X0101248Y0151295D03*
X0101248Y0149327D03*
X0101248Y0147358D03*
X0101248Y0145390D03*
X0101248Y0143421D03*
X0101248Y0141453D03*
X0101248Y0139484D03*
X0101248Y0137516D03*
X0101248Y0135547D03*
X0101248Y0133579D03*
X0101248Y0131610D03*
X0101248Y0129642D03*
X0101248Y0127673D03*
X0101248Y0125705D03*
D11*
X0098295Y0122752D03*
X0096327Y0122752D03*
X0094358Y0122752D03*
X0092390Y0122752D03*
X0090421Y0122752D03*
X0088453Y0122752D03*
X0086484Y0122752D03*
X0084516Y0122752D03*
X0082547Y0122752D03*
X0080579Y0122752D03*
X0078610Y0122752D03*
X0076642Y0122752D03*
X0074673Y0122752D03*
X0072705Y0122752D03*
X0072705Y0154248D03*
X0074673Y0154248D03*
X0076642Y0154248D03*
X0078610Y0154248D03*
X0080579Y0154248D03*
X0082547Y0154248D03*
X0084516Y0154248D03*
X0086484Y0154248D03*
X0088453Y0154248D03*
X0090421Y0154248D03*
X0092390Y0154248D03*
X0094358Y0154248D03*
X0096327Y0154248D03*
X0098295Y0154248D03*
D12*
X0085500Y0138500D03*
D13*
X0059311Y0187232D03*
X0059311Y0192744D03*
X0048287Y0192744D03*
X0048287Y0187232D03*
X0037311Y0169244D03*
X0037311Y0163732D03*
X0026287Y0163732D03*
X0026287Y0169244D03*
X0027311Y0140744D03*
X0027311Y0135232D03*
X0016287Y0135232D03*
X0016287Y0140744D03*
X0024787Y0113744D03*
X0024787Y0108232D03*
X0035811Y0108232D03*
X0035811Y0113744D03*
X0046787Y0088744D03*
X0046787Y0083232D03*
X0057811Y0083232D03*
X0057811Y0088744D03*
X0081287Y0080744D03*
X0081287Y0075232D03*
X0092311Y0075232D03*
X0092311Y0080744D03*
X0110189Y0084756D03*
X0110189Y0090268D03*
X0121213Y0090268D03*
X0121213Y0084756D03*
X0132189Y0106256D03*
X0132189Y0111768D03*
X0143213Y0111768D03*
X0143213Y0106256D03*
X0142689Y0134756D03*
X0142689Y0140268D03*
X0153713Y0140268D03*
X0153713Y0134756D03*
X0147713Y0159756D03*
X0147713Y0165268D03*
X0136689Y0165268D03*
X0136689Y0159756D03*
X0125811Y0185232D03*
X0125811Y0190744D03*
X0114787Y0190744D03*
X0114787Y0185232D03*
X0092311Y0195232D03*
X0092311Y0200744D03*
X0081287Y0200744D03*
X0081287Y0195232D03*
D14*
X0081500Y0266031D02*
X0081500Y0271969D01*
X0091500Y0271969D02*
X0091500Y0266031D01*
X0101500Y0266031D02*
X0101500Y0271969D01*
X0111500Y0271969D02*
X0111500Y0266031D01*
X0071500Y0266031D02*
X0071500Y0271969D01*
X0061500Y0271969D02*
X0061500Y0266031D01*
X0149531Y0075500D02*
X0155469Y0075500D01*
X0155469Y0065500D02*
X0149531Y0065500D01*
X0149531Y0055500D02*
X0155469Y0055500D01*
X0155469Y0045500D02*
X0149531Y0045500D01*
X0149531Y0035500D02*
X0155469Y0035500D01*
X0122500Y0030969D02*
X0122500Y0025031D01*
X0112500Y0025031D02*
X0112500Y0030969D01*
X0102500Y0030969D02*
X0102500Y0025031D01*
X0092500Y0025031D02*
X0092500Y0030969D01*
X0082500Y0030969D02*
X0082500Y0025031D01*
X0072500Y0025031D02*
X0072500Y0030969D01*
X0062500Y0030969D02*
X0062500Y0025031D01*
X0052500Y0025031D02*
X0052500Y0030969D01*
D15*
X0055240Y0052500D03*
X0047760Y0052500D03*
X0070260Y0052500D03*
X0077740Y0052500D03*
X0104260Y0240000D03*
X0111740Y0240000D03*
X0111740Y0254500D03*
X0104260Y0254500D03*
D16*
X0090297Y0242240D03*
X0090297Y0238500D03*
X0090297Y0234760D03*
X0080002Y0234760D03*
X0080002Y0238500D03*
X0080002Y0242240D03*
X0123502Y0057000D03*
X0123502Y0049520D03*
X0133797Y0049520D03*
X0133797Y0053260D03*
X0133797Y0057000D03*
D17*
X0052125Y0028500D02*
X0048375Y0032250D01*
X0048375Y0052250D01*
X0047760Y0052500D01*
X0047750Y0052875D01*
X0047750Y0076000D01*
X0042750Y0081000D01*
X0042750Y0094125D01*
X0043063Y0094437D01*
X0045562Y0091937D01*
X0045875Y0092250D01*
X0063375Y0092250D01*
X0074625Y0081000D01*
X0080875Y0081000D01*
X0081287Y0080744D01*
X0080875Y0075375D02*
X0081287Y0075232D01*
X0080875Y0075375D02*
X0075250Y0075375D01*
X0067750Y0082875D01*
X0063375Y0087250D02*
X0059625Y0087250D01*
X0058375Y0088500D01*
X0057811Y0088744D01*
X0057750Y0083500D02*
X0057811Y0083232D01*
X0057750Y0083500D02*
X0056500Y0083500D01*
X0052125Y0087875D01*
X0052000Y0083000D02*
X0047000Y0083000D01*
X0046787Y0083232D01*
X0046787Y0088744D02*
X0046500Y0089125D01*
X0046500Y0091000D01*
X0045562Y0091937D01*
X0043063Y0094437D02*
X0029000Y0108500D01*
X0029000Y0110375D01*
X0025250Y0114125D01*
X0024787Y0113744D01*
X0024625Y0114125D01*
X0024625Y0131625D01*
X0020250Y0136000D01*
X0020250Y0137250D01*
X0016500Y0141000D01*
X0016287Y0140744D01*
X0016500Y0141000D02*
X0016500Y0160375D01*
X0025875Y0169750D01*
X0026287Y0169244D01*
X0026500Y0169750D01*
X0026500Y0171625D01*
X0045250Y0190375D01*
X0045875Y0190375D01*
X0047750Y0192250D01*
X0048287Y0192744D01*
X0048375Y0192875D01*
X0053375Y0192875D01*
X0060875Y0200375D01*
X0080875Y0200375D01*
X0081287Y0200744D01*
X0081500Y0201000D01*
X0084625Y0204125D01*
X0095250Y0204125D01*
X0108375Y0191000D01*
X0114625Y0191000D01*
X0114787Y0190744D01*
X0115250Y0191000D01*
X0118375Y0194125D01*
X0129000Y0194125D01*
X0151500Y0171625D01*
X0151500Y0162875D01*
X0149000Y0160375D01*
X0147750Y0160375D01*
X0147713Y0159756D01*
X0147750Y0159750D01*
X0147750Y0139750D01*
X0152125Y0135375D01*
X0153375Y0135375D01*
X0153713Y0134756D01*
X0151500Y0135375D01*
X0151500Y0124125D01*
X0150250Y0122875D01*
X0150250Y0112250D01*
X0144625Y0106625D01*
X0143375Y0106625D01*
X0143213Y0106256D01*
X0142750Y0106000D01*
X0141500Y0106000D01*
X0138375Y0102875D01*
X0138375Y0100375D01*
X0123375Y0085375D01*
X0121500Y0085375D01*
X0121213Y0084756D01*
X0121213Y0090268D02*
X0121000Y0090500D01*
X0118000Y0090500D01*
X0117500Y0091000D01*
X0117500Y0094500D01*
X0114000Y0096875D02*
X0114000Y0087875D01*
X0111500Y0085375D01*
X0110250Y0085375D01*
X0110189Y0084756D01*
X0110189Y0090268D02*
X0109625Y0090375D01*
X0090250Y0109750D01*
X0090250Y0122250D01*
X0090421Y0122752D01*
X0092390Y0122752D02*
X0092390Y0113110D01*
X0110500Y0095000D01*
X0114000Y0096875D02*
X0094625Y0117250D01*
X0094625Y0122250D01*
X0094358Y0122752D01*
X0101248Y0127673D02*
X0101500Y0127875D01*
X0104000Y0127875D01*
X0112250Y0106625D01*
X0112000Y0120000D02*
X0111000Y0120000D01*
X0112000Y0120000D02*
X0110500Y0122500D01*
X0105000Y0129500D01*
X0101390Y0129500D01*
X0101248Y0129642D01*
X0101248Y0131610D02*
X0101500Y0131625D01*
X0105250Y0131625D01*
X0122125Y0114750D01*
X0122125Y0109750D01*
X0125875Y0106000D01*
X0132125Y0106000D01*
X0132189Y0106256D01*
X0136500Y0106625D02*
X0136500Y0103500D01*
X0133125Y0100625D01*
X0136500Y0106625D02*
X0137125Y0107250D01*
X0135625Y0116000D01*
X0129250Y0123875D01*
X0123750Y0130875D01*
X0112875Y0136750D01*
X0109375Y0137125D01*
X0107750Y0137250D01*
X0101500Y0137250D01*
X0101248Y0137516D01*
X0100875Y0137250D01*
X0093375Y0137250D01*
X0092125Y0138500D01*
X0085500Y0138500D01*
X0079000Y0138500D01*
X0077750Y0137250D01*
X0070250Y0137250D01*
X0069752Y0137516D01*
X0069752Y0139484D02*
X0064484Y0139484D01*
X0045000Y0120000D01*
X0045000Y0102500D01*
X0040000Y0108000D02*
X0039768Y0108232D01*
X0035811Y0108232D01*
X0040000Y0108000D02*
X0040000Y0119000D01*
X0062453Y0141453D01*
X0069752Y0141453D01*
X0069752Y0143421D02*
X0060921Y0143421D01*
X0044000Y0126500D01*
X0041500Y0126500D01*
X0032875Y0122625D02*
X0035811Y0113744D01*
X0032875Y0122625D02*
X0055625Y0145375D01*
X0067125Y0145375D01*
X0067500Y0145375D01*
X0069625Y0145375D01*
X0069752Y0145390D01*
X0069625Y0147250D02*
X0069752Y0147358D01*
X0069625Y0147250D02*
X0046750Y0147250D01*
X0027750Y0134750D01*
X0027311Y0135232D01*
X0027311Y0140744D02*
X0027750Y0141000D01*
X0038375Y0151625D01*
X0069625Y0151625D01*
X0069752Y0151295D01*
X0069579Y0149500D02*
X0069752Y0149327D01*
X0069579Y0149500D02*
X0041000Y0149500D01*
X0035000Y0143500D01*
X0046500Y0154750D02*
X0037750Y0163500D01*
X0037311Y0163732D01*
X0037750Y0169125D02*
X0037311Y0169244D01*
X0037750Y0169125D02*
X0044000Y0169125D01*
X0048375Y0164750D01*
X0071500Y0164750D01*
X0076500Y0159750D01*
X0076500Y0154750D01*
X0076642Y0154248D01*
X0078375Y0154750D02*
X0078610Y0154248D01*
X0078375Y0154750D02*
X0078375Y0161875D01*
X0059625Y0180625D01*
X0059311Y0187232D01*
X0059625Y0192250D02*
X0059311Y0192744D01*
X0059625Y0192250D02*
X0060875Y0192250D01*
X0082750Y0170375D01*
X0082750Y0154750D01*
X0082547Y0154248D01*
X0084516Y0154248D02*
X0084625Y0154750D01*
X0084625Y0187250D01*
X0081500Y0190375D01*
X0085250Y0189750D02*
X0085250Y0195375D01*
X0081500Y0195375D01*
X0081287Y0195232D01*
X0085250Y0189750D02*
X0086500Y0188500D01*
X0086500Y0154750D01*
X0086484Y0154248D01*
X0088375Y0154750D02*
X0088453Y0154248D01*
X0088375Y0154750D02*
X0088375Y0197875D01*
X0090875Y0200375D01*
X0092125Y0200375D01*
X0092311Y0200744D01*
X0092750Y0195375D02*
X0092311Y0195232D01*
X0092750Y0195375D02*
X0097750Y0195375D01*
X0093000Y0185500D02*
X0090421Y0182921D01*
X0090421Y0154248D01*
X0092125Y0154750D02*
X0092390Y0154248D01*
X0092125Y0154750D02*
X0092125Y0162250D01*
X0114625Y0184750D01*
X0114787Y0185232D01*
X0120000Y0185000D02*
X0125500Y0185000D01*
X0125811Y0185232D01*
X0126555Y0190000D02*
X0129500Y0190000D01*
X0130500Y0189000D01*
X0130500Y0179000D01*
X0113500Y0179000D01*
X0094358Y0159858D01*
X0094358Y0154248D01*
X0096327Y0154248D02*
X0096500Y0154750D01*
X0096500Y0157250D01*
X0104000Y0164750D01*
X0136500Y0164750D01*
X0136689Y0165268D01*
X0136689Y0159756D02*
X0136500Y0159750D01*
X0128375Y0151625D01*
X0101500Y0151625D01*
X0101248Y0151295D01*
X0101248Y0149327D02*
X0101500Y0149125D01*
X0133375Y0149125D01*
X0142125Y0140375D01*
X0142689Y0140268D01*
X0142689Y0134756D02*
X0142125Y0134750D01*
X0135875Y0134750D01*
X0135250Y0134875D01*
X0128250Y0137875D01*
X0120750Y0145375D01*
X0101500Y0145375D01*
X0101248Y0145390D01*
X0101500Y0143500D02*
X0101248Y0143421D01*
X0101500Y0143500D02*
X0110875Y0143500D01*
X0119500Y0142375D01*
X0116625Y0140750D02*
X0123250Y0137125D01*
X0132250Y0132625D01*
X0144750Y0129125D01*
X0146500Y0121625D01*
X0143000Y0118125D02*
X0152125Y0114750D01*
X0152125Y0105375D01*
X0142125Y0095375D01*
X0142125Y0093500D01*
X0102750Y0054125D01*
X0102750Y0028500D01*
X0102500Y0028000D01*
X0104625Y0037250D02*
X0112125Y0029750D01*
X0112125Y0028500D01*
X0112500Y0028000D01*
X0104625Y0037250D02*
X0104625Y0052875D01*
X0144000Y0092250D01*
X0144000Y0094125D01*
X0157750Y0107875D01*
X0157750Y0117875D01*
X0154000Y0121625D01*
X0144000Y0112000D02*
X0143500Y0111500D01*
X0143213Y0111768D01*
X0144000Y0112000D02*
X0137000Y0119000D01*
X0137000Y0120000D01*
X0140500Y0126125D02*
X0137625Y0128125D01*
X0131500Y0130250D01*
X0126500Y0132250D01*
X0116750Y0138000D01*
X0111250Y0139375D01*
X0108375Y0139750D01*
X0101500Y0139750D01*
X0101248Y0139484D01*
X0101248Y0141453D02*
X0101500Y0141625D01*
X0109625Y0141625D01*
X0116625Y0140750D01*
X0111000Y0133500D02*
X0108453Y0135547D01*
X0101248Y0135547D01*
X0101248Y0133579D02*
X0101500Y0133500D01*
X0106500Y0133500D01*
X0118375Y0121625D01*
X0120250Y0121625D01*
X0125875Y0114125D02*
X0130250Y0114125D01*
X0132125Y0112250D01*
X0132189Y0111768D01*
X0140250Y0099750D02*
X0142125Y0100625D01*
X0140250Y0099750D02*
X0140250Y0094750D01*
X0115875Y0070375D01*
X0092125Y0070375D01*
X0082750Y0061000D01*
X0082750Y0059125D01*
X0077740Y0052500D02*
X0077750Y0052250D01*
X0077750Y0032875D01*
X0082125Y0028500D01*
X0082500Y0028000D01*
X0092500Y0028000D02*
X0092500Y0056500D01*
X0101000Y0065000D01*
X0092125Y0074750D02*
X0092311Y0075232D01*
X0092125Y0074750D02*
X0087125Y0079750D01*
X0087125Y0081625D01*
X0092311Y0080744D02*
X0092750Y0081000D01*
X0076500Y0097250D01*
X0076500Y0122250D01*
X0076642Y0122752D01*
X0074673Y0122752D02*
X0074625Y0122250D01*
X0074625Y0094125D01*
X0080250Y0088500D01*
X0080250Y0087250D01*
X0078375Y0085375D01*
X0072750Y0091000D02*
X0072750Y0122250D01*
X0072705Y0122752D01*
X0069752Y0131610D02*
X0069625Y0131625D01*
X0067125Y0131625D01*
X0065875Y0130375D01*
X0065875Y0094750D01*
X0058500Y0096000D02*
X0058500Y0126000D01*
X0066000Y0133500D01*
X0069673Y0133500D01*
X0069752Y0133579D01*
X0069625Y0135375D02*
X0067500Y0135375D01*
X0067125Y0135375D01*
X0064625Y0135375D01*
X0064500Y0135500D01*
X0052125Y0123125D01*
X0052125Y0120375D01*
X0069625Y0135375D02*
X0069752Y0135547D01*
X0072705Y0154248D02*
X0072750Y0154750D01*
X0046500Y0154750D01*
X0043500Y0162500D02*
X0071000Y0162500D01*
X0074673Y0158827D01*
X0074673Y0154248D01*
X0080500Y0154500D02*
X0080500Y0165500D01*
X0069000Y0177000D01*
X0052500Y0177000D02*
X0048287Y0181213D01*
X0048287Y0187232D01*
X0032000Y0163500D02*
X0026500Y0163500D01*
X0026287Y0163732D01*
X0016287Y0135232D02*
X0016500Y0135000D01*
X0018500Y0135000D01*
X0020500Y0133000D01*
X0020500Y0131000D01*
X0019500Y0108000D02*
X0024500Y0108000D01*
X0024787Y0108232D01*
X0055875Y0058500D02*
X0069625Y0058500D01*
X0069938Y0058187D01*
X0070250Y0058500D01*
X0070250Y0059125D01*
X0069938Y0058187D02*
X0070250Y0057875D01*
X0070250Y0052875D01*
X0070260Y0052500D01*
X0055250Y0036625D02*
X0062125Y0029750D01*
X0062125Y0028500D01*
X0062500Y0028000D01*
X0055250Y0036625D02*
X0055250Y0052250D01*
X0055240Y0052500D01*
X0055250Y0052875D01*
X0055250Y0057875D01*
X0055875Y0058500D01*
X0052125Y0028500D02*
X0052500Y0028000D01*
X0101000Y0089000D02*
X0101000Y0091000D01*
X0083000Y0109000D01*
X0101248Y0147358D02*
X0129642Y0147358D01*
X0134500Y0142500D01*
X0135000Y0142500D01*
X0142125Y0160375D02*
X0147125Y0165375D01*
X0147713Y0165268D01*
X0151500Y0145000D02*
X0151500Y0141000D01*
X0152000Y0140500D01*
X0153500Y0140500D01*
X0153713Y0140268D01*
X0126555Y0190000D02*
X0125811Y0190744D01*
X0109500Y0185500D02*
X0093000Y0185500D01*
X0104625Y0160375D02*
X0098375Y0154125D01*
X0098295Y0154248D01*
X0090297Y0234760D02*
X0090875Y0235375D01*
X0107125Y0235375D01*
X0111500Y0239750D01*
X0111740Y0240000D01*
X0112125Y0240375D01*
X0112125Y0254125D01*
X0111740Y0254500D01*
X0111500Y0254750D01*
X0111500Y0269000D01*
X0101500Y0257250D02*
X0104000Y0254750D01*
X0104260Y0254500D01*
X0104625Y0254125D01*
X0104625Y0240375D01*
X0104260Y0240000D01*
X0104000Y0239750D01*
X0102750Y0238500D01*
X0090297Y0238500D01*
X0090297Y0242240D02*
X0090875Y0242250D01*
X0090875Y0267875D01*
X0091500Y0268500D01*
X0091500Y0269000D01*
X0081500Y0269000D02*
X0081500Y0268500D01*
X0080250Y0267250D01*
X0080250Y0242250D01*
X0080002Y0242240D01*
X0080002Y0238500D02*
X0078375Y0238500D01*
X0071500Y0245375D01*
X0071500Y0269000D01*
X0061500Y0269000D02*
X0061500Y0251625D01*
X0077750Y0235375D01*
X0079625Y0235375D01*
X0080002Y0234760D01*
X0101500Y0257250D02*
X0101500Y0269000D01*
X0146500Y0075375D02*
X0152125Y0075375D01*
X0152500Y0075500D01*
X0146500Y0075375D02*
X0128375Y0057250D01*
X0124000Y0057250D01*
X0123502Y0057000D01*
X0123502Y0049520D02*
X0124000Y0049125D01*
X0129000Y0049125D01*
X0142125Y0036000D01*
X0152125Y0036000D01*
X0152500Y0035500D01*
X0152500Y0045500D02*
X0152125Y0046000D01*
X0149000Y0049125D01*
X0134000Y0049125D01*
X0133797Y0049520D01*
X0133797Y0053260D02*
X0134000Y0053500D01*
X0150250Y0053500D01*
X0152125Y0055375D01*
X0152500Y0055500D01*
X0144000Y0057250D02*
X0152125Y0065375D01*
X0152500Y0065500D01*
X0144000Y0057250D02*
X0134000Y0057250D01*
X0133797Y0057000D01*
D18*
X0133125Y0100625D03*
X0125875Y0114125D03*
X0120250Y0121625D03*
X0112250Y0106625D03*
X0119500Y0142375D03*
X0104625Y0160375D03*
X0097750Y0195375D03*
X0081500Y0190375D03*
X0052125Y0120375D03*
X0065875Y0094750D03*
X0063375Y0087250D03*
X0067750Y0082875D03*
X0072750Y0091000D03*
X0078375Y0085375D03*
X0087125Y0081625D03*
X0082750Y0059125D03*
X0070250Y0059125D03*
X0052125Y0087875D03*
X0140500Y0126125D03*
X0143000Y0118125D03*
X0146500Y0121625D03*
X0154000Y0121625D03*
X0142125Y0100625D03*
X0142125Y0160375D03*
D19*
X0151500Y0145000D03*
X0135000Y0142500D03*
X0137000Y0120000D03*
X0117500Y0094500D03*
X0110500Y0095000D03*
X0101000Y0089000D03*
X0101000Y0065000D03*
X0083000Y0109000D03*
X0058500Y0096000D03*
X0052000Y0083000D03*
X0045000Y0102500D03*
X0041500Y0126500D03*
X0035000Y0143500D03*
X0032000Y0163500D03*
X0043500Y0162500D03*
X0052500Y0177000D03*
X0069000Y0177000D03*
X0109500Y0185500D03*
X0120000Y0185000D03*
X0111000Y0133500D03*
X0112000Y0120000D03*
X0020500Y0131000D03*
X0019500Y0108000D03*
M02*
