G75*
%MOIN*%
%OFA0B0*%
%FSLAX25Y25*%
%IPPOS*%
%LPD*%
%AMOC8*
5,1,8,0,0,1.08239X$1,22.5*
%
%ADD10C,0.05937*%
%ADD11C,0.01000*%
%ADD12C,0.04000*%
%ADD13C,0.03962*%
D10*
X0052500Y0025031D02*
X0052500Y0030969D01*
X0062500Y0030969D02*
X0062500Y0025031D01*
X0072500Y0025031D02*
X0072500Y0030969D01*
X0082500Y0030969D02*
X0082500Y0025031D01*
X0092500Y0025031D02*
X0092500Y0030969D01*
X0102500Y0030969D02*
X0102500Y0025031D01*
X0112500Y0025031D02*
X0112500Y0030969D01*
X0122500Y0030969D02*
X0122500Y0025031D01*
X0149531Y0035500D02*
X0155469Y0035500D01*
X0155469Y0045500D02*
X0149531Y0045500D01*
X0149531Y0055500D02*
X0155469Y0055500D01*
X0155469Y0065500D02*
X0149531Y0065500D01*
X0149531Y0075500D02*
X0155469Y0075500D01*
X0111500Y0266031D02*
X0111500Y0271969D01*
X0101500Y0271969D02*
X0101500Y0266031D01*
X0091500Y0266031D02*
X0091500Y0271969D01*
X0081500Y0271969D02*
X0081500Y0266031D01*
X0071500Y0266031D02*
X0071500Y0271969D01*
X0061500Y0271969D02*
X0061500Y0266031D01*
D11*
X0030500Y0053000D02*
X0043000Y0040500D01*
X0060000Y0040500D01*
X0072500Y0028000D01*
X0082500Y0028000D02*
X0082750Y0028500D01*
X0089625Y0035375D01*
X0094000Y0035375D01*
X0094000Y0095375D01*
X0120250Y0121625D01*
X0122000Y0126375D02*
X0129625Y0117250D01*
X0129625Y0028500D01*
X0122750Y0028500D01*
X0122500Y0028000D01*
X0101000Y0065000D02*
X0101000Y0089000D01*
X0110500Y0095000D02*
X0117000Y0095000D01*
X0117500Y0094500D01*
X0112250Y0106625D02*
X0125875Y0114125D01*
X0122000Y0126375D02*
X0119500Y0142375D01*
X0116500Y0144000D02*
X0118000Y0146000D01*
X0121000Y0146000D01*
X0137000Y0130000D01*
X0137000Y0120000D01*
X0143000Y0118125D02*
X0140500Y0126125D01*
X0146500Y0121625D02*
X0154000Y0121625D01*
X0149000Y0142500D02*
X0151500Y0145000D01*
X0149000Y0142500D02*
X0135000Y0142500D01*
X0142125Y0160375D02*
X0104625Y0160375D01*
X0116500Y0144000D02*
X0112000Y0120000D01*
X0111000Y0133500D02*
X0087000Y0109000D01*
X0083000Y0109000D01*
X0079625Y0089125D02*
X0074625Y0089125D01*
X0072750Y0091000D01*
X0078375Y0085375D02*
X0075875Y0082875D01*
X0067750Y0082875D01*
X0065875Y0087250D02*
X0063375Y0087250D01*
X0065875Y0087250D02*
X0065875Y0094750D01*
X0058500Y0096000D02*
X0058500Y0089500D01*
X0052000Y0083000D01*
X0052125Y0087875D02*
X0052125Y0120375D01*
X0041500Y0126500D02*
X0038000Y0126500D01*
X0019500Y0108000D01*
X0030500Y0085500D02*
X0030500Y0053000D01*
X0030500Y0085500D02*
X0045000Y0100000D01*
X0045000Y0102500D01*
X0020500Y0131000D02*
X0033000Y0143500D01*
X0035000Y0143500D01*
X0033000Y0162500D02*
X0032000Y0163500D01*
X0033000Y0162500D02*
X0043500Y0162500D01*
X0052500Y0177000D02*
X0069000Y0177000D01*
X0081500Y0190375D02*
X0086500Y0195375D01*
X0097750Y0195375D01*
X0109500Y0185500D02*
X0119500Y0185500D01*
X0120000Y0185000D01*
X0133125Y0100625D02*
X0142125Y0100625D01*
X0087125Y0081625D02*
X0079625Y0089125D01*
X0082750Y0059125D02*
X0070250Y0059125D01*
D12*
X0070250Y0059125D03*
X0082750Y0059125D03*
X0087125Y0081625D03*
X0078375Y0085375D03*
X0072750Y0091000D03*
X0067750Y0082875D03*
X0063375Y0087250D03*
X0065875Y0094750D03*
X0052125Y0087875D03*
X0052125Y0120375D03*
X0081500Y0190375D03*
X0097750Y0195375D03*
X0104625Y0160375D03*
X0119500Y0142375D03*
X0120250Y0121625D03*
X0125875Y0114125D03*
X0133125Y0100625D03*
X0142125Y0100625D03*
X0143000Y0118125D03*
X0146500Y0121625D03*
X0154000Y0121625D03*
X0140500Y0126125D03*
X0142125Y0160375D03*
X0112250Y0106625D03*
D13*
X0110500Y0095000D03*
X0117500Y0094500D03*
X0112000Y0120000D03*
X0111000Y0133500D03*
X0135000Y0142500D03*
X0137000Y0120000D03*
X0151500Y0145000D03*
X0120000Y0185000D03*
X0109500Y0185500D03*
X0069000Y0177000D03*
X0052500Y0177000D03*
X0043500Y0162500D03*
X0032000Y0163500D03*
X0035000Y0143500D03*
X0041500Y0126500D03*
X0045000Y0102500D03*
X0052000Y0083000D03*
X0058500Y0096000D03*
X0083000Y0109000D03*
X0101000Y0089000D03*
X0101000Y0065000D03*
X0019500Y0108000D03*
X0020500Y0131000D03*
M02*
