G75*
%MOIN*%
%OFA0B0*%
%FSLAX25Y25*%
%IPPOS*%
%LPD*%
%AMOC8*
5,1,8,0,0,1.08239X$1,22.5*
%
%ADD10C,0.11824*%
%ADD11R,0.04800X0.01600*%
%ADD12R,0.01600X0.04800*%
%ADD13R,0.22847X0.22847*%
%ADD14R,0.05524X0.04343*%
%ADD15C,0.06737*%
%ADD16R,0.05918X0.06706*%
%ADD17R,0.04737X0.03398*%
%ADD18C,0.04800*%
%ADD19C,0.04762*%
D10*
X0016500Y0016000D03*
X0161500Y0016000D03*
X0161500Y0280500D03*
X0014000Y0280000D03*
D11*
X0069752Y0151295D03*
X0069752Y0149327D03*
X0069752Y0147358D03*
X0069752Y0145390D03*
X0069752Y0143421D03*
X0069752Y0141453D03*
X0069752Y0139484D03*
X0069752Y0137516D03*
X0069752Y0135547D03*
X0069752Y0133579D03*
X0069752Y0131610D03*
X0069752Y0129642D03*
X0069752Y0127673D03*
X0069752Y0125705D03*
X0101248Y0125705D03*
X0101248Y0127673D03*
X0101248Y0129642D03*
X0101248Y0131610D03*
X0101248Y0133579D03*
X0101248Y0135547D03*
X0101248Y0137516D03*
X0101248Y0139484D03*
X0101248Y0141453D03*
X0101248Y0143421D03*
X0101248Y0145390D03*
X0101248Y0147358D03*
X0101248Y0149327D03*
X0101248Y0151295D03*
D12*
X0098295Y0154248D03*
X0096327Y0154248D03*
X0094358Y0154248D03*
X0092390Y0154248D03*
X0090421Y0154248D03*
X0088453Y0154248D03*
X0086484Y0154248D03*
X0084516Y0154248D03*
X0082547Y0154248D03*
X0080579Y0154248D03*
X0078610Y0154248D03*
X0076642Y0154248D03*
X0074673Y0154248D03*
X0072705Y0154248D03*
X0072705Y0122752D03*
X0074673Y0122752D03*
X0076642Y0122752D03*
X0078610Y0122752D03*
X0080579Y0122752D03*
X0082547Y0122752D03*
X0084516Y0122752D03*
X0086484Y0122752D03*
X0088453Y0122752D03*
X0090421Y0122752D03*
X0092390Y0122752D03*
X0094358Y0122752D03*
X0096327Y0122752D03*
X0098295Y0122752D03*
D13*
X0085500Y0138500D03*
D14*
X0059311Y0187232D03*
X0059311Y0192744D03*
X0048287Y0192744D03*
X0048287Y0187232D03*
X0037311Y0169244D03*
X0037311Y0163732D03*
X0026287Y0163732D03*
X0026287Y0169244D03*
X0027311Y0140744D03*
X0027311Y0135232D03*
X0016287Y0135232D03*
X0016287Y0140744D03*
X0024787Y0113744D03*
X0024787Y0108232D03*
X0035811Y0108232D03*
X0035811Y0113744D03*
X0046787Y0088744D03*
X0046787Y0083232D03*
X0057811Y0083232D03*
X0057811Y0088744D03*
X0081287Y0080744D03*
X0081287Y0075232D03*
X0092311Y0075232D03*
X0092311Y0080744D03*
X0110189Y0084756D03*
X0110189Y0090268D03*
X0121213Y0090268D03*
X0121213Y0084756D03*
X0132189Y0106256D03*
X0132189Y0111768D03*
X0143213Y0111768D03*
X0143213Y0106256D03*
X0142689Y0134756D03*
X0142689Y0140268D03*
X0153713Y0140268D03*
X0153713Y0134756D03*
X0147713Y0159756D03*
X0147713Y0165268D03*
X0136689Y0165268D03*
X0136689Y0159756D03*
X0125811Y0185232D03*
X0125811Y0190744D03*
X0114787Y0190744D03*
X0114787Y0185232D03*
X0092311Y0195232D03*
X0092311Y0200744D03*
X0081287Y0200744D03*
X0081287Y0195232D03*
D15*
X0081500Y0266031D02*
X0081500Y0271969D01*
X0091500Y0271969D02*
X0091500Y0266031D01*
X0101500Y0266031D02*
X0101500Y0271969D01*
X0111500Y0271969D02*
X0111500Y0266031D01*
X0071500Y0266031D02*
X0071500Y0271969D01*
X0061500Y0271969D02*
X0061500Y0266031D01*
X0149531Y0075500D02*
X0155469Y0075500D01*
X0155469Y0065500D02*
X0149531Y0065500D01*
X0149531Y0055500D02*
X0155469Y0055500D01*
X0155469Y0045500D02*
X0149531Y0045500D01*
X0149531Y0035500D02*
X0155469Y0035500D01*
X0122500Y0030969D02*
X0122500Y0025031D01*
X0112500Y0025031D02*
X0112500Y0030969D01*
X0102500Y0030969D02*
X0102500Y0025031D01*
X0092500Y0025031D02*
X0092500Y0030969D01*
X0082500Y0030969D02*
X0082500Y0025031D01*
X0072500Y0025031D02*
X0072500Y0030969D01*
X0062500Y0030969D02*
X0062500Y0025031D01*
X0052500Y0025031D02*
X0052500Y0030969D01*
D16*
X0055240Y0052500D03*
X0047760Y0052500D03*
X0070260Y0052500D03*
X0077740Y0052500D03*
X0104260Y0240000D03*
X0111740Y0240000D03*
X0111740Y0254500D03*
X0104260Y0254500D03*
D17*
X0090297Y0242240D03*
X0090297Y0238500D03*
X0090297Y0234760D03*
X0080002Y0234760D03*
X0080002Y0238500D03*
X0080002Y0242240D03*
X0123502Y0057000D03*
X0123502Y0049520D03*
X0133797Y0049520D03*
X0133797Y0053260D03*
X0133797Y0057000D03*
D18*
X0133125Y0100625D03*
X0125875Y0114125D03*
X0120250Y0121625D03*
X0112250Y0106625D03*
X0119500Y0142375D03*
X0104625Y0160375D03*
X0097750Y0195375D03*
X0081500Y0190375D03*
X0052125Y0120375D03*
X0065875Y0094750D03*
X0063375Y0087250D03*
X0067750Y0082875D03*
X0072750Y0091000D03*
X0078375Y0085375D03*
X0087125Y0081625D03*
X0082750Y0059125D03*
X0070250Y0059125D03*
X0052125Y0087875D03*
X0140500Y0126125D03*
X0143000Y0118125D03*
X0146500Y0121625D03*
X0154000Y0121625D03*
X0142125Y0100625D03*
X0142125Y0160375D03*
D19*
X0151500Y0145000D03*
X0135000Y0142500D03*
X0137000Y0120000D03*
X0117500Y0094500D03*
X0110500Y0095000D03*
X0101000Y0089000D03*
X0101000Y0065000D03*
X0083000Y0109000D03*
X0058500Y0096000D03*
X0052000Y0083000D03*
X0045000Y0102500D03*
X0041500Y0126500D03*
X0035000Y0143500D03*
X0032000Y0163500D03*
X0043500Y0162500D03*
X0052500Y0177000D03*
X0069000Y0177000D03*
X0109500Y0185500D03*
X0120000Y0185000D03*
X0111000Y0133500D03*
X0112000Y0120000D03*
X0020500Y0131000D03*
X0019500Y0108000D03*
M02*
