G75*
%MOIN*%
%OFA0B0*%
%FSLAX25Y25*%
%IPPOS*%
%LPD*%
%AMOC8*
5,1,8,0,0,1.08239X$1,22.5*
%
%ADD10C,0.00000*%
%ADD11C,0.13398*%
%ADD12C,0.06737*%
%ADD13C,0.06000*%
%ADD14C,0.07850*%
%ADD15C,0.04800*%
%ADD16C,0.04762*%
D10*
X0001500Y0001500D02*
X0001000Y0293461D01*
X0283201Y0292961D01*
X0283701Y0001000D01*
X0001500Y0001500D01*
X0010201Y0016500D02*
X0010203Y0016658D01*
X0010209Y0016816D01*
X0010219Y0016974D01*
X0010233Y0017132D01*
X0010251Y0017289D01*
X0010272Y0017446D01*
X0010298Y0017602D01*
X0010328Y0017758D01*
X0010361Y0017913D01*
X0010399Y0018066D01*
X0010440Y0018219D01*
X0010485Y0018371D01*
X0010534Y0018522D01*
X0010587Y0018671D01*
X0010643Y0018819D01*
X0010703Y0018965D01*
X0010767Y0019110D01*
X0010835Y0019253D01*
X0010906Y0019395D01*
X0010980Y0019535D01*
X0011058Y0019672D01*
X0011140Y0019808D01*
X0011224Y0019942D01*
X0011313Y0020073D01*
X0011404Y0020202D01*
X0011499Y0020329D01*
X0011596Y0020454D01*
X0011697Y0020576D01*
X0011801Y0020695D01*
X0011908Y0020812D01*
X0012018Y0020926D01*
X0012131Y0021037D01*
X0012246Y0021146D01*
X0012364Y0021251D01*
X0012485Y0021353D01*
X0012608Y0021453D01*
X0012734Y0021549D01*
X0012862Y0021642D01*
X0012992Y0021732D01*
X0013125Y0021818D01*
X0013260Y0021902D01*
X0013396Y0021981D01*
X0013535Y0022058D01*
X0013676Y0022130D01*
X0013818Y0022200D01*
X0013962Y0022265D01*
X0014108Y0022327D01*
X0014255Y0022385D01*
X0014404Y0022440D01*
X0014554Y0022491D01*
X0014705Y0022538D01*
X0014857Y0022581D01*
X0015010Y0022620D01*
X0015165Y0022656D01*
X0015320Y0022687D01*
X0015476Y0022715D01*
X0015632Y0022739D01*
X0015789Y0022759D01*
X0015947Y0022775D01*
X0016104Y0022787D01*
X0016263Y0022795D01*
X0016421Y0022799D01*
X0016579Y0022799D01*
X0016737Y0022795D01*
X0016896Y0022787D01*
X0017053Y0022775D01*
X0017211Y0022759D01*
X0017368Y0022739D01*
X0017524Y0022715D01*
X0017680Y0022687D01*
X0017835Y0022656D01*
X0017990Y0022620D01*
X0018143Y0022581D01*
X0018295Y0022538D01*
X0018446Y0022491D01*
X0018596Y0022440D01*
X0018745Y0022385D01*
X0018892Y0022327D01*
X0019038Y0022265D01*
X0019182Y0022200D01*
X0019324Y0022130D01*
X0019465Y0022058D01*
X0019604Y0021981D01*
X0019740Y0021902D01*
X0019875Y0021818D01*
X0020008Y0021732D01*
X0020138Y0021642D01*
X0020266Y0021549D01*
X0020392Y0021453D01*
X0020515Y0021353D01*
X0020636Y0021251D01*
X0020754Y0021146D01*
X0020869Y0021037D01*
X0020982Y0020926D01*
X0021092Y0020812D01*
X0021199Y0020695D01*
X0021303Y0020576D01*
X0021404Y0020454D01*
X0021501Y0020329D01*
X0021596Y0020202D01*
X0021687Y0020073D01*
X0021776Y0019942D01*
X0021860Y0019808D01*
X0021942Y0019672D01*
X0022020Y0019535D01*
X0022094Y0019395D01*
X0022165Y0019253D01*
X0022233Y0019110D01*
X0022297Y0018965D01*
X0022357Y0018819D01*
X0022413Y0018671D01*
X0022466Y0018522D01*
X0022515Y0018371D01*
X0022560Y0018219D01*
X0022601Y0018066D01*
X0022639Y0017913D01*
X0022672Y0017758D01*
X0022702Y0017602D01*
X0022728Y0017446D01*
X0022749Y0017289D01*
X0022767Y0017132D01*
X0022781Y0016974D01*
X0022791Y0016816D01*
X0022797Y0016658D01*
X0022799Y0016500D01*
X0022797Y0016342D01*
X0022791Y0016184D01*
X0022781Y0016026D01*
X0022767Y0015868D01*
X0022749Y0015711D01*
X0022728Y0015554D01*
X0022702Y0015398D01*
X0022672Y0015242D01*
X0022639Y0015087D01*
X0022601Y0014934D01*
X0022560Y0014781D01*
X0022515Y0014629D01*
X0022466Y0014478D01*
X0022413Y0014329D01*
X0022357Y0014181D01*
X0022297Y0014035D01*
X0022233Y0013890D01*
X0022165Y0013747D01*
X0022094Y0013605D01*
X0022020Y0013465D01*
X0021942Y0013328D01*
X0021860Y0013192D01*
X0021776Y0013058D01*
X0021687Y0012927D01*
X0021596Y0012798D01*
X0021501Y0012671D01*
X0021404Y0012546D01*
X0021303Y0012424D01*
X0021199Y0012305D01*
X0021092Y0012188D01*
X0020982Y0012074D01*
X0020869Y0011963D01*
X0020754Y0011854D01*
X0020636Y0011749D01*
X0020515Y0011647D01*
X0020392Y0011547D01*
X0020266Y0011451D01*
X0020138Y0011358D01*
X0020008Y0011268D01*
X0019875Y0011182D01*
X0019740Y0011098D01*
X0019604Y0011019D01*
X0019465Y0010942D01*
X0019324Y0010870D01*
X0019182Y0010800D01*
X0019038Y0010735D01*
X0018892Y0010673D01*
X0018745Y0010615D01*
X0018596Y0010560D01*
X0018446Y0010509D01*
X0018295Y0010462D01*
X0018143Y0010419D01*
X0017990Y0010380D01*
X0017835Y0010344D01*
X0017680Y0010313D01*
X0017524Y0010285D01*
X0017368Y0010261D01*
X0017211Y0010241D01*
X0017053Y0010225D01*
X0016896Y0010213D01*
X0016737Y0010205D01*
X0016579Y0010201D01*
X0016421Y0010201D01*
X0016263Y0010205D01*
X0016104Y0010213D01*
X0015947Y0010225D01*
X0015789Y0010241D01*
X0015632Y0010261D01*
X0015476Y0010285D01*
X0015320Y0010313D01*
X0015165Y0010344D01*
X0015010Y0010380D01*
X0014857Y0010419D01*
X0014705Y0010462D01*
X0014554Y0010509D01*
X0014404Y0010560D01*
X0014255Y0010615D01*
X0014108Y0010673D01*
X0013962Y0010735D01*
X0013818Y0010800D01*
X0013676Y0010870D01*
X0013535Y0010942D01*
X0013396Y0011019D01*
X0013260Y0011098D01*
X0013125Y0011182D01*
X0012992Y0011268D01*
X0012862Y0011358D01*
X0012734Y0011451D01*
X0012608Y0011547D01*
X0012485Y0011647D01*
X0012364Y0011749D01*
X0012246Y0011854D01*
X0012131Y0011963D01*
X0012018Y0012074D01*
X0011908Y0012188D01*
X0011801Y0012305D01*
X0011697Y0012424D01*
X0011596Y0012546D01*
X0011499Y0012671D01*
X0011404Y0012798D01*
X0011313Y0012927D01*
X0011224Y0013058D01*
X0011140Y0013192D01*
X0011058Y0013328D01*
X0010980Y0013465D01*
X0010906Y0013605D01*
X0010835Y0013747D01*
X0010767Y0013890D01*
X0010703Y0014035D01*
X0010643Y0014181D01*
X0010587Y0014329D01*
X0010534Y0014478D01*
X0010485Y0014629D01*
X0010440Y0014781D01*
X0010399Y0014934D01*
X0010361Y0015087D01*
X0010328Y0015242D01*
X0010298Y0015398D01*
X0010272Y0015554D01*
X0010251Y0015711D01*
X0010233Y0015868D01*
X0010219Y0016026D01*
X0010209Y0016184D01*
X0010203Y0016342D01*
X0010201Y0016500D01*
X0155201Y0016500D02*
X0155203Y0016658D01*
X0155209Y0016816D01*
X0155219Y0016974D01*
X0155233Y0017132D01*
X0155251Y0017289D01*
X0155272Y0017446D01*
X0155298Y0017602D01*
X0155328Y0017758D01*
X0155361Y0017913D01*
X0155399Y0018066D01*
X0155440Y0018219D01*
X0155485Y0018371D01*
X0155534Y0018522D01*
X0155587Y0018671D01*
X0155643Y0018819D01*
X0155703Y0018965D01*
X0155767Y0019110D01*
X0155835Y0019253D01*
X0155906Y0019395D01*
X0155980Y0019535D01*
X0156058Y0019672D01*
X0156140Y0019808D01*
X0156224Y0019942D01*
X0156313Y0020073D01*
X0156404Y0020202D01*
X0156499Y0020329D01*
X0156596Y0020454D01*
X0156697Y0020576D01*
X0156801Y0020695D01*
X0156908Y0020812D01*
X0157018Y0020926D01*
X0157131Y0021037D01*
X0157246Y0021146D01*
X0157364Y0021251D01*
X0157485Y0021353D01*
X0157608Y0021453D01*
X0157734Y0021549D01*
X0157862Y0021642D01*
X0157992Y0021732D01*
X0158125Y0021818D01*
X0158260Y0021902D01*
X0158396Y0021981D01*
X0158535Y0022058D01*
X0158676Y0022130D01*
X0158818Y0022200D01*
X0158962Y0022265D01*
X0159108Y0022327D01*
X0159255Y0022385D01*
X0159404Y0022440D01*
X0159554Y0022491D01*
X0159705Y0022538D01*
X0159857Y0022581D01*
X0160010Y0022620D01*
X0160165Y0022656D01*
X0160320Y0022687D01*
X0160476Y0022715D01*
X0160632Y0022739D01*
X0160789Y0022759D01*
X0160947Y0022775D01*
X0161104Y0022787D01*
X0161263Y0022795D01*
X0161421Y0022799D01*
X0161579Y0022799D01*
X0161737Y0022795D01*
X0161896Y0022787D01*
X0162053Y0022775D01*
X0162211Y0022759D01*
X0162368Y0022739D01*
X0162524Y0022715D01*
X0162680Y0022687D01*
X0162835Y0022656D01*
X0162990Y0022620D01*
X0163143Y0022581D01*
X0163295Y0022538D01*
X0163446Y0022491D01*
X0163596Y0022440D01*
X0163745Y0022385D01*
X0163892Y0022327D01*
X0164038Y0022265D01*
X0164182Y0022200D01*
X0164324Y0022130D01*
X0164465Y0022058D01*
X0164604Y0021981D01*
X0164740Y0021902D01*
X0164875Y0021818D01*
X0165008Y0021732D01*
X0165138Y0021642D01*
X0165266Y0021549D01*
X0165392Y0021453D01*
X0165515Y0021353D01*
X0165636Y0021251D01*
X0165754Y0021146D01*
X0165869Y0021037D01*
X0165982Y0020926D01*
X0166092Y0020812D01*
X0166199Y0020695D01*
X0166303Y0020576D01*
X0166404Y0020454D01*
X0166501Y0020329D01*
X0166596Y0020202D01*
X0166687Y0020073D01*
X0166776Y0019942D01*
X0166860Y0019808D01*
X0166942Y0019672D01*
X0167020Y0019535D01*
X0167094Y0019395D01*
X0167165Y0019253D01*
X0167233Y0019110D01*
X0167297Y0018965D01*
X0167357Y0018819D01*
X0167413Y0018671D01*
X0167466Y0018522D01*
X0167515Y0018371D01*
X0167560Y0018219D01*
X0167601Y0018066D01*
X0167639Y0017913D01*
X0167672Y0017758D01*
X0167702Y0017602D01*
X0167728Y0017446D01*
X0167749Y0017289D01*
X0167767Y0017132D01*
X0167781Y0016974D01*
X0167791Y0016816D01*
X0167797Y0016658D01*
X0167799Y0016500D01*
X0167797Y0016342D01*
X0167791Y0016184D01*
X0167781Y0016026D01*
X0167767Y0015868D01*
X0167749Y0015711D01*
X0167728Y0015554D01*
X0167702Y0015398D01*
X0167672Y0015242D01*
X0167639Y0015087D01*
X0167601Y0014934D01*
X0167560Y0014781D01*
X0167515Y0014629D01*
X0167466Y0014478D01*
X0167413Y0014329D01*
X0167357Y0014181D01*
X0167297Y0014035D01*
X0167233Y0013890D01*
X0167165Y0013747D01*
X0167094Y0013605D01*
X0167020Y0013465D01*
X0166942Y0013328D01*
X0166860Y0013192D01*
X0166776Y0013058D01*
X0166687Y0012927D01*
X0166596Y0012798D01*
X0166501Y0012671D01*
X0166404Y0012546D01*
X0166303Y0012424D01*
X0166199Y0012305D01*
X0166092Y0012188D01*
X0165982Y0012074D01*
X0165869Y0011963D01*
X0165754Y0011854D01*
X0165636Y0011749D01*
X0165515Y0011647D01*
X0165392Y0011547D01*
X0165266Y0011451D01*
X0165138Y0011358D01*
X0165008Y0011268D01*
X0164875Y0011182D01*
X0164740Y0011098D01*
X0164604Y0011019D01*
X0164465Y0010942D01*
X0164324Y0010870D01*
X0164182Y0010800D01*
X0164038Y0010735D01*
X0163892Y0010673D01*
X0163745Y0010615D01*
X0163596Y0010560D01*
X0163446Y0010509D01*
X0163295Y0010462D01*
X0163143Y0010419D01*
X0162990Y0010380D01*
X0162835Y0010344D01*
X0162680Y0010313D01*
X0162524Y0010285D01*
X0162368Y0010261D01*
X0162211Y0010241D01*
X0162053Y0010225D01*
X0161896Y0010213D01*
X0161737Y0010205D01*
X0161579Y0010201D01*
X0161421Y0010201D01*
X0161263Y0010205D01*
X0161104Y0010213D01*
X0160947Y0010225D01*
X0160789Y0010241D01*
X0160632Y0010261D01*
X0160476Y0010285D01*
X0160320Y0010313D01*
X0160165Y0010344D01*
X0160010Y0010380D01*
X0159857Y0010419D01*
X0159705Y0010462D01*
X0159554Y0010509D01*
X0159404Y0010560D01*
X0159255Y0010615D01*
X0159108Y0010673D01*
X0158962Y0010735D01*
X0158818Y0010800D01*
X0158676Y0010870D01*
X0158535Y0010942D01*
X0158396Y0011019D01*
X0158260Y0011098D01*
X0158125Y0011182D01*
X0157992Y0011268D01*
X0157862Y0011358D01*
X0157734Y0011451D01*
X0157608Y0011547D01*
X0157485Y0011647D01*
X0157364Y0011749D01*
X0157246Y0011854D01*
X0157131Y0011963D01*
X0157018Y0012074D01*
X0156908Y0012188D01*
X0156801Y0012305D01*
X0156697Y0012424D01*
X0156596Y0012546D01*
X0156499Y0012671D01*
X0156404Y0012798D01*
X0156313Y0012927D01*
X0156224Y0013058D01*
X0156140Y0013192D01*
X0156058Y0013328D01*
X0155980Y0013465D01*
X0155906Y0013605D01*
X0155835Y0013747D01*
X0155767Y0013890D01*
X0155703Y0014035D01*
X0155643Y0014181D01*
X0155587Y0014329D01*
X0155534Y0014478D01*
X0155485Y0014629D01*
X0155440Y0014781D01*
X0155399Y0014934D01*
X0155361Y0015087D01*
X0155328Y0015242D01*
X0155298Y0015398D01*
X0155272Y0015554D01*
X0155251Y0015711D01*
X0155233Y0015868D01*
X0155219Y0016026D01*
X0155209Y0016184D01*
X0155203Y0016342D01*
X0155201Y0016500D01*
X0255201Y0018500D02*
X0255203Y0018658D01*
X0255209Y0018816D01*
X0255219Y0018974D01*
X0255233Y0019132D01*
X0255251Y0019289D01*
X0255272Y0019446D01*
X0255298Y0019602D01*
X0255328Y0019758D01*
X0255361Y0019913D01*
X0255399Y0020066D01*
X0255440Y0020219D01*
X0255485Y0020371D01*
X0255534Y0020522D01*
X0255587Y0020671D01*
X0255643Y0020819D01*
X0255703Y0020965D01*
X0255767Y0021110D01*
X0255835Y0021253D01*
X0255906Y0021395D01*
X0255980Y0021535D01*
X0256058Y0021672D01*
X0256140Y0021808D01*
X0256224Y0021942D01*
X0256313Y0022073D01*
X0256404Y0022202D01*
X0256499Y0022329D01*
X0256596Y0022454D01*
X0256697Y0022576D01*
X0256801Y0022695D01*
X0256908Y0022812D01*
X0257018Y0022926D01*
X0257131Y0023037D01*
X0257246Y0023146D01*
X0257364Y0023251D01*
X0257485Y0023353D01*
X0257608Y0023453D01*
X0257734Y0023549D01*
X0257862Y0023642D01*
X0257992Y0023732D01*
X0258125Y0023818D01*
X0258260Y0023902D01*
X0258396Y0023981D01*
X0258535Y0024058D01*
X0258676Y0024130D01*
X0258818Y0024200D01*
X0258962Y0024265D01*
X0259108Y0024327D01*
X0259255Y0024385D01*
X0259404Y0024440D01*
X0259554Y0024491D01*
X0259705Y0024538D01*
X0259857Y0024581D01*
X0260010Y0024620D01*
X0260165Y0024656D01*
X0260320Y0024687D01*
X0260476Y0024715D01*
X0260632Y0024739D01*
X0260789Y0024759D01*
X0260947Y0024775D01*
X0261104Y0024787D01*
X0261263Y0024795D01*
X0261421Y0024799D01*
X0261579Y0024799D01*
X0261737Y0024795D01*
X0261896Y0024787D01*
X0262053Y0024775D01*
X0262211Y0024759D01*
X0262368Y0024739D01*
X0262524Y0024715D01*
X0262680Y0024687D01*
X0262835Y0024656D01*
X0262990Y0024620D01*
X0263143Y0024581D01*
X0263295Y0024538D01*
X0263446Y0024491D01*
X0263596Y0024440D01*
X0263745Y0024385D01*
X0263892Y0024327D01*
X0264038Y0024265D01*
X0264182Y0024200D01*
X0264324Y0024130D01*
X0264465Y0024058D01*
X0264604Y0023981D01*
X0264740Y0023902D01*
X0264875Y0023818D01*
X0265008Y0023732D01*
X0265138Y0023642D01*
X0265266Y0023549D01*
X0265392Y0023453D01*
X0265515Y0023353D01*
X0265636Y0023251D01*
X0265754Y0023146D01*
X0265869Y0023037D01*
X0265982Y0022926D01*
X0266092Y0022812D01*
X0266199Y0022695D01*
X0266303Y0022576D01*
X0266404Y0022454D01*
X0266501Y0022329D01*
X0266596Y0022202D01*
X0266687Y0022073D01*
X0266776Y0021942D01*
X0266860Y0021808D01*
X0266942Y0021672D01*
X0267020Y0021535D01*
X0267094Y0021395D01*
X0267165Y0021253D01*
X0267233Y0021110D01*
X0267297Y0020965D01*
X0267357Y0020819D01*
X0267413Y0020671D01*
X0267466Y0020522D01*
X0267515Y0020371D01*
X0267560Y0020219D01*
X0267601Y0020066D01*
X0267639Y0019913D01*
X0267672Y0019758D01*
X0267702Y0019602D01*
X0267728Y0019446D01*
X0267749Y0019289D01*
X0267767Y0019132D01*
X0267781Y0018974D01*
X0267791Y0018816D01*
X0267797Y0018658D01*
X0267799Y0018500D01*
X0267797Y0018342D01*
X0267791Y0018184D01*
X0267781Y0018026D01*
X0267767Y0017868D01*
X0267749Y0017711D01*
X0267728Y0017554D01*
X0267702Y0017398D01*
X0267672Y0017242D01*
X0267639Y0017087D01*
X0267601Y0016934D01*
X0267560Y0016781D01*
X0267515Y0016629D01*
X0267466Y0016478D01*
X0267413Y0016329D01*
X0267357Y0016181D01*
X0267297Y0016035D01*
X0267233Y0015890D01*
X0267165Y0015747D01*
X0267094Y0015605D01*
X0267020Y0015465D01*
X0266942Y0015328D01*
X0266860Y0015192D01*
X0266776Y0015058D01*
X0266687Y0014927D01*
X0266596Y0014798D01*
X0266501Y0014671D01*
X0266404Y0014546D01*
X0266303Y0014424D01*
X0266199Y0014305D01*
X0266092Y0014188D01*
X0265982Y0014074D01*
X0265869Y0013963D01*
X0265754Y0013854D01*
X0265636Y0013749D01*
X0265515Y0013647D01*
X0265392Y0013547D01*
X0265266Y0013451D01*
X0265138Y0013358D01*
X0265008Y0013268D01*
X0264875Y0013182D01*
X0264740Y0013098D01*
X0264604Y0013019D01*
X0264465Y0012942D01*
X0264324Y0012870D01*
X0264182Y0012800D01*
X0264038Y0012735D01*
X0263892Y0012673D01*
X0263745Y0012615D01*
X0263596Y0012560D01*
X0263446Y0012509D01*
X0263295Y0012462D01*
X0263143Y0012419D01*
X0262990Y0012380D01*
X0262835Y0012344D01*
X0262680Y0012313D01*
X0262524Y0012285D01*
X0262368Y0012261D01*
X0262211Y0012241D01*
X0262053Y0012225D01*
X0261896Y0012213D01*
X0261737Y0012205D01*
X0261579Y0012201D01*
X0261421Y0012201D01*
X0261263Y0012205D01*
X0261104Y0012213D01*
X0260947Y0012225D01*
X0260789Y0012241D01*
X0260632Y0012261D01*
X0260476Y0012285D01*
X0260320Y0012313D01*
X0260165Y0012344D01*
X0260010Y0012380D01*
X0259857Y0012419D01*
X0259705Y0012462D01*
X0259554Y0012509D01*
X0259404Y0012560D01*
X0259255Y0012615D01*
X0259108Y0012673D01*
X0258962Y0012735D01*
X0258818Y0012800D01*
X0258676Y0012870D01*
X0258535Y0012942D01*
X0258396Y0013019D01*
X0258260Y0013098D01*
X0258125Y0013182D01*
X0257992Y0013268D01*
X0257862Y0013358D01*
X0257734Y0013451D01*
X0257608Y0013547D01*
X0257485Y0013647D01*
X0257364Y0013749D01*
X0257246Y0013854D01*
X0257131Y0013963D01*
X0257018Y0014074D01*
X0256908Y0014188D01*
X0256801Y0014305D01*
X0256697Y0014424D01*
X0256596Y0014546D01*
X0256499Y0014671D01*
X0256404Y0014798D01*
X0256313Y0014927D01*
X0256224Y0015058D01*
X0256140Y0015192D01*
X0256058Y0015328D01*
X0255980Y0015465D01*
X0255906Y0015605D01*
X0255835Y0015747D01*
X0255767Y0015890D01*
X0255703Y0016035D01*
X0255643Y0016181D01*
X0255587Y0016329D01*
X0255534Y0016478D01*
X0255485Y0016629D01*
X0255440Y0016781D01*
X0255399Y0016934D01*
X0255361Y0017087D01*
X0255328Y0017242D01*
X0255298Y0017398D01*
X0255272Y0017554D01*
X0255251Y0017711D01*
X0255233Y0017868D01*
X0255219Y0018026D01*
X0255209Y0018184D01*
X0255203Y0018342D01*
X0255201Y0018500D01*
X0155201Y0281000D02*
X0155203Y0281158D01*
X0155209Y0281316D01*
X0155219Y0281474D01*
X0155233Y0281632D01*
X0155251Y0281789D01*
X0155272Y0281946D01*
X0155298Y0282102D01*
X0155328Y0282258D01*
X0155361Y0282413D01*
X0155399Y0282566D01*
X0155440Y0282719D01*
X0155485Y0282871D01*
X0155534Y0283022D01*
X0155587Y0283171D01*
X0155643Y0283319D01*
X0155703Y0283465D01*
X0155767Y0283610D01*
X0155835Y0283753D01*
X0155906Y0283895D01*
X0155980Y0284035D01*
X0156058Y0284172D01*
X0156140Y0284308D01*
X0156224Y0284442D01*
X0156313Y0284573D01*
X0156404Y0284702D01*
X0156499Y0284829D01*
X0156596Y0284954D01*
X0156697Y0285076D01*
X0156801Y0285195D01*
X0156908Y0285312D01*
X0157018Y0285426D01*
X0157131Y0285537D01*
X0157246Y0285646D01*
X0157364Y0285751D01*
X0157485Y0285853D01*
X0157608Y0285953D01*
X0157734Y0286049D01*
X0157862Y0286142D01*
X0157992Y0286232D01*
X0158125Y0286318D01*
X0158260Y0286402D01*
X0158396Y0286481D01*
X0158535Y0286558D01*
X0158676Y0286630D01*
X0158818Y0286700D01*
X0158962Y0286765D01*
X0159108Y0286827D01*
X0159255Y0286885D01*
X0159404Y0286940D01*
X0159554Y0286991D01*
X0159705Y0287038D01*
X0159857Y0287081D01*
X0160010Y0287120D01*
X0160165Y0287156D01*
X0160320Y0287187D01*
X0160476Y0287215D01*
X0160632Y0287239D01*
X0160789Y0287259D01*
X0160947Y0287275D01*
X0161104Y0287287D01*
X0161263Y0287295D01*
X0161421Y0287299D01*
X0161579Y0287299D01*
X0161737Y0287295D01*
X0161896Y0287287D01*
X0162053Y0287275D01*
X0162211Y0287259D01*
X0162368Y0287239D01*
X0162524Y0287215D01*
X0162680Y0287187D01*
X0162835Y0287156D01*
X0162990Y0287120D01*
X0163143Y0287081D01*
X0163295Y0287038D01*
X0163446Y0286991D01*
X0163596Y0286940D01*
X0163745Y0286885D01*
X0163892Y0286827D01*
X0164038Y0286765D01*
X0164182Y0286700D01*
X0164324Y0286630D01*
X0164465Y0286558D01*
X0164604Y0286481D01*
X0164740Y0286402D01*
X0164875Y0286318D01*
X0165008Y0286232D01*
X0165138Y0286142D01*
X0165266Y0286049D01*
X0165392Y0285953D01*
X0165515Y0285853D01*
X0165636Y0285751D01*
X0165754Y0285646D01*
X0165869Y0285537D01*
X0165982Y0285426D01*
X0166092Y0285312D01*
X0166199Y0285195D01*
X0166303Y0285076D01*
X0166404Y0284954D01*
X0166501Y0284829D01*
X0166596Y0284702D01*
X0166687Y0284573D01*
X0166776Y0284442D01*
X0166860Y0284308D01*
X0166942Y0284172D01*
X0167020Y0284035D01*
X0167094Y0283895D01*
X0167165Y0283753D01*
X0167233Y0283610D01*
X0167297Y0283465D01*
X0167357Y0283319D01*
X0167413Y0283171D01*
X0167466Y0283022D01*
X0167515Y0282871D01*
X0167560Y0282719D01*
X0167601Y0282566D01*
X0167639Y0282413D01*
X0167672Y0282258D01*
X0167702Y0282102D01*
X0167728Y0281946D01*
X0167749Y0281789D01*
X0167767Y0281632D01*
X0167781Y0281474D01*
X0167791Y0281316D01*
X0167797Y0281158D01*
X0167799Y0281000D01*
X0167797Y0280842D01*
X0167791Y0280684D01*
X0167781Y0280526D01*
X0167767Y0280368D01*
X0167749Y0280211D01*
X0167728Y0280054D01*
X0167702Y0279898D01*
X0167672Y0279742D01*
X0167639Y0279587D01*
X0167601Y0279434D01*
X0167560Y0279281D01*
X0167515Y0279129D01*
X0167466Y0278978D01*
X0167413Y0278829D01*
X0167357Y0278681D01*
X0167297Y0278535D01*
X0167233Y0278390D01*
X0167165Y0278247D01*
X0167094Y0278105D01*
X0167020Y0277965D01*
X0166942Y0277828D01*
X0166860Y0277692D01*
X0166776Y0277558D01*
X0166687Y0277427D01*
X0166596Y0277298D01*
X0166501Y0277171D01*
X0166404Y0277046D01*
X0166303Y0276924D01*
X0166199Y0276805D01*
X0166092Y0276688D01*
X0165982Y0276574D01*
X0165869Y0276463D01*
X0165754Y0276354D01*
X0165636Y0276249D01*
X0165515Y0276147D01*
X0165392Y0276047D01*
X0165266Y0275951D01*
X0165138Y0275858D01*
X0165008Y0275768D01*
X0164875Y0275682D01*
X0164740Y0275598D01*
X0164604Y0275519D01*
X0164465Y0275442D01*
X0164324Y0275370D01*
X0164182Y0275300D01*
X0164038Y0275235D01*
X0163892Y0275173D01*
X0163745Y0275115D01*
X0163596Y0275060D01*
X0163446Y0275009D01*
X0163295Y0274962D01*
X0163143Y0274919D01*
X0162990Y0274880D01*
X0162835Y0274844D01*
X0162680Y0274813D01*
X0162524Y0274785D01*
X0162368Y0274761D01*
X0162211Y0274741D01*
X0162053Y0274725D01*
X0161896Y0274713D01*
X0161737Y0274705D01*
X0161579Y0274701D01*
X0161421Y0274701D01*
X0161263Y0274705D01*
X0161104Y0274713D01*
X0160947Y0274725D01*
X0160789Y0274741D01*
X0160632Y0274761D01*
X0160476Y0274785D01*
X0160320Y0274813D01*
X0160165Y0274844D01*
X0160010Y0274880D01*
X0159857Y0274919D01*
X0159705Y0274962D01*
X0159554Y0275009D01*
X0159404Y0275060D01*
X0159255Y0275115D01*
X0159108Y0275173D01*
X0158962Y0275235D01*
X0158818Y0275300D01*
X0158676Y0275370D01*
X0158535Y0275442D01*
X0158396Y0275519D01*
X0158260Y0275598D01*
X0158125Y0275682D01*
X0157992Y0275768D01*
X0157862Y0275858D01*
X0157734Y0275951D01*
X0157608Y0276047D01*
X0157485Y0276147D01*
X0157364Y0276249D01*
X0157246Y0276354D01*
X0157131Y0276463D01*
X0157018Y0276574D01*
X0156908Y0276688D01*
X0156801Y0276805D01*
X0156697Y0276924D01*
X0156596Y0277046D01*
X0156499Y0277171D01*
X0156404Y0277298D01*
X0156313Y0277427D01*
X0156224Y0277558D01*
X0156140Y0277692D01*
X0156058Y0277828D01*
X0155980Y0277965D01*
X0155906Y0278105D01*
X0155835Y0278247D01*
X0155767Y0278390D01*
X0155703Y0278535D01*
X0155643Y0278681D01*
X0155587Y0278829D01*
X0155534Y0278978D01*
X0155485Y0279129D01*
X0155440Y0279281D01*
X0155399Y0279434D01*
X0155361Y0279587D01*
X0155328Y0279742D01*
X0155298Y0279898D01*
X0155272Y0280054D01*
X0155251Y0280211D01*
X0155233Y0280368D01*
X0155219Y0280526D01*
X0155209Y0280684D01*
X0155203Y0280842D01*
X0155201Y0281000D01*
X0007701Y0280500D02*
X0007703Y0280658D01*
X0007709Y0280816D01*
X0007719Y0280974D01*
X0007733Y0281132D01*
X0007751Y0281289D01*
X0007772Y0281446D01*
X0007798Y0281602D01*
X0007828Y0281758D01*
X0007861Y0281913D01*
X0007899Y0282066D01*
X0007940Y0282219D01*
X0007985Y0282371D01*
X0008034Y0282522D01*
X0008087Y0282671D01*
X0008143Y0282819D01*
X0008203Y0282965D01*
X0008267Y0283110D01*
X0008335Y0283253D01*
X0008406Y0283395D01*
X0008480Y0283535D01*
X0008558Y0283672D01*
X0008640Y0283808D01*
X0008724Y0283942D01*
X0008813Y0284073D01*
X0008904Y0284202D01*
X0008999Y0284329D01*
X0009096Y0284454D01*
X0009197Y0284576D01*
X0009301Y0284695D01*
X0009408Y0284812D01*
X0009518Y0284926D01*
X0009631Y0285037D01*
X0009746Y0285146D01*
X0009864Y0285251D01*
X0009985Y0285353D01*
X0010108Y0285453D01*
X0010234Y0285549D01*
X0010362Y0285642D01*
X0010492Y0285732D01*
X0010625Y0285818D01*
X0010760Y0285902D01*
X0010896Y0285981D01*
X0011035Y0286058D01*
X0011176Y0286130D01*
X0011318Y0286200D01*
X0011462Y0286265D01*
X0011608Y0286327D01*
X0011755Y0286385D01*
X0011904Y0286440D01*
X0012054Y0286491D01*
X0012205Y0286538D01*
X0012357Y0286581D01*
X0012510Y0286620D01*
X0012665Y0286656D01*
X0012820Y0286687D01*
X0012976Y0286715D01*
X0013132Y0286739D01*
X0013289Y0286759D01*
X0013447Y0286775D01*
X0013604Y0286787D01*
X0013763Y0286795D01*
X0013921Y0286799D01*
X0014079Y0286799D01*
X0014237Y0286795D01*
X0014396Y0286787D01*
X0014553Y0286775D01*
X0014711Y0286759D01*
X0014868Y0286739D01*
X0015024Y0286715D01*
X0015180Y0286687D01*
X0015335Y0286656D01*
X0015490Y0286620D01*
X0015643Y0286581D01*
X0015795Y0286538D01*
X0015946Y0286491D01*
X0016096Y0286440D01*
X0016245Y0286385D01*
X0016392Y0286327D01*
X0016538Y0286265D01*
X0016682Y0286200D01*
X0016824Y0286130D01*
X0016965Y0286058D01*
X0017104Y0285981D01*
X0017240Y0285902D01*
X0017375Y0285818D01*
X0017508Y0285732D01*
X0017638Y0285642D01*
X0017766Y0285549D01*
X0017892Y0285453D01*
X0018015Y0285353D01*
X0018136Y0285251D01*
X0018254Y0285146D01*
X0018369Y0285037D01*
X0018482Y0284926D01*
X0018592Y0284812D01*
X0018699Y0284695D01*
X0018803Y0284576D01*
X0018904Y0284454D01*
X0019001Y0284329D01*
X0019096Y0284202D01*
X0019187Y0284073D01*
X0019276Y0283942D01*
X0019360Y0283808D01*
X0019442Y0283672D01*
X0019520Y0283535D01*
X0019594Y0283395D01*
X0019665Y0283253D01*
X0019733Y0283110D01*
X0019797Y0282965D01*
X0019857Y0282819D01*
X0019913Y0282671D01*
X0019966Y0282522D01*
X0020015Y0282371D01*
X0020060Y0282219D01*
X0020101Y0282066D01*
X0020139Y0281913D01*
X0020172Y0281758D01*
X0020202Y0281602D01*
X0020228Y0281446D01*
X0020249Y0281289D01*
X0020267Y0281132D01*
X0020281Y0280974D01*
X0020291Y0280816D01*
X0020297Y0280658D01*
X0020299Y0280500D01*
X0020297Y0280342D01*
X0020291Y0280184D01*
X0020281Y0280026D01*
X0020267Y0279868D01*
X0020249Y0279711D01*
X0020228Y0279554D01*
X0020202Y0279398D01*
X0020172Y0279242D01*
X0020139Y0279087D01*
X0020101Y0278934D01*
X0020060Y0278781D01*
X0020015Y0278629D01*
X0019966Y0278478D01*
X0019913Y0278329D01*
X0019857Y0278181D01*
X0019797Y0278035D01*
X0019733Y0277890D01*
X0019665Y0277747D01*
X0019594Y0277605D01*
X0019520Y0277465D01*
X0019442Y0277328D01*
X0019360Y0277192D01*
X0019276Y0277058D01*
X0019187Y0276927D01*
X0019096Y0276798D01*
X0019001Y0276671D01*
X0018904Y0276546D01*
X0018803Y0276424D01*
X0018699Y0276305D01*
X0018592Y0276188D01*
X0018482Y0276074D01*
X0018369Y0275963D01*
X0018254Y0275854D01*
X0018136Y0275749D01*
X0018015Y0275647D01*
X0017892Y0275547D01*
X0017766Y0275451D01*
X0017638Y0275358D01*
X0017508Y0275268D01*
X0017375Y0275182D01*
X0017240Y0275098D01*
X0017104Y0275019D01*
X0016965Y0274942D01*
X0016824Y0274870D01*
X0016682Y0274800D01*
X0016538Y0274735D01*
X0016392Y0274673D01*
X0016245Y0274615D01*
X0016096Y0274560D01*
X0015946Y0274509D01*
X0015795Y0274462D01*
X0015643Y0274419D01*
X0015490Y0274380D01*
X0015335Y0274344D01*
X0015180Y0274313D01*
X0015024Y0274285D01*
X0014868Y0274261D01*
X0014711Y0274241D01*
X0014553Y0274225D01*
X0014396Y0274213D01*
X0014237Y0274205D01*
X0014079Y0274201D01*
X0013921Y0274201D01*
X0013763Y0274205D01*
X0013604Y0274213D01*
X0013447Y0274225D01*
X0013289Y0274241D01*
X0013132Y0274261D01*
X0012976Y0274285D01*
X0012820Y0274313D01*
X0012665Y0274344D01*
X0012510Y0274380D01*
X0012357Y0274419D01*
X0012205Y0274462D01*
X0012054Y0274509D01*
X0011904Y0274560D01*
X0011755Y0274615D01*
X0011608Y0274673D01*
X0011462Y0274735D01*
X0011318Y0274800D01*
X0011176Y0274870D01*
X0011035Y0274942D01*
X0010896Y0275019D01*
X0010760Y0275098D01*
X0010625Y0275182D01*
X0010492Y0275268D01*
X0010362Y0275358D01*
X0010234Y0275451D01*
X0010108Y0275547D01*
X0009985Y0275647D01*
X0009864Y0275749D01*
X0009746Y0275854D01*
X0009631Y0275963D01*
X0009518Y0276074D01*
X0009408Y0276188D01*
X0009301Y0276305D01*
X0009197Y0276424D01*
X0009096Y0276546D01*
X0008999Y0276671D01*
X0008904Y0276798D01*
X0008813Y0276927D01*
X0008724Y0277058D01*
X0008640Y0277192D01*
X0008558Y0277328D01*
X0008480Y0277465D01*
X0008406Y0277605D01*
X0008335Y0277747D01*
X0008267Y0277890D01*
X0008203Y0278035D01*
X0008143Y0278181D01*
X0008087Y0278329D01*
X0008034Y0278478D01*
X0007985Y0278629D01*
X0007940Y0278781D01*
X0007899Y0278934D01*
X0007861Y0279087D01*
X0007828Y0279242D01*
X0007798Y0279398D01*
X0007772Y0279554D01*
X0007751Y0279711D01*
X0007733Y0279868D01*
X0007719Y0280026D01*
X0007709Y0280184D01*
X0007703Y0280342D01*
X0007701Y0280500D01*
D11*
X0014000Y0280500D03*
X0161500Y0281000D03*
X0261500Y0018500D03*
X0161500Y0016500D03*
X0016500Y0016500D03*
D12*
X0082500Y0025531D02*
X0082500Y0031469D01*
X0092500Y0031469D02*
X0092500Y0025531D01*
X0102500Y0025531D02*
X0102500Y0031469D01*
X0112500Y0031469D02*
X0112500Y0025531D01*
X0122500Y0025531D02*
X0122500Y0031469D01*
X0179531Y0106500D02*
X0185469Y0106500D01*
X0185469Y0116500D02*
X0179531Y0116500D01*
X0179031Y0126500D02*
X0184969Y0126500D01*
X0184969Y0136500D02*
X0179031Y0136500D01*
X0192031Y0163500D02*
X0197969Y0163500D01*
X0197969Y0173500D02*
X0192031Y0173500D01*
X0192031Y0183500D02*
X0197969Y0183500D01*
X0223031Y0141000D02*
X0228969Y0141000D01*
X0228969Y0131000D02*
X0223031Y0131000D01*
X0223031Y0112000D02*
X0228969Y0112000D01*
X0228969Y0102000D02*
X0223031Y0102000D01*
X0223031Y0078000D02*
X0228969Y0078000D01*
X0228969Y0068000D02*
X0223031Y0068000D01*
X0259031Y0102000D02*
X0264969Y0102000D01*
X0264969Y0112000D02*
X0259031Y0112000D01*
X0259031Y0122000D02*
X0264969Y0122000D01*
X0202500Y0275531D02*
X0202500Y0281469D01*
X0192500Y0281469D02*
X0192500Y0275531D01*
X0182500Y0275531D02*
X0182500Y0281469D01*
X0247000Y0283469D02*
X0247000Y0277531D01*
X0262000Y0277531D02*
X0262000Y0283469D01*
X0081500Y0272469D02*
X0081500Y0266531D01*
X0071500Y0266531D02*
X0071500Y0272469D01*
X0061500Y0272469D02*
X0061500Y0266531D01*
D13*
X0174500Y0254000D03*
X0174500Y0244000D03*
X0174500Y0234000D03*
X0174500Y0224000D03*
X0204500Y0224000D03*
X0204500Y0234000D03*
X0204500Y0244000D03*
X0204500Y0254000D03*
D14*
X0257975Y0248343D02*
X0265025Y0248343D01*
X0265025Y0228657D02*
X0257975Y0228657D01*
X0258975Y0197843D02*
X0266025Y0197843D01*
X0266025Y0178157D02*
X0258975Y0178157D01*
X0219843Y0032025D02*
X0219843Y0024975D01*
X0200157Y0024975D02*
X0200157Y0032025D01*
D15*
X0145201Y0058587D03*
X0142125Y0101125D03*
X0133125Y0101125D03*
X0125875Y0114625D03*
X0120250Y0122125D03*
X0112250Y0107125D03*
X0087125Y0082125D03*
X0075875Y0085875D03*
X0072750Y0091500D03*
X0065875Y0095250D03*
X0063375Y0087750D03*
X0067750Y0083375D03*
X0052125Y0088375D03*
X0070250Y0059625D03*
X0082750Y0059625D03*
X0052125Y0120875D03*
X0104625Y0160875D03*
X0119500Y0142875D03*
X0140500Y0126625D03*
X0146500Y0124625D03*
X0157500Y0122125D03*
X0154000Y0113625D03*
X0137125Y0173875D03*
X0097750Y0195875D03*
X0077500Y0189375D03*
X0032996Y0255437D03*
X0190476Y0245594D03*
X0221972Y0200319D03*
X0253469Y0117642D03*
X0263311Y0090083D03*
D16*
X0153500Y0149000D03*
X0135000Y0143000D03*
X0137000Y0120500D03*
X0120500Y0096500D03*
X0109500Y0097000D03*
X0101000Y0089500D03*
X0083000Y0109500D03*
X0058500Y0096500D03*
X0052500Y0073500D03*
X0019500Y0108500D03*
X0020500Y0131500D03*
X0035000Y0144000D03*
X0032000Y0157000D03*
X0049000Y0160500D03*
X0052500Y0177500D03*
X0069000Y0177500D03*
X0105500Y0186000D03*
X0120500Y0185500D03*
X0111000Y0134000D03*
X0112000Y0120500D03*
X0101000Y0065500D03*
X0041500Y0127000D03*
M02*
