G75*
%MOIN*%
%OFA0B0*%
%FSLAX25Y25*%
%IPPOS*%
%LPD*%
%AMOC8*
5,1,8,0,0,1.08239X$1,22.5*
%
%ADD10C,0.00000*%
%ADD11C,0.00300*%
%ADD12C,0.00500*%
%ADD13C,0.00400*%
%ADD14C,0.00600*%
D10*
X0001500Y0001500D02*
X0001000Y0293461D01*
X0283201Y0292961D01*
X0283701Y0001000D01*
X0001500Y0001500D01*
X0010201Y0016500D02*
X0010203Y0016658D01*
X0010209Y0016816D01*
X0010219Y0016974D01*
X0010233Y0017132D01*
X0010251Y0017289D01*
X0010272Y0017446D01*
X0010298Y0017602D01*
X0010328Y0017758D01*
X0010361Y0017913D01*
X0010399Y0018066D01*
X0010440Y0018219D01*
X0010485Y0018371D01*
X0010534Y0018522D01*
X0010587Y0018671D01*
X0010643Y0018819D01*
X0010703Y0018965D01*
X0010767Y0019110D01*
X0010835Y0019253D01*
X0010906Y0019395D01*
X0010980Y0019535D01*
X0011058Y0019672D01*
X0011140Y0019808D01*
X0011224Y0019942D01*
X0011313Y0020073D01*
X0011404Y0020202D01*
X0011499Y0020329D01*
X0011596Y0020454D01*
X0011697Y0020576D01*
X0011801Y0020695D01*
X0011908Y0020812D01*
X0012018Y0020926D01*
X0012131Y0021037D01*
X0012246Y0021146D01*
X0012364Y0021251D01*
X0012485Y0021353D01*
X0012608Y0021453D01*
X0012734Y0021549D01*
X0012862Y0021642D01*
X0012992Y0021732D01*
X0013125Y0021818D01*
X0013260Y0021902D01*
X0013396Y0021981D01*
X0013535Y0022058D01*
X0013676Y0022130D01*
X0013818Y0022200D01*
X0013962Y0022265D01*
X0014108Y0022327D01*
X0014255Y0022385D01*
X0014404Y0022440D01*
X0014554Y0022491D01*
X0014705Y0022538D01*
X0014857Y0022581D01*
X0015010Y0022620D01*
X0015165Y0022656D01*
X0015320Y0022687D01*
X0015476Y0022715D01*
X0015632Y0022739D01*
X0015789Y0022759D01*
X0015947Y0022775D01*
X0016104Y0022787D01*
X0016263Y0022795D01*
X0016421Y0022799D01*
X0016579Y0022799D01*
X0016737Y0022795D01*
X0016896Y0022787D01*
X0017053Y0022775D01*
X0017211Y0022759D01*
X0017368Y0022739D01*
X0017524Y0022715D01*
X0017680Y0022687D01*
X0017835Y0022656D01*
X0017990Y0022620D01*
X0018143Y0022581D01*
X0018295Y0022538D01*
X0018446Y0022491D01*
X0018596Y0022440D01*
X0018745Y0022385D01*
X0018892Y0022327D01*
X0019038Y0022265D01*
X0019182Y0022200D01*
X0019324Y0022130D01*
X0019465Y0022058D01*
X0019604Y0021981D01*
X0019740Y0021902D01*
X0019875Y0021818D01*
X0020008Y0021732D01*
X0020138Y0021642D01*
X0020266Y0021549D01*
X0020392Y0021453D01*
X0020515Y0021353D01*
X0020636Y0021251D01*
X0020754Y0021146D01*
X0020869Y0021037D01*
X0020982Y0020926D01*
X0021092Y0020812D01*
X0021199Y0020695D01*
X0021303Y0020576D01*
X0021404Y0020454D01*
X0021501Y0020329D01*
X0021596Y0020202D01*
X0021687Y0020073D01*
X0021776Y0019942D01*
X0021860Y0019808D01*
X0021942Y0019672D01*
X0022020Y0019535D01*
X0022094Y0019395D01*
X0022165Y0019253D01*
X0022233Y0019110D01*
X0022297Y0018965D01*
X0022357Y0018819D01*
X0022413Y0018671D01*
X0022466Y0018522D01*
X0022515Y0018371D01*
X0022560Y0018219D01*
X0022601Y0018066D01*
X0022639Y0017913D01*
X0022672Y0017758D01*
X0022702Y0017602D01*
X0022728Y0017446D01*
X0022749Y0017289D01*
X0022767Y0017132D01*
X0022781Y0016974D01*
X0022791Y0016816D01*
X0022797Y0016658D01*
X0022799Y0016500D01*
X0022797Y0016342D01*
X0022791Y0016184D01*
X0022781Y0016026D01*
X0022767Y0015868D01*
X0022749Y0015711D01*
X0022728Y0015554D01*
X0022702Y0015398D01*
X0022672Y0015242D01*
X0022639Y0015087D01*
X0022601Y0014934D01*
X0022560Y0014781D01*
X0022515Y0014629D01*
X0022466Y0014478D01*
X0022413Y0014329D01*
X0022357Y0014181D01*
X0022297Y0014035D01*
X0022233Y0013890D01*
X0022165Y0013747D01*
X0022094Y0013605D01*
X0022020Y0013465D01*
X0021942Y0013328D01*
X0021860Y0013192D01*
X0021776Y0013058D01*
X0021687Y0012927D01*
X0021596Y0012798D01*
X0021501Y0012671D01*
X0021404Y0012546D01*
X0021303Y0012424D01*
X0021199Y0012305D01*
X0021092Y0012188D01*
X0020982Y0012074D01*
X0020869Y0011963D01*
X0020754Y0011854D01*
X0020636Y0011749D01*
X0020515Y0011647D01*
X0020392Y0011547D01*
X0020266Y0011451D01*
X0020138Y0011358D01*
X0020008Y0011268D01*
X0019875Y0011182D01*
X0019740Y0011098D01*
X0019604Y0011019D01*
X0019465Y0010942D01*
X0019324Y0010870D01*
X0019182Y0010800D01*
X0019038Y0010735D01*
X0018892Y0010673D01*
X0018745Y0010615D01*
X0018596Y0010560D01*
X0018446Y0010509D01*
X0018295Y0010462D01*
X0018143Y0010419D01*
X0017990Y0010380D01*
X0017835Y0010344D01*
X0017680Y0010313D01*
X0017524Y0010285D01*
X0017368Y0010261D01*
X0017211Y0010241D01*
X0017053Y0010225D01*
X0016896Y0010213D01*
X0016737Y0010205D01*
X0016579Y0010201D01*
X0016421Y0010201D01*
X0016263Y0010205D01*
X0016104Y0010213D01*
X0015947Y0010225D01*
X0015789Y0010241D01*
X0015632Y0010261D01*
X0015476Y0010285D01*
X0015320Y0010313D01*
X0015165Y0010344D01*
X0015010Y0010380D01*
X0014857Y0010419D01*
X0014705Y0010462D01*
X0014554Y0010509D01*
X0014404Y0010560D01*
X0014255Y0010615D01*
X0014108Y0010673D01*
X0013962Y0010735D01*
X0013818Y0010800D01*
X0013676Y0010870D01*
X0013535Y0010942D01*
X0013396Y0011019D01*
X0013260Y0011098D01*
X0013125Y0011182D01*
X0012992Y0011268D01*
X0012862Y0011358D01*
X0012734Y0011451D01*
X0012608Y0011547D01*
X0012485Y0011647D01*
X0012364Y0011749D01*
X0012246Y0011854D01*
X0012131Y0011963D01*
X0012018Y0012074D01*
X0011908Y0012188D01*
X0011801Y0012305D01*
X0011697Y0012424D01*
X0011596Y0012546D01*
X0011499Y0012671D01*
X0011404Y0012798D01*
X0011313Y0012927D01*
X0011224Y0013058D01*
X0011140Y0013192D01*
X0011058Y0013328D01*
X0010980Y0013465D01*
X0010906Y0013605D01*
X0010835Y0013747D01*
X0010767Y0013890D01*
X0010703Y0014035D01*
X0010643Y0014181D01*
X0010587Y0014329D01*
X0010534Y0014478D01*
X0010485Y0014629D01*
X0010440Y0014781D01*
X0010399Y0014934D01*
X0010361Y0015087D01*
X0010328Y0015242D01*
X0010298Y0015398D01*
X0010272Y0015554D01*
X0010251Y0015711D01*
X0010233Y0015868D01*
X0010219Y0016026D01*
X0010209Y0016184D01*
X0010203Y0016342D01*
X0010201Y0016500D01*
X0155201Y0016500D02*
X0155203Y0016658D01*
X0155209Y0016816D01*
X0155219Y0016974D01*
X0155233Y0017132D01*
X0155251Y0017289D01*
X0155272Y0017446D01*
X0155298Y0017602D01*
X0155328Y0017758D01*
X0155361Y0017913D01*
X0155399Y0018066D01*
X0155440Y0018219D01*
X0155485Y0018371D01*
X0155534Y0018522D01*
X0155587Y0018671D01*
X0155643Y0018819D01*
X0155703Y0018965D01*
X0155767Y0019110D01*
X0155835Y0019253D01*
X0155906Y0019395D01*
X0155980Y0019535D01*
X0156058Y0019672D01*
X0156140Y0019808D01*
X0156224Y0019942D01*
X0156313Y0020073D01*
X0156404Y0020202D01*
X0156499Y0020329D01*
X0156596Y0020454D01*
X0156697Y0020576D01*
X0156801Y0020695D01*
X0156908Y0020812D01*
X0157018Y0020926D01*
X0157131Y0021037D01*
X0157246Y0021146D01*
X0157364Y0021251D01*
X0157485Y0021353D01*
X0157608Y0021453D01*
X0157734Y0021549D01*
X0157862Y0021642D01*
X0157992Y0021732D01*
X0158125Y0021818D01*
X0158260Y0021902D01*
X0158396Y0021981D01*
X0158535Y0022058D01*
X0158676Y0022130D01*
X0158818Y0022200D01*
X0158962Y0022265D01*
X0159108Y0022327D01*
X0159255Y0022385D01*
X0159404Y0022440D01*
X0159554Y0022491D01*
X0159705Y0022538D01*
X0159857Y0022581D01*
X0160010Y0022620D01*
X0160165Y0022656D01*
X0160320Y0022687D01*
X0160476Y0022715D01*
X0160632Y0022739D01*
X0160789Y0022759D01*
X0160947Y0022775D01*
X0161104Y0022787D01*
X0161263Y0022795D01*
X0161421Y0022799D01*
X0161579Y0022799D01*
X0161737Y0022795D01*
X0161896Y0022787D01*
X0162053Y0022775D01*
X0162211Y0022759D01*
X0162368Y0022739D01*
X0162524Y0022715D01*
X0162680Y0022687D01*
X0162835Y0022656D01*
X0162990Y0022620D01*
X0163143Y0022581D01*
X0163295Y0022538D01*
X0163446Y0022491D01*
X0163596Y0022440D01*
X0163745Y0022385D01*
X0163892Y0022327D01*
X0164038Y0022265D01*
X0164182Y0022200D01*
X0164324Y0022130D01*
X0164465Y0022058D01*
X0164604Y0021981D01*
X0164740Y0021902D01*
X0164875Y0021818D01*
X0165008Y0021732D01*
X0165138Y0021642D01*
X0165266Y0021549D01*
X0165392Y0021453D01*
X0165515Y0021353D01*
X0165636Y0021251D01*
X0165754Y0021146D01*
X0165869Y0021037D01*
X0165982Y0020926D01*
X0166092Y0020812D01*
X0166199Y0020695D01*
X0166303Y0020576D01*
X0166404Y0020454D01*
X0166501Y0020329D01*
X0166596Y0020202D01*
X0166687Y0020073D01*
X0166776Y0019942D01*
X0166860Y0019808D01*
X0166942Y0019672D01*
X0167020Y0019535D01*
X0167094Y0019395D01*
X0167165Y0019253D01*
X0167233Y0019110D01*
X0167297Y0018965D01*
X0167357Y0018819D01*
X0167413Y0018671D01*
X0167466Y0018522D01*
X0167515Y0018371D01*
X0167560Y0018219D01*
X0167601Y0018066D01*
X0167639Y0017913D01*
X0167672Y0017758D01*
X0167702Y0017602D01*
X0167728Y0017446D01*
X0167749Y0017289D01*
X0167767Y0017132D01*
X0167781Y0016974D01*
X0167791Y0016816D01*
X0167797Y0016658D01*
X0167799Y0016500D01*
X0167797Y0016342D01*
X0167791Y0016184D01*
X0167781Y0016026D01*
X0167767Y0015868D01*
X0167749Y0015711D01*
X0167728Y0015554D01*
X0167702Y0015398D01*
X0167672Y0015242D01*
X0167639Y0015087D01*
X0167601Y0014934D01*
X0167560Y0014781D01*
X0167515Y0014629D01*
X0167466Y0014478D01*
X0167413Y0014329D01*
X0167357Y0014181D01*
X0167297Y0014035D01*
X0167233Y0013890D01*
X0167165Y0013747D01*
X0167094Y0013605D01*
X0167020Y0013465D01*
X0166942Y0013328D01*
X0166860Y0013192D01*
X0166776Y0013058D01*
X0166687Y0012927D01*
X0166596Y0012798D01*
X0166501Y0012671D01*
X0166404Y0012546D01*
X0166303Y0012424D01*
X0166199Y0012305D01*
X0166092Y0012188D01*
X0165982Y0012074D01*
X0165869Y0011963D01*
X0165754Y0011854D01*
X0165636Y0011749D01*
X0165515Y0011647D01*
X0165392Y0011547D01*
X0165266Y0011451D01*
X0165138Y0011358D01*
X0165008Y0011268D01*
X0164875Y0011182D01*
X0164740Y0011098D01*
X0164604Y0011019D01*
X0164465Y0010942D01*
X0164324Y0010870D01*
X0164182Y0010800D01*
X0164038Y0010735D01*
X0163892Y0010673D01*
X0163745Y0010615D01*
X0163596Y0010560D01*
X0163446Y0010509D01*
X0163295Y0010462D01*
X0163143Y0010419D01*
X0162990Y0010380D01*
X0162835Y0010344D01*
X0162680Y0010313D01*
X0162524Y0010285D01*
X0162368Y0010261D01*
X0162211Y0010241D01*
X0162053Y0010225D01*
X0161896Y0010213D01*
X0161737Y0010205D01*
X0161579Y0010201D01*
X0161421Y0010201D01*
X0161263Y0010205D01*
X0161104Y0010213D01*
X0160947Y0010225D01*
X0160789Y0010241D01*
X0160632Y0010261D01*
X0160476Y0010285D01*
X0160320Y0010313D01*
X0160165Y0010344D01*
X0160010Y0010380D01*
X0159857Y0010419D01*
X0159705Y0010462D01*
X0159554Y0010509D01*
X0159404Y0010560D01*
X0159255Y0010615D01*
X0159108Y0010673D01*
X0158962Y0010735D01*
X0158818Y0010800D01*
X0158676Y0010870D01*
X0158535Y0010942D01*
X0158396Y0011019D01*
X0158260Y0011098D01*
X0158125Y0011182D01*
X0157992Y0011268D01*
X0157862Y0011358D01*
X0157734Y0011451D01*
X0157608Y0011547D01*
X0157485Y0011647D01*
X0157364Y0011749D01*
X0157246Y0011854D01*
X0157131Y0011963D01*
X0157018Y0012074D01*
X0156908Y0012188D01*
X0156801Y0012305D01*
X0156697Y0012424D01*
X0156596Y0012546D01*
X0156499Y0012671D01*
X0156404Y0012798D01*
X0156313Y0012927D01*
X0156224Y0013058D01*
X0156140Y0013192D01*
X0156058Y0013328D01*
X0155980Y0013465D01*
X0155906Y0013605D01*
X0155835Y0013747D01*
X0155767Y0013890D01*
X0155703Y0014035D01*
X0155643Y0014181D01*
X0155587Y0014329D01*
X0155534Y0014478D01*
X0155485Y0014629D01*
X0155440Y0014781D01*
X0155399Y0014934D01*
X0155361Y0015087D01*
X0155328Y0015242D01*
X0155298Y0015398D01*
X0155272Y0015554D01*
X0155251Y0015711D01*
X0155233Y0015868D01*
X0155219Y0016026D01*
X0155209Y0016184D01*
X0155203Y0016342D01*
X0155201Y0016500D01*
X0255201Y0018500D02*
X0255203Y0018658D01*
X0255209Y0018816D01*
X0255219Y0018974D01*
X0255233Y0019132D01*
X0255251Y0019289D01*
X0255272Y0019446D01*
X0255298Y0019602D01*
X0255328Y0019758D01*
X0255361Y0019913D01*
X0255399Y0020066D01*
X0255440Y0020219D01*
X0255485Y0020371D01*
X0255534Y0020522D01*
X0255587Y0020671D01*
X0255643Y0020819D01*
X0255703Y0020965D01*
X0255767Y0021110D01*
X0255835Y0021253D01*
X0255906Y0021395D01*
X0255980Y0021535D01*
X0256058Y0021672D01*
X0256140Y0021808D01*
X0256224Y0021942D01*
X0256313Y0022073D01*
X0256404Y0022202D01*
X0256499Y0022329D01*
X0256596Y0022454D01*
X0256697Y0022576D01*
X0256801Y0022695D01*
X0256908Y0022812D01*
X0257018Y0022926D01*
X0257131Y0023037D01*
X0257246Y0023146D01*
X0257364Y0023251D01*
X0257485Y0023353D01*
X0257608Y0023453D01*
X0257734Y0023549D01*
X0257862Y0023642D01*
X0257992Y0023732D01*
X0258125Y0023818D01*
X0258260Y0023902D01*
X0258396Y0023981D01*
X0258535Y0024058D01*
X0258676Y0024130D01*
X0258818Y0024200D01*
X0258962Y0024265D01*
X0259108Y0024327D01*
X0259255Y0024385D01*
X0259404Y0024440D01*
X0259554Y0024491D01*
X0259705Y0024538D01*
X0259857Y0024581D01*
X0260010Y0024620D01*
X0260165Y0024656D01*
X0260320Y0024687D01*
X0260476Y0024715D01*
X0260632Y0024739D01*
X0260789Y0024759D01*
X0260947Y0024775D01*
X0261104Y0024787D01*
X0261263Y0024795D01*
X0261421Y0024799D01*
X0261579Y0024799D01*
X0261737Y0024795D01*
X0261896Y0024787D01*
X0262053Y0024775D01*
X0262211Y0024759D01*
X0262368Y0024739D01*
X0262524Y0024715D01*
X0262680Y0024687D01*
X0262835Y0024656D01*
X0262990Y0024620D01*
X0263143Y0024581D01*
X0263295Y0024538D01*
X0263446Y0024491D01*
X0263596Y0024440D01*
X0263745Y0024385D01*
X0263892Y0024327D01*
X0264038Y0024265D01*
X0264182Y0024200D01*
X0264324Y0024130D01*
X0264465Y0024058D01*
X0264604Y0023981D01*
X0264740Y0023902D01*
X0264875Y0023818D01*
X0265008Y0023732D01*
X0265138Y0023642D01*
X0265266Y0023549D01*
X0265392Y0023453D01*
X0265515Y0023353D01*
X0265636Y0023251D01*
X0265754Y0023146D01*
X0265869Y0023037D01*
X0265982Y0022926D01*
X0266092Y0022812D01*
X0266199Y0022695D01*
X0266303Y0022576D01*
X0266404Y0022454D01*
X0266501Y0022329D01*
X0266596Y0022202D01*
X0266687Y0022073D01*
X0266776Y0021942D01*
X0266860Y0021808D01*
X0266942Y0021672D01*
X0267020Y0021535D01*
X0267094Y0021395D01*
X0267165Y0021253D01*
X0267233Y0021110D01*
X0267297Y0020965D01*
X0267357Y0020819D01*
X0267413Y0020671D01*
X0267466Y0020522D01*
X0267515Y0020371D01*
X0267560Y0020219D01*
X0267601Y0020066D01*
X0267639Y0019913D01*
X0267672Y0019758D01*
X0267702Y0019602D01*
X0267728Y0019446D01*
X0267749Y0019289D01*
X0267767Y0019132D01*
X0267781Y0018974D01*
X0267791Y0018816D01*
X0267797Y0018658D01*
X0267799Y0018500D01*
X0267797Y0018342D01*
X0267791Y0018184D01*
X0267781Y0018026D01*
X0267767Y0017868D01*
X0267749Y0017711D01*
X0267728Y0017554D01*
X0267702Y0017398D01*
X0267672Y0017242D01*
X0267639Y0017087D01*
X0267601Y0016934D01*
X0267560Y0016781D01*
X0267515Y0016629D01*
X0267466Y0016478D01*
X0267413Y0016329D01*
X0267357Y0016181D01*
X0267297Y0016035D01*
X0267233Y0015890D01*
X0267165Y0015747D01*
X0267094Y0015605D01*
X0267020Y0015465D01*
X0266942Y0015328D01*
X0266860Y0015192D01*
X0266776Y0015058D01*
X0266687Y0014927D01*
X0266596Y0014798D01*
X0266501Y0014671D01*
X0266404Y0014546D01*
X0266303Y0014424D01*
X0266199Y0014305D01*
X0266092Y0014188D01*
X0265982Y0014074D01*
X0265869Y0013963D01*
X0265754Y0013854D01*
X0265636Y0013749D01*
X0265515Y0013647D01*
X0265392Y0013547D01*
X0265266Y0013451D01*
X0265138Y0013358D01*
X0265008Y0013268D01*
X0264875Y0013182D01*
X0264740Y0013098D01*
X0264604Y0013019D01*
X0264465Y0012942D01*
X0264324Y0012870D01*
X0264182Y0012800D01*
X0264038Y0012735D01*
X0263892Y0012673D01*
X0263745Y0012615D01*
X0263596Y0012560D01*
X0263446Y0012509D01*
X0263295Y0012462D01*
X0263143Y0012419D01*
X0262990Y0012380D01*
X0262835Y0012344D01*
X0262680Y0012313D01*
X0262524Y0012285D01*
X0262368Y0012261D01*
X0262211Y0012241D01*
X0262053Y0012225D01*
X0261896Y0012213D01*
X0261737Y0012205D01*
X0261579Y0012201D01*
X0261421Y0012201D01*
X0261263Y0012205D01*
X0261104Y0012213D01*
X0260947Y0012225D01*
X0260789Y0012241D01*
X0260632Y0012261D01*
X0260476Y0012285D01*
X0260320Y0012313D01*
X0260165Y0012344D01*
X0260010Y0012380D01*
X0259857Y0012419D01*
X0259705Y0012462D01*
X0259554Y0012509D01*
X0259404Y0012560D01*
X0259255Y0012615D01*
X0259108Y0012673D01*
X0258962Y0012735D01*
X0258818Y0012800D01*
X0258676Y0012870D01*
X0258535Y0012942D01*
X0258396Y0013019D01*
X0258260Y0013098D01*
X0258125Y0013182D01*
X0257992Y0013268D01*
X0257862Y0013358D01*
X0257734Y0013451D01*
X0257608Y0013547D01*
X0257485Y0013647D01*
X0257364Y0013749D01*
X0257246Y0013854D01*
X0257131Y0013963D01*
X0257018Y0014074D01*
X0256908Y0014188D01*
X0256801Y0014305D01*
X0256697Y0014424D01*
X0256596Y0014546D01*
X0256499Y0014671D01*
X0256404Y0014798D01*
X0256313Y0014927D01*
X0256224Y0015058D01*
X0256140Y0015192D01*
X0256058Y0015328D01*
X0255980Y0015465D01*
X0255906Y0015605D01*
X0255835Y0015747D01*
X0255767Y0015890D01*
X0255703Y0016035D01*
X0255643Y0016181D01*
X0255587Y0016329D01*
X0255534Y0016478D01*
X0255485Y0016629D01*
X0255440Y0016781D01*
X0255399Y0016934D01*
X0255361Y0017087D01*
X0255328Y0017242D01*
X0255298Y0017398D01*
X0255272Y0017554D01*
X0255251Y0017711D01*
X0255233Y0017868D01*
X0255219Y0018026D01*
X0255209Y0018184D01*
X0255203Y0018342D01*
X0255201Y0018500D01*
X0155201Y0281000D02*
X0155203Y0281158D01*
X0155209Y0281316D01*
X0155219Y0281474D01*
X0155233Y0281632D01*
X0155251Y0281789D01*
X0155272Y0281946D01*
X0155298Y0282102D01*
X0155328Y0282258D01*
X0155361Y0282413D01*
X0155399Y0282566D01*
X0155440Y0282719D01*
X0155485Y0282871D01*
X0155534Y0283022D01*
X0155587Y0283171D01*
X0155643Y0283319D01*
X0155703Y0283465D01*
X0155767Y0283610D01*
X0155835Y0283753D01*
X0155906Y0283895D01*
X0155980Y0284035D01*
X0156058Y0284172D01*
X0156140Y0284308D01*
X0156224Y0284442D01*
X0156313Y0284573D01*
X0156404Y0284702D01*
X0156499Y0284829D01*
X0156596Y0284954D01*
X0156697Y0285076D01*
X0156801Y0285195D01*
X0156908Y0285312D01*
X0157018Y0285426D01*
X0157131Y0285537D01*
X0157246Y0285646D01*
X0157364Y0285751D01*
X0157485Y0285853D01*
X0157608Y0285953D01*
X0157734Y0286049D01*
X0157862Y0286142D01*
X0157992Y0286232D01*
X0158125Y0286318D01*
X0158260Y0286402D01*
X0158396Y0286481D01*
X0158535Y0286558D01*
X0158676Y0286630D01*
X0158818Y0286700D01*
X0158962Y0286765D01*
X0159108Y0286827D01*
X0159255Y0286885D01*
X0159404Y0286940D01*
X0159554Y0286991D01*
X0159705Y0287038D01*
X0159857Y0287081D01*
X0160010Y0287120D01*
X0160165Y0287156D01*
X0160320Y0287187D01*
X0160476Y0287215D01*
X0160632Y0287239D01*
X0160789Y0287259D01*
X0160947Y0287275D01*
X0161104Y0287287D01*
X0161263Y0287295D01*
X0161421Y0287299D01*
X0161579Y0287299D01*
X0161737Y0287295D01*
X0161896Y0287287D01*
X0162053Y0287275D01*
X0162211Y0287259D01*
X0162368Y0287239D01*
X0162524Y0287215D01*
X0162680Y0287187D01*
X0162835Y0287156D01*
X0162990Y0287120D01*
X0163143Y0287081D01*
X0163295Y0287038D01*
X0163446Y0286991D01*
X0163596Y0286940D01*
X0163745Y0286885D01*
X0163892Y0286827D01*
X0164038Y0286765D01*
X0164182Y0286700D01*
X0164324Y0286630D01*
X0164465Y0286558D01*
X0164604Y0286481D01*
X0164740Y0286402D01*
X0164875Y0286318D01*
X0165008Y0286232D01*
X0165138Y0286142D01*
X0165266Y0286049D01*
X0165392Y0285953D01*
X0165515Y0285853D01*
X0165636Y0285751D01*
X0165754Y0285646D01*
X0165869Y0285537D01*
X0165982Y0285426D01*
X0166092Y0285312D01*
X0166199Y0285195D01*
X0166303Y0285076D01*
X0166404Y0284954D01*
X0166501Y0284829D01*
X0166596Y0284702D01*
X0166687Y0284573D01*
X0166776Y0284442D01*
X0166860Y0284308D01*
X0166942Y0284172D01*
X0167020Y0284035D01*
X0167094Y0283895D01*
X0167165Y0283753D01*
X0167233Y0283610D01*
X0167297Y0283465D01*
X0167357Y0283319D01*
X0167413Y0283171D01*
X0167466Y0283022D01*
X0167515Y0282871D01*
X0167560Y0282719D01*
X0167601Y0282566D01*
X0167639Y0282413D01*
X0167672Y0282258D01*
X0167702Y0282102D01*
X0167728Y0281946D01*
X0167749Y0281789D01*
X0167767Y0281632D01*
X0167781Y0281474D01*
X0167791Y0281316D01*
X0167797Y0281158D01*
X0167799Y0281000D01*
X0167797Y0280842D01*
X0167791Y0280684D01*
X0167781Y0280526D01*
X0167767Y0280368D01*
X0167749Y0280211D01*
X0167728Y0280054D01*
X0167702Y0279898D01*
X0167672Y0279742D01*
X0167639Y0279587D01*
X0167601Y0279434D01*
X0167560Y0279281D01*
X0167515Y0279129D01*
X0167466Y0278978D01*
X0167413Y0278829D01*
X0167357Y0278681D01*
X0167297Y0278535D01*
X0167233Y0278390D01*
X0167165Y0278247D01*
X0167094Y0278105D01*
X0167020Y0277965D01*
X0166942Y0277828D01*
X0166860Y0277692D01*
X0166776Y0277558D01*
X0166687Y0277427D01*
X0166596Y0277298D01*
X0166501Y0277171D01*
X0166404Y0277046D01*
X0166303Y0276924D01*
X0166199Y0276805D01*
X0166092Y0276688D01*
X0165982Y0276574D01*
X0165869Y0276463D01*
X0165754Y0276354D01*
X0165636Y0276249D01*
X0165515Y0276147D01*
X0165392Y0276047D01*
X0165266Y0275951D01*
X0165138Y0275858D01*
X0165008Y0275768D01*
X0164875Y0275682D01*
X0164740Y0275598D01*
X0164604Y0275519D01*
X0164465Y0275442D01*
X0164324Y0275370D01*
X0164182Y0275300D01*
X0164038Y0275235D01*
X0163892Y0275173D01*
X0163745Y0275115D01*
X0163596Y0275060D01*
X0163446Y0275009D01*
X0163295Y0274962D01*
X0163143Y0274919D01*
X0162990Y0274880D01*
X0162835Y0274844D01*
X0162680Y0274813D01*
X0162524Y0274785D01*
X0162368Y0274761D01*
X0162211Y0274741D01*
X0162053Y0274725D01*
X0161896Y0274713D01*
X0161737Y0274705D01*
X0161579Y0274701D01*
X0161421Y0274701D01*
X0161263Y0274705D01*
X0161104Y0274713D01*
X0160947Y0274725D01*
X0160789Y0274741D01*
X0160632Y0274761D01*
X0160476Y0274785D01*
X0160320Y0274813D01*
X0160165Y0274844D01*
X0160010Y0274880D01*
X0159857Y0274919D01*
X0159705Y0274962D01*
X0159554Y0275009D01*
X0159404Y0275060D01*
X0159255Y0275115D01*
X0159108Y0275173D01*
X0158962Y0275235D01*
X0158818Y0275300D01*
X0158676Y0275370D01*
X0158535Y0275442D01*
X0158396Y0275519D01*
X0158260Y0275598D01*
X0158125Y0275682D01*
X0157992Y0275768D01*
X0157862Y0275858D01*
X0157734Y0275951D01*
X0157608Y0276047D01*
X0157485Y0276147D01*
X0157364Y0276249D01*
X0157246Y0276354D01*
X0157131Y0276463D01*
X0157018Y0276574D01*
X0156908Y0276688D01*
X0156801Y0276805D01*
X0156697Y0276924D01*
X0156596Y0277046D01*
X0156499Y0277171D01*
X0156404Y0277298D01*
X0156313Y0277427D01*
X0156224Y0277558D01*
X0156140Y0277692D01*
X0156058Y0277828D01*
X0155980Y0277965D01*
X0155906Y0278105D01*
X0155835Y0278247D01*
X0155767Y0278390D01*
X0155703Y0278535D01*
X0155643Y0278681D01*
X0155587Y0278829D01*
X0155534Y0278978D01*
X0155485Y0279129D01*
X0155440Y0279281D01*
X0155399Y0279434D01*
X0155361Y0279587D01*
X0155328Y0279742D01*
X0155298Y0279898D01*
X0155272Y0280054D01*
X0155251Y0280211D01*
X0155233Y0280368D01*
X0155219Y0280526D01*
X0155209Y0280684D01*
X0155203Y0280842D01*
X0155201Y0281000D01*
X0007701Y0280500D02*
X0007703Y0280658D01*
X0007709Y0280816D01*
X0007719Y0280974D01*
X0007733Y0281132D01*
X0007751Y0281289D01*
X0007772Y0281446D01*
X0007798Y0281602D01*
X0007828Y0281758D01*
X0007861Y0281913D01*
X0007899Y0282066D01*
X0007940Y0282219D01*
X0007985Y0282371D01*
X0008034Y0282522D01*
X0008087Y0282671D01*
X0008143Y0282819D01*
X0008203Y0282965D01*
X0008267Y0283110D01*
X0008335Y0283253D01*
X0008406Y0283395D01*
X0008480Y0283535D01*
X0008558Y0283672D01*
X0008640Y0283808D01*
X0008724Y0283942D01*
X0008813Y0284073D01*
X0008904Y0284202D01*
X0008999Y0284329D01*
X0009096Y0284454D01*
X0009197Y0284576D01*
X0009301Y0284695D01*
X0009408Y0284812D01*
X0009518Y0284926D01*
X0009631Y0285037D01*
X0009746Y0285146D01*
X0009864Y0285251D01*
X0009985Y0285353D01*
X0010108Y0285453D01*
X0010234Y0285549D01*
X0010362Y0285642D01*
X0010492Y0285732D01*
X0010625Y0285818D01*
X0010760Y0285902D01*
X0010896Y0285981D01*
X0011035Y0286058D01*
X0011176Y0286130D01*
X0011318Y0286200D01*
X0011462Y0286265D01*
X0011608Y0286327D01*
X0011755Y0286385D01*
X0011904Y0286440D01*
X0012054Y0286491D01*
X0012205Y0286538D01*
X0012357Y0286581D01*
X0012510Y0286620D01*
X0012665Y0286656D01*
X0012820Y0286687D01*
X0012976Y0286715D01*
X0013132Y0286739D01*
X0013289Y0286759D01*
X0013447Y0286775D01*
X0013604Y0286787D01*
X0013763Y0286795D01*
X0013921Y0286799D01*
X0014079Y0286799D01*
X0014237Y0286795D01*
X0014396Y0286787D01*
X0014553Y0286775D01*
X0014711Y0286759D01*
X0014868Y0286739D01*
X0015024Y0286715D01*
X0015180Y0286687D01*
X0015335Y0286656D01*
X0015490Y0286620D01*
X0015643Y0286581D01*
X0015795Y0286538D01*
X0015946Y0286491D01*
X0016096Y0286440D01*
X0016245Y0286385D01*
X0016392Y0286327D01*
X0016538Y0286265D01*
X0016682Y0286200D01*
X0016824Y0286130D01*
X0016965Y0286058D01*
X0017104Y0285981D01*
X0017240Y0285902D01*
X0017375Y0285818D01*
X0017508Y0285732D01*
X0017638Y0285642D01*
X0017766Y0285549D01*
X0017892Y0285453D01*
X0018015Y0285353D01*
X0018136Y0285251D01*
X0018254Y0285146D01*
X0018369Y0285037D01*
X0018482Y0284926D01*
X0018592Y0284812D01*
X0018699Y0284695D01*
X0018803Y0284576D01*
X0018904Y0284454D01*
X0019001Y0284329D01*
X0019096Y0284202D01*
X0019187Y0284073D01*
X0019276Y0283942D01*
X0019360Y0283808D01*
X0019442Y0283672D01*
X0019520Y0283535D01*
X0019594Y0283395D01*
X0019665Y0283253D01*
X0019733Y0283110D01*
X0019797Y0282965D01*
X0019857Y0282819D01*
X0019913Y0282671D01*
X0019966Y0282522D01*
X0020015Y0282371D01*
X0020060Y0282219D01*
X0020101Y0282066D01*
X0020139Y0281913D01*
X0020172Y0281758D01*
X0020202Y0281602D01*
X0020228Y0281446D01*
X0020249Y0281289D01*
X0020267Y0281132D01*
X0020281Y0280974D01*
X0020291Y0280816D01*
X0020297Y0280658D01*
X0020299Y0280500D01*
X0020297Y0280342D01*
X0020291Y0280184D01*
X0020281Y0280026D01*
X0020267Y0279868D01*
X0020249Y0279711D01*
X0020228Y0279554D01*
X0020202Y0279398D01*
X0020172Y0279242D01*
X0020139Y0279087D01*
X0020101Y0278934D01*
X0020060Y0278781D01*
X0020015Y0278629D01*
X0019966Y0278478D01*
X0019913Y0278329D01*
X0019857Y0278181D01*
X0019797Y0278035D01*
X0019733Y0277890D01*
X0019665Y0277747D01*
X0019594Y0277605D01*
X0019520Y0277465D01*
X0019442Y0277328D01*
X0019360Y0277192D01*
X0019276Y0277058D01*
X0019187Y0276927D01*
X0019096Y0276798D01*
X0019001Y0276671D01*
X0018904Y0276546D01*
X0018803Y0276424D01*
X0018699Y0276305D01*
X0018592Y0276188D01*
X0018482Y0276074D01*
X0018369Y0275963D01*
X0018254Y0275854D01*
X0018136Y0275749D01*
X0018015Y0275647D01*
X0017892Y0275547D01*
X0017766Y0275451D01*
X0017638Y0275358D01*
X0017508Y0275268D01*
X0017375Y0275182D01*
X0017240Y0275098D01*
X0017104Y0275019D01*
X0016965Y0274942D01*
X0016824Y0274870D01*
X0016682Y0274800D01*
X0016538Y0274735D01*
X0016392Y0274673D01*
X0016245Y0274615D01*
X0016096Y0274560D01*
X0015946Y0274509D01*
X0015795Y0274462D01*
X0015643Y0274419D01*
X0015490Y0274380D01*
X0015335Y0274344D01*
X0015180Y0274313D01*
X0015024Y0274285D01*
X0014868Y0274261D01*
X0014711Y0274241D01*
X0014553Y0274225D01*
X0014396Y0274213D01*
X0014237Y0274205D01*
X0014079Y0274201D01*
X0013921Y0274201D01*
X0013763Y0274205D01*
X0013604Y0274213D01*
X0013447Y0274225D01*
X0013289Y0274241D01*
X0013132Y0274261D01*
X0012976Y0274285D01*
X0012820Y0274313D01*
X0012665Y0274344D01*
X0012510Y0274380D01*
X0012357Y0274419D01*
X0012205Y0274462D01*
X0012054Y0274509D01*
X0011904Y0274560D01*
X0011755Y0274615D01*
X0011608Y0274673D01*
X0011462Y0274735D01*
X0011318Y0274800D01*
X0011176Y0274870D01*
X0011035Y0274942D01*
X0010896Y0275019D01*
X0010760Y0275098D01*
X0010625Y0275182D01*
X0010492Y0275268D01*
X0010362Y0275358D01*
X0010234Y0275451D01*
X0010108Y0275547D01*
X0009985Y0275647D01*
X0009864Y0275749D01*
X0009746Y0275854D01*
X0009631Y0275963D01*
X0009518Y0276074D01*
X0009408Y0276188D01*
X0009301Y0276305D01*
X0009197Y0276424D01*
X0009096Y0276546D01*
X0008999Y0276671D01*
X0008904Y0276798D01*
X0008813Y0276927D01*
X0008724Y0277058D01*
X0008640Y0277192D01*
X0008558Y0277328D01*
X0008480Y0277465D01*
X0008406Y0277605D01*
X0008335Y0277747D01*
X0008267Y0277890D01*
X0008203Y0278035D01*
X0008143Y0278181D01*
X0008087Y0278329D01*
X0008034Y0278478D01*
X0007985Y0278629D01*
X0007940Y0278781D01*
X0007899Y0278934D01*
X0007861Y0279087D01*
X0007828Y0279242D01*
X0007798Y0279398D01*
X0007772Y0279554D01*
X0007751Y0279711D01*
X0007733Y0279868D01*
X0007719Y0280026D01*
X0007709Y0280184D01*
X0007703Y0280342D01*
X0007701Y0280500D01*
D11*
X0059647Y0280950D02*
X0060264Y0280333D01*
X0060881Y0280333D01*
X0061498Y0280950D01*
X0061498Y0282185D01*
X0062116Y0282802D01*
X0062733Y0282802D01*
X0063350Y0282185D01*
X0063350Y0280950D01*
X0062733Y0280333D01*
X0062733Y0279119D02*
X0063350Y0278502D01*
X0063350Y0277267D01*
X0062733Y0276650D01*
X0060264Y0276650D01*
X0059647Y0277267D01*
X0059647Y0278502D01*
X0060264Y0279119D01*
X0059647Y0280950D02*
X0059647Y0282185D01*
X0060264Y0282802D01*
X0069647Y0284016D02*
X0069647Y0286485D01*
X0069647Y0285251D02*
X0073350Y0285251D01*
X0073350Y0287699D02*
X0070881Y0287699D01*
X0069647Y0288934D01*
X0070881Y0290168D01*
X0073350Y0290168D01*
X0071498Y0290168D02*
X0071498Y0287699D01*
X0071498Y0282802D02*
X0071498Y0280333D01*
X0070881Y0280333D02*
X0073350Y0280333D01*
X0072733Y0279119D02*
X0070264Y0279119D01*
X0069647Y0278502D01*
X0069647Y0276650D01*
X0073350Y0276650D01*
X0073350Y0278502D01*
X0072733Y0279119D01*
X0070881Y0280333D02*
X0069647Y0281568D01*
X0070881Y0282802D01*
X0073350Y0282802D01*
X0079647Y0284016D02*
X0083350Y0284016D01*
X0083350Y0282802D02*
X0083350Y0280333D01*
X0079647Y0280333D01*
X0080264Y0279119D02*
X0079647Y0278502D01*
X0079647Y0277267D01*
X0080264Y0276650D01*
X0080881Y0276650D01*
X0081498Y0277267D01*
X0081498Y0278502D01*
X0082116Y0279119D01*
X0082733Y0279119D01*
X0083350Y0278502D01*
X0083350Y0277267D01*
X0082733Y0276650D01*
X0082116Y0284016D02*
X0079647Y0286485D01*
X0081498Y0284633D02*
X0083350Y0286485D01*
X0084569Y0215853D02*
X0082101Y0215853D01*
X0082101Y0212150D01*
X0084569Y0212150D01*
X0085784Y0212150D02*
X0085784Y0215853D01*
X0087635Y0215853D01*
X0088252Y0215236D01*
X0088252Y0212767D01*
X0087635Y0212150D01*
X0085784Y0212150D01*
X0083335Y0214002D02*
X0082101Y0214002D01*
X0080886Y0212150D02*
X0078417Y0212150D01*
X0078417Y0215853D01*
X0089467Y0214619D02*
X0090701Y0215853D01*
X0090701Y0212150D01*
X0089467Y0212150D02*
X0091936Y0212150D01*
X0112917Y0208853D02*
X0112917Y0205150D01*
X0115386Y0205150D01*
X0116601Y0205150D02*
X0119069Y0205150D01*
X0120284Y0205150D02*
X0120284Y0208853D01*
X0122135Y0208853D01*
X0122752Y0208236D01*
X0122752Y0205767D01*
X0122135Y0205150D01*
X0120284Y0205150D01*
X0117835Y0207002D02*
X0116601Y0207002D01*
X0116601Y0208853D02*
X0116601Y0205150D01*
X0116601Y0208853D02*
X0119069Y0208853D01*
X0123967Y0208853D02*
X0123967Y0207002D01*
X0125201Y0207619D01*
X0125818Y0207619D01*
X0126436Y0207002D01*
X0126436Y0205767D01*
X0125818Y0205150D01*
X0124584Y0205150D01*
X0123967Y0205767D01*
X0123967Y0208853D02*
X0126436Y0208853D01*
X0153417Y0165853D02*
X0153417Y0162150D01*
X0155886Y0162150D01*
X0157101Y0162150D02*
X0157101Y0165853D01*
X0159569Y0165853D01*
X0160784Y0165853D02*
X0162635Y0165853D01*
X0163252Y0165236D01*
X0163252Y0162767D01*
X0162635Y0162150D01*
X0160784Y0162150D01*
X0160784Y0165853D01*
X0158335Y0164002D02*
X0157101Y0164002D01*
X0157101Y0162150D02*
X0159569Y0162150D01*
X0164467Y0162767D02*
X0164467Y0165236D01*
X0165084Y0165853D01*
X0166318Y0165853D01*
X0166936Y0165236D01*
X0164467Y0162767D01*
X0165084Y0162150D01*
X0166318Y0162150D01*
X0166936Y0162767D01*
X0166936Y0165236D01*
X0162498Y0142436D02*
X0162498Y0139967D01*
X0160647Y0141818D01*
X0164350Y0141818D01*
X0163733Y0138752D02*
X0161264Y0138752D01*
X0160647Y0138135D01*
X0160647Y0136284D01*
X0164350Y0136284D01*
X0164350Y0138135D01*
X0163733Y0138752D01*
X0164350Y0135069D02*
X0164350Y0132601D01*
X0160647Y0132601D01*
X0160647Y0135069D01*
X0162498Y0133835D02*
X0162498Y0132601D01*
X0164350Y0131386D02*
X0164350Y0128917D01*
X0160647Y0128917D01*
X0161601Y0109853D02*
X0161601Y0106150D01*
X0164069Y0106150D01*
X0165284Y0106150D02*
X0167135Y0106150D01*
X0167752Y0106767D01*
X0167752Y0109236D01*
X0167135Y0109853D01*
X0165284Y0109853D01*
X0165284Y0106150D01*
X0162835Y0108002D02*
X0161601Y0108002D01*
X0161601Y0109853D02*
X0164069Y0109853D01*
X0168967Y0109236D02*
X0168967Y0108619D01*
X0169584Y0108002D01*
X0170818Y0108002D01*
X0171436Y0107384D01*
X0171436Y0106767D01*
X0170818Y0106150D01*
X0169584Y0106150D01*
X0168967Y0106767D01*
X0168967Y0107384D01*
X0169584Y0108002D01*
X0170818Y0108002D02*
X0171436Y0108619D01*
X0171436Y0109236D01*
X0170818Y0109853D01*
X0169584Y0109853D01*
X0168967Y0109236D01*
X0160386Y0106150D02*
X0157917Y0106150D01*
X0157917Y0109853D01*
X0189650Y0108353D02*
X0189650Y0104650D01*
X0189650Y0105884D02*
X0191502Y0105884D01*
X0192119Y0106502D01*
X0192119Y0107736D01*
X0191502Y0108353D01*
X0189650Y0108353D01*
X0193333Y0107736D02*
X0193333Y0105267D01*
X0193950Y0104650D01*
X0195185Y0104650D01*
X0195802Y0105267D01*
X0195802Y0107736D01*
X0195185Y0108353D01*
X0193950Y0108353D01*
X0193333Y0107736D01*
X0197016Y0108353D02*
X0199485Y0108353D01*
X0200699Y0108353D02*
X0200699Y0104650D01*
X0203168Y0104650D01*
X0204383Y0105884D02*
X0205617Y0104650D01*
X0206851Y0105884D01*
X0206851Y0108353D01*
X0208066Y0108353D02*
X0208066Y0104650D01*
X0210534Y0104650D01*
X0211749Y0105884D02*
X0211749Y0108353D01*
X0211749Y0105884D02*
X0212983Y0104650D01*
X0214218Y0105884D01*
X0214218Y0108353D01*
X0215432Y0107119D02*
X0216666Y0108353D01*
X0217901Y0107119D01*
X0217901Y0104650D01*
X0219115Y0104650D02*
X0221584Y0104650D01*
X0222798Y0104650D02*
X0225267Y0107119D01*
X0225267Y0107736D01*
X0224650Y0108353D01*
X0223415Y0108353D01*
X0222798Y0107736D01*
X0222798Y0104650D02*
X0225267Y0104650D01*
X0233150Y0103853D02*
X0233150Y0100150D01*
X0235619Y0100150D02*
X0235619Y0103853D01*
X0234384Y0102619D01*
X0233150Y0103853D01*
X0236833Y0103236D02*
X0236833Y0100767D01*
X0237450Y0100150D01*
X0238685Y0100150D01*
X0239302Y0100767D01*
X0239302Y0103236D01*
X0238685Y0103853D01*
X0237450Y0103853D01*
X0236833Y0103236D01*
X0240516Y0103853D02*
X0240516Y0100150D01*
X0242985Y0100150D02*
X0242985Y0103853D01*
X0241751Y0102619D01*
X0240516Y0103853D01*
X0244199Y0103853D02*
X0246051Y0103853D01*
X0246668Y0103236D01*
X0246668Y0102619D01*
X0246051Y0102002D01*
X0244199Y0102002D01*
X0244199Y0103853D02*
X0244199Y0100150D01*
X0246051Y0100150D01*
X0246668Y0100767D01*
X0246668Y0101384D01*
X0246051Y0102002D01*
X0247883Y0103236D02*
X0248500Y0103853D01*
X0249734Y0103853D01*
X0250351Y0103236D01*
X0250351Y0102619D01*
X0247883Y0100150D01*
X0250351Y0100150D01*
X0250351Y0110150D02*
X0247883Y0110150D01*
X0250351Y0112619D01*
X0250351Y0113236D01*
X0249734Y0113853D01*
X0248500Y0113853D01*
X0247883Y0113236D01*
X0246668Y0112619D02*
X0246668Y0110150D01*
X0246668Y0112002D02*
X0244199Y0112002D01*
X0244199Y0112619D02*
X0245434Y0113853D01*
X0246668Y0112619D01*
X0244199Y0112619D02*
X0244199Y0110150D01*
X0242985Y0110150D02*
X0242985Y0113853D01*
X0241751Y0112619D01*
X0240516Y0113853D01*
X0240516Y0110150D01*
X0239302Y0110767D02*
X0239302Y0113236D01*
X0238685Y0113853D01*
X0237450Y0113853D01*
X0236833Y0113236D01*
X0236833Y0110767D01*
X0237450Y0110150D01*
X0238685Y0110150D01*
X0239302Y0110767D01*
X0235619Y0110150D02*
X0235619Y0113853D01*
X0234384Y0112619D01*
X0233150Y0113853D01*
X0233150Y0110150D01*
X0221584Y0115267D02*
X0221584Y0117736D01*
X0220967Y0118353D01*
X0219115Y0118353D01*
X0219115Y0114650D01*
X0220967Y0114650D01*
X0221584Y0115267D01*
X0217901Y0114650D02*
X0217901Y0118353D01*
X0215432Y0118353D02*
X0215432Y0114650D01*
X0214218Y0115267D02*
X0214218Y0116502D01*
X0212983Y0116502D01*
X0211749Y0117736D02*
X0211749Y0115267D01*
X0212366Y0114650D01*
X0213600Y0114650D01*
X0214218Y0115267D01*
X0214218Y0117736D02*
X0213600Y0118353D01*
X0212366Y0118353D01*
X0211749Y0117736D01*
X0210534Y0114650D02*
X0208066Y0114650D01*
X0208066Y0118353D01*
X0206851Y0118353D02*
X0206851Y0115884D01*
X0205617Y0114650D01*
X0204383Y0115884D01*
X0204383Y0118353D01*
X0200699Y0118353D02*
X0200699Y0114650D01*
X0203168Y0114650D01*
X0199485Y0118353D02*
X0197016Y0118353D01*
X0198251Y0118353D02*
X0198251Y0114650D01*
X0195802Y0115267D02*
X0195802Y0117736D01*
X0195185Y0118353D01*
X0193950Y0118353D01*
X0193333Y0117736D01*
X0193333Y0115267D01*
X0193950Y0114650D01*
X0195185Y0114650D01*
X0195802Y0115267D01*
X0192119Y0116502D02*
X0191502Y0115884D01*
X0189650Y0115884D01*
X0189650Y0114650D02*
X0189650Y0118353D01*
X0191502Y0118353D01*
X0192119Y0117736D01*
X0192119Y0116502D01*
X0193450Y0124650D02*
X0194685Y0124650D01*
X0195302Y0125267D01*
X0195302Y0127736D01*
X0194685Y0128353D01*
X0193450Y0128353D01*
X0192833Y0127736D01*
X0192833Y0125267D01*
X0193450Y0124650D01*
X0191619Y0126502D02*
X0191002Y0125884D01*
X0189150Y0125884D01*
X0189150Y0124650D02*
X0189150Y0128353D01*
X0191002Y0128353D01*
X0191619Y0127736D01*
X0191619Y0126502D01*
X0196516Y0128353D02*
X0198985Y0128353D01*
X0200199Y0128353D02*
X0200199Y0124650D01*
X0202668Y0124650D01*
X0203883Y0125884D02*
X0205117Y0124650D01*
X0206351Y0125884D01*
X0206351Y0128353D01*
X0207566Y0128353D02*
X0207566Y0124650D01*
X0210034Y0124650D01*
X0211249Y0125884D02*
X0211249Y0128353D01*
X0211249Y0125884D02*
X0212483Y0124650D01*
X0213718Y0125884D01*
X0213718Y0128353D01*
X0214932Y0127119D02*
X0216166Y0128353D01*
X0217401Y0127119D01*
X0217401Y0124650D01*
X0218615Y0124650D02*
X0221084Y0124650D01*
X0218615Y0124650D02*
X0218615Y0128353D01*
X0217401Y0126502D02*
X0214932Y0126502D01*
X0214932Y0127119D02*
X0214932Y0124650D01*
X0215432Y0118353D02*
X0217901Y0114650D01*
X0219115Y0108353D02*
X0219115Y0104650D01*
X0217901Y0106502D02*
X0215432Y0106502D01*
X0215432Y0107119D02*
X0215432Y0104650D01*
X0204383Y0105884D02*
X0204383Y0108353D01*
X0198251Y0108353D02*
X0198251Y0104650D01*
X0197751Y0124650D02*
X0197751Y0128353D01*
X0203883Y0128353D02*
X0203883Y0125884D01*
X0202668Y0134650D02*
X0200199Y0134650D01*
X0200199Y0138353D01*
X0198985Y0138353D02*
X0196516Y0138353D01*
X0197751Y0138353D02*
X0197751Y0134650D01*
X0195302Y0135267D02*
X0195302Y0137736D01*
X0194685Y0138353D01*
X0193450Y0138353D01*
X0192833Y0137736D01*
X0192833Y0135267D01*
X0193450Y0134650D01*
X0194685Y0134650D01*
X0195302Y0135267D01*
X0191619Y0136502D02*
X0191002Y0135884D01*
X0189150Y0135884D01*
X0189150Y0134650D02*
X0189150Y0138353D01*
X0191002Y0138353D01*
X0191619Y0137736D01*
X0191619Y0136502D01*
X0203883Y0135884D02*
X0205117Y0134650D01*
X0206351Y0135884D01*
X0206351Y0138353D01*
X0207566Y0138353D02*
X0207566Y0134650D01*
X0210034Y0134650D01*
X0211249Y0135267D02*
X0211866Y0134650D01*
X0213100Y0134650D01*
X0213718Y0135267D01*
X0213718Y0136502D01*
X0213100Y0137119D01*
X0212483Y0137119D01*
X0211249Y0136502D01*
X0211249Y0138353D01*
X0213718Y0138353D01*
X0214932Y0138353D02*
X0214932Y0135884D01*
X0216166Y0134650D01*
X0217401Y0135884D01*
X0217401Y0138353D01*
X0203883Y0138353D02*
X0203883Y0135884D01*
X0202150Y0161650D02*
X0202150Y0165353D01*
X0204002Y0165353D01*
X0204619Y0164736D01*
X0204619Y0163502D01*
X0204002Y0162884D01*
X0202150Y0162884D01*
X0205833Y0162267D02*
X0206450Y0161650D01*
X0207685Y0161650D01*
X0208302Y0162267D01*
X0208302Y0164736D01*
X0207685Y0165353D01*
X0206450Y0165353D01*
X0205833Y0164736D01*
X0205833Y0162267D01*
X0209516Y0165353D02*
X0211985Y0165353D01*
X0213199Y0165353D02*
X0215051Y0165353D01*
X0215668Y0164736D01*
X0215668Y0164119D01*
X0215051Y0163502D01*
X0213199Y0163502D01*
X0213199Y0165353D02*
X0213199Y0161650D01*
X0215051Y0161650D01*
X0215668Y0162267D01*
X0215668Y0162884D01*
X0215051Y0163502D01*
X0216883Y0165353D02*
X0218117Y0165353D01*
X0217500Y0165353D02*
X0217500Y0161650D01*
X0216883Y0161650D02*
X0218117Y0161650D01*
X0219338Y0161650D02*
X0219338Y0164119D01*
X0220572Y0165353D01*
X0221807Y0164119D01*
X0221807Y0161650D01*
X0223021Y0162267D02*
X0223638Y0161650D01*
X0224873Y0161650D01*
X0225490Y0162267D01*
X0225490Y0162884D01*
X0224873Y0163502D01*
X0223638Y0163502D01*
X0223021Y0164119D01*
X0223021Y0164736D01*
X0223638Y0165353D01*
X0224873Y0165353D01*
X0225490Y0164736D01*
X0226704Y0164736D02*
X0226704Y0162267D01*
X0227321Y0161650D01*
X0228556Y0161650D01*
X0229173Y0162267D01*
X0229173Y0163502D01*
X0227939Y0163502D01*
X0229173Y0164736D02*
X0228556Y0165353D01*
X0227321Y0165353D01*
X0226704Y0164736D01*
X0230387Y0165353D02*
X0230387Y0161650D01*
X0232856Y0161650D02*
X0230387Y0165353D01*
X0232856Y0165353D02*
X0232856Y0161650D01*
X0234071Y0161650D02*
X0234071Y0165353D01*
X0235922Y0165353D01*
X0236539Y0164736D01*
X0236539Y0162267D01*
X0235922Y0161650D01*
X0234071Y0161650D01*
X0234071Y0171650D02*
X0236539Y0171650D01*
X0234071Y0171650D02*
X0234071Y0175353D01*
X0232856Y0174119D02*
X0232856Y0171650D01*
X0232856Y0173502D02*
X0230387Y0173502D01*
X0230387Y0174119D02*
X0231622Y0175353D01*
X0232856Y0174119D01*
X0230387Y0174119D02*
X0230387Y0171650D01*
X0229173Y0172884D02*
X0227939Y0171650D01*
X0226704Y0172884D01*
X0226704Y0175353D01*
X0225490Y0174736D02*
X0224873Y0175353D01*
X0223638Y0175353D01*
X0223021Y0174736D01*
X0223021Y0174119D01*
X0223638Y0173502D01*
X0224873Y0173502D01*
X0225490Y0172884D01*
X0225490Y0172267D01*
X0224873Y0171650D01*
X0223638Y0171650D01*
X0223021Y0172267D01*
X0221807Y0171650D02*
X0221807Y0174119D01*
X0220572Y0175353D01*
X0219338Y0174119D01*
X0219338Y0171650D01*
X0218117Y0171650D02*
X0216883Y0171650D01*
X0217500Y0171650D02*
X0217500Y0175353D01*
X0216883Y0175353D02*
X0218117Y0175353D01*
X0219338Y0173502D02*
X0221807Y0173502D01*
X0215668Y0174119D02*
X0215051Y0173502D01*
X0213199Y0173502D01*
X0213199Y0175353D02*
X0213199Y0171650D01*
X0215051Y0171650D01*
X0215668Y0172267D01*
X0215668Y0172884D01*
X0215051Y0173502D01*
X0215668Y0174119D02*
X0215668Y0174736D01*
X0215051Y0175353D01*
X0213199Y0175353D01*
X0211985Y0175353D02*
X0209516Y0175353D01*
X0210751Y0175353D02*
X0210751Y0171650D01*
X0208302Y0172267D02*
X0208302Y0174736D01*
X0207685Y0175353D01*
X0206450Y0175353D01*
X0205833Y0174736D01*
X0205833Y0172267D01*
X0206450Y0171650D01*
X0207685Y0171650D01*
X0208302Y0172267D01*
X0204619Y0173502D02*
X0204002Y0172884D01*
X0202150Y0172884D01*
X0202150Y0171650D02*
X0202150Y0175353D01*
X0204002Y0175353D01*
X0204619Y0174736D01*
X0204619Y0173502D01*
X0206450Y0181650D02*
X0207685Y0181650D01*
X0208302Y0182267D01*
X0208302Y0184736D01*
X0207685Y0185353D01*
X0206450Y0185353D01*
X0205833Y0184736D01*
X0205833Y0182267D01*
X0206450Y0181650D01*
X0204619Y0183502D02*
X0204619Y0184736D01*
X0204002Y0185353D01*
X0202150Y0185353D01*
X0202150Y0181650D01*
X0202150Y0182884D02*
X0204002Y0182884D01*
X0204619Y0183502D01*
X0209516Y0185353D02*
X0211985Y0185353D01*
X0213199Y0185353D02*
X0215051Y0185353D01*
X0215668Y0184736D01*
X0215668Y0184119D01*
X0215051Y0183502D01*
X0213199Y0183502D01*
X0213199Y0185353D02*
X0213199Y0181650D01*
X0215051Y0181650D01*
X0215668Y0182267D01*
X0215668Y0182884D01*
X0215051Y0183502D01*
X0216883Y0185353D02*
X0218117Y0185353D01*
X0217500Y0185353D02*
X0217500Y0181650D01*
X0216883Y0181650D02*
X0218117Y0181650D01*
X0219338Y0181650D02*
X0219338Y0184119D01*
X0220572Y0185353D01*
X0221807Y0184119D01*
X0221807Y0181650D01*
X0223021Y0182267D02*
X0223638Y0181650D01*
X0224873Y0181650D01*
X0225490Y0182267D01*
X0225490Y0182884D01*
X0224873Y0183502D01*
X0223638Y0183502D01*
X0223021Y0184119D01*
X0223021Y0184736D01*
X0223638Y0185353D01*
X0224873Y0185353D01*
X0225490Y0184736D01*
X0226704Y0185353D02*
X0226704Y0183502D01*
X0227939Y0184119D01*
X0228556Y0184119D01*
X0229173Y0183502D01*
X0229173Y0182267D01*
X0228556Y0181650D01*
X0227321Y0181650D01*
X0226704Y0182267D01*
X0226704Y0185353D02*
X0229173Y0185353D01*
X0230387Y0185353D02*
X0230387Y0182884D01*
X0231622Y0181650D01*
X0232856Y0182884D01*
X0232856Y0185353D01*
X0229173Y0175353D02*
X0229173Y0172884D01*
X0221807Y0163502D02*
X0219338Y0163502D01*
X0210751Y0161650D02*
X0210751Y0165353D01*
X0210751Y0181650D02*
X0210751Y0185353D01*
X0219338Y0183502D02*
X0221807Y0183502D01*
X0233150Y0142853D02*
X0234384Y0141619D01*
X0235619Y0142853D01*
X0235619Y0139150D01*
X0236833Y0139767D02*
X0237450Y0139150D01*
X0238685Y0139150D01*
X0239302Y0139767D01*
X0239302Y0142236D01*
X0238685Y0142853D01*
X0237450Y0142853D01*
X0236833Y0142236D01*
X0236833Y0139767D01*
X0240516Y0139150D02*
X0240516Y0142853D01*
X0241751Y0141619D01*
X0242985Y0142853D01*
X0242985Y0139150D01*
X0244199Y0139150D02*
X0244199Y0141619D01*
X0245434Y0142853D01*
X0246668Y0141619D01*
X0246668Y0139150D01*
X0247883Y0139150D02*
X0250351Y0139150D01*
X0249117Y0139150D02*
X0249117Y0142853D01*
X0247883Y0141619D01*
X0246668Y0141002D02*
X0244199Y0141002D01*
X0244199Y0132853D02*
X0246051Y0132853D01*
X0246668Y0132236D01*
X0246668Y0131619D01*
X0246051Y0131002D01*
X0244199Y0131002D01*
X0244199Y0132853D02*
X0244199Y0129150D01*
X0246051Y0129150D01*
X0246668Y0129767D01*
X0246668Y0130384D01*
X0246051Y0131002D01*
X0247883Y0131619D02*
X0249117Y0132853D01*
X0249117Y0129150D01*
X0247883Y0129150D02*
X0250351Y0129150D01*
X0242985Y0129150D02*
X0242985Y0132853D01*
X0241751Y0131619D01*
X0240516Y0132853D01*
X0240516Y0129150D01*
X0239302Y0129767D02*
X0239302Y0132236D01*
X0238685Y0132853D01*
X0237450Y0132853D01*
X0236833Y0132236D01*
X0236833Y0129767D01*
X0237450Y0129150D01*
X0238685Y0129150D01*
X0239302Y0129767D01*
X0235619Y0129150D02*
X0235619Y0132853D01*
X0234384Y0131619D01*
X0233150Y0132853D01*
X0233150Y0129150D01*
X0233150Y0139150D02*
X0233150Y0142853D01*
X0269150Y0123853D02*
X0270384Y0123853D01*
X0269767Y0123853D02*
X0269767Y0120150D01*
X0269150Y0120150D02*
X0270384Y0120150D01*
X0271605Y0120150D02*
X0271605Y0123853D01*
X0274074Y0120150D01*
X0274074Y0123853D01*
X0275289Y0123853D02*
X0277757Y0123853D01*
X0276523Y0123853D02*
X0276523Y0120150D01*
X0278972Y0120150D02*
X0281440Y0120150D01*
X0280206Y0120150D02*
X0280206Y0123853D01*
X0278972Y0122619D01*
X0279589Y0113853D02*
X0278972Y0113236D01*
X0279589Y0113853D02*
X0280823Y0113853D01*
X0281440Y0113236D01*
X0281440Y0112619D01*
X0278972Y0110150D01*
X0281440Y0110150D01*
X0276523Y0110150D02*
X0276523Y0113853D01*
X0275289Y0113853D02*
X0277757Y0113853D01*
X0274074Y0113853D02*
X0274074Y0110150D01*
X0271605Y0113853D01*
X0271605Y0110150D01*
X0270384Y0110150D02*
X0269150Y0110150D01*
X0269767Y0110150D02*
X0269767Y0113853D01*
X0269150Y0113853D02*
X0270384Y0113853D01*
X0270384Y0103853D02*
X0269150Y0103853D01*
X0269767Y0103853D02*
X0269767Y0100150D01*
X0269150Y0100150D02*
X0270384Y0100150D01*
X0271605Y0100150D02*
X0271605Y0103853D01*
X0274074Y0100150D01*
X0274074Y0103853D01*
X0275289Y0103853D02*
X0277757Y0103853D01*
X0276523Y0103853D02*
X0276523Y0100150D01*
X0278972Y0100767D02*
X0279589Y0100150D01*
X0280823Y0100150D01*
X0281440Y0100767D01*
X0281440Y0101384D01*
X0280823Y0102002D01*
X0280206Y0102002D01*
X0280823Y0102002D02*
X0281440Y0102619D01*
X0281440Y0103236D01*
X0280823Y0103853D01*
X0279589Y0103853D01*
X0278972Y0103236D01*
X0250351Y0079236D02*
X0250351Y0078619D01*
X0249734Y0078002D01*
X0250351Y0077384D01*
X0250351Y0076767D01*
X0249734Y0076150D01*
X0248500Y0076150D01*
X0247883Y0076767D01*
X0246668Y0076150D02*
X0246668Y0078619D01*
X0245434Y0079853D01*
X0244199Y0078619D01*
X0244199Y0076150D01*
X0242985Y0076150D02*
X0242985Y0079853D01*
X0241751Y0078619D01*
X0240516Y0079853D01*
X0240516Y0076150D01*
X0239302Y0076767D02*
X0239302Y0079236D01*
X0238685Y0079853D01*
X0237450Y0079853D01*
X0236833Y0079236D01*
X0236833Y0076767D01*
X0237450Y0076150D01*
X0238685Y0076150D01*
X0239302Y0076767D01*
X0244199Y0078002D02*
X0246668Y0078002D01*
X0247883Y0079236D02*
X0248500Y0079853D01*
X0249734Y0079853D01*
X0250351Y0079236D01*
X0249734Y0078002D02*
X0249117Y0078002D01*
X0249734Y0069853D02*
X0250351Y0069236D01*
X0250351Y0068619D01*
X0249734Y0068002D01*
X0250351Y0067384D01*
X0250351Y0066767D01*
X0249734Y0066150D01*
X0248500Y0066150D01*
X0247883Y0066767D01*
X0246668Y0066767D02*
X0246051Y0066150D01*
X0244199Y0066150D01*
X0244199Y0069853D01*
X0246051Y0069853D01*
X0246668Y0069236D01*
X0246668Y0068619D01*
X0246051Y0068002D01*
X0244199Y0068002D01*
X0246051Y0068002D02*
X0246668Y0067384D01*
X0246668Y0066767D01*
X0249117Y0068002D02*
X0249734Y0068002D01*
X0249734Y0069853D02*
X0248500Y0069853D01*
X0247883Y0069236D01*
X0242985Y0069853D02*
X0242985Y0066150D01*
X0240516Y0066150D02*
X0240516Y0069853D01*
X0241751Y0068619D01*
X0242985Y0069853D01*
X0239302Y0069236D02*
X0239302Y0066767D01*
X0238685Y0066150D01*
X0237450Y0066150D01*
X0236833Y0066767D01*
X0236833Y0069236D01*
X0237450Y0069853D01*
X0238685Y0069853D01*
X0239302Y0069236D01*
X0235619Y0069853D02*
X0235619Y0066150D01*
X0233150Y0066150D02*
X0233150Y0069853D01*
X0234384Y0068619D01*
X0235619Y0069853D01*
X0235619Y0076150D02*
X0235619Y0079853D01*
X0234384Y0078619D01*
X0233150Y0079853D01*
X0233150Y0076150D01*
X0124353Y0021350D02*
X0120650Y0021350D01*
X0120650Y0018881D01*
X0120650Y0017667D02*
X0123119Y0017667D01*
X0124353Y0016432D01*
X0123119Y0015198D01*
X0120650Y0015198D01*
X0122502Y0015198D02*
X0122502Y0017667D01*
X0124353Y0013984D02*
X0124353Y0011515D01*
X0124353Y0012749D02*
X0120650Y0012749D01*
X0114353Y0013984D02*
X0110650Y0013984D01*
X0110650Y0011515D01*
X0110650Y0010301D02*
X0114353Y0010301D01*
X0112502Y0009683D02*
X0110650Y0007832D01*
X0111884Y0010301D02*
X0114353Y0007832D01*
X0113736Y0015198D02*
X0114353Y0015815D01*
X0114353Y0017050D01*
X0113736Y0017667D01*
X0111267Y0017667D01*
X0110650Y0017050D01*
X0110650Y0015815D01*
X0111267Y0015198D01*
X0111267Y0018881D02*
X0110650Y0019498D01*
X0110650Y0020733D01*
X0111267Y0021350D01*
X0112502Y0020733D02*
X0113119Y0021350D01*
X0113736Y0021350D01*
X0114353Y0020733D01*
X0114353Y0019498D01*
X0113736Y0018881D01*
X0112502Y0019498D02*
X0111884Y0018881D01*
X0111267Y0018881D01*
X0112502Y0019498D02*
X0112502Y0020733D01*
X0104353Y0020733D02*
X0103736Y0021350D01*
X0103119Y0021350D01*
X0102502Y0020733D01*
X0102502Y0019498D01*
X0101884Y0018881D01*
X0101267Y0018881D01*
X0100650Y0019498D01*
X0100650Y0020733D01*
X0101267Y0021350D01*
X0104353Y0020733D02*
X0104353Y0019498D01*
X0103736Y0018881D01*
X0104353Y0017667D02*
X0104353Y0016432D01*
X0104353Y0017050D02*
X0100650Y0017050D01*
X0100650Y0017667D02*
X0100650Y0016432D01*
X0100650Y0015211D02*
X0104353Y0015211D01*
X0100650Y0012743D01*
X0104353Y0012743D01*
X0094353Y0012132D02*
X0094353Y0013367D01*
X0093736Y0013984D01*
X0091267Y0013984D01*
X0090650Y0013367D01*
X0090650Y0012132D01*
X0091267Y0011515D01*
X0090650Y0010301D02*
X0090650Y0007832D01*
X0090650Y0006617D02*
X0094353Y0006617D01*
X0092502Y0006000D02*
X0090650Y0004149D01*
X0091884Y0006617D02*
X0094353Y0004149D01*
X0094353Y0010301D02*
X0090650Y0010301D01*
X0093736Y0011515D02*
X0094353Y0012132D01*
X0093736Y0015198D02*
X0094353Y0015815D01*
X0094353Y0017050D01*
X0093736Y0017667D01*
X0093119Y0017667D01*
X0092502Y0017050D01*
X0092502Y0015815D01*
X0091884Y0015198D01*
X0091267Y0015198D01*
X0090650Y0015815D01*
X0090650Y0017050D01*
X0091267Y0017667D01*
X0091267Y0018881D02*
X0090650Y0019498D01*
X0090650Y0020733D01*
X0091267Y0021350D01*
X0093736Y0021350D01*
X0094353Y0020733D01*
X0094353Y0019498D01*
X0093736Y0018881D01*
X0092502Y0018881D02*
X0092502Y0020116D01*
X0092502Y0018881D02*
X0091267Y0018881D01*
X0084353Y0019498D02*
X0083736Y0018881D01*
X0083119Y0018881D01*
X0082502Y0019498D01*
X0081884Y0018881D01*
X0081267Y0018881D01*
X0080650Y0019498D01*
X0080650Y0020733D01*
X0081267Y0021350D01*
X0082502Y0020116D02*
X0082502Y0019498D01*
X0084353Y0019498D02*
X0084353Y0020733D01*
X0083736Y0021350D01*
X0081267Y0017667D02*
X0081267Y0017050D01*
X0080650Y0017050D01*
X0080650Y0017667D01*
X0081267Y0017667D01*
X0081267Y0015825D02*
X0080650Y0015208D01*
X0080650Y0013974D01*
X0081267Y0013357D01*
X0081884Y0013357D01*
X0082502Y0013974D01*
X0082502Y0014591D01*
X0082502Y0013974D02*
X0083119Y0013357D01*
X0083736Y0013357D01*
X0084353Y0013974D01*
X0084353Y0015208D01*
X0083736Y0015825D01*
X0084353Y0012142D02*
X0081884Y0012142D01*
X0080650Y0010908D01*
X0081884Y0009673D01*
X0084353Y0009673D01*
X0114764Y0039734D02*
X0117233Y0039734D01*
X0117850Y0040351D01*
X0117850Y0041586D01*
X0117233Y0042203D01*
X0117850Y0043417D02*
X0117850Y0045886D01*
X0117233Y0047101D02*
X0117850Y0047718D01*
X0117850Y0048952D01*
X0117233Y0049569D01*
X0114764Y0049569D01*
X0114147Y0048952D01*
X0114147Y0047718D01*
X0114764Y0047101D01*
X0117233Y0047101D01*
X0117850Y0043417D02*
X0114147Y0043417D01*
X0114764Y0042203D02*
X0114147Y0041586D01*
X0114147Y0040351D01*
X0114764Y0039734D01*
X0114764Y0050784D02*
X0117233Y0050784D01*
X0117850Y0051401D01*
X0117850Y0052635D01*
X0117233Y0053252D01*
X0117850Y0054467D02*
X0114147Y0054467D01*
X0114764Y0053252D02*
X0114147Y0052635D01*
X0114147Y0051401D01*
X0114764Y0050784D01*
X0116616Y0054467D02*
X0114147Y0056936D01*
X0115998Y0055084D02*
X0117850Y0056936D01*
X0114318Y0075650D02*
X0113084Y0075650D01*
X0112467Y0076267D01*
X0111252Y0076267D02*
X0111252Y0078736D01*
X0110635Y0079353D01*
X0108784Y0079353D01*
X0108784Y0075650D01*
X0110635Y0075650D01*
X0111252Y0076267D01*
X0113084Y0077502D02*
X0114936Y0077502D01*
X0114936Y0078736D02*
X0114318Y0079353D01*
X0113084Y0079353D01*
X0112467Y0078736D01*
X0112467Y0078119D01*
X0113084Y0077502D01*
X0114936Y0078736D02*
X0114936Y0076267D01*
X0114318Y0075650D01*
X0107569Y0075650D02*
X0105101Y0075650D01*
X0105101Y0079353D01*
X0107569Y0079353D01*
X0106335Y0077502D02*
X0105101Y0077502D01*
X0103886Y0075650D02*
X0101417Y0075650D01*
X0101417Y0079353D01*
X0096234Y0099150D02*
X0095000Y0099150D01*
X0094383Y0099767D01*
X0096851Y0102236D01*
X0096851Y0099767D01*
X0096234Y0099150D01*
X0094383Y0099767D02*
X0094383Y0102236D01*
X0095000Y0102853D01*
X0096234Y0102853D01*
X0096851Y0102236D01*
X0093168Y0099150D02*
X0090699Y0099150D01*
X0091934Y0099150D02*
X0091934Y0102853D01*
X0090699Y0101619D01*
X0089485Y0102236D02*
X0088868Y0102853D01*
X0087016Y0102853D01*
X0087016Y0099150D01*
X0088868Y0099150D01*
X0089485Y0099767D01*
X0089485Y0102236D01*
X0085802Y0102853D02*
X0083333Y0102853D01*
X0083333Y0099150D01*
X0085802Y0099150D01*
X0084568Y0101002D02*
X0083333Y0101002D01*
X0082119Y0099150D02*
X0079650Y0099150D01*
X0079650Y0102853D01*
X0064701Y0076353D02*
X0064701Y0072650D01*
X0063467Y0072650D02*
X0065936Y0072650D01*
X0063467Y0075119D02*
X0064701Y0076353D01*
X0061018Y0076353D02*
X0061018Y0072650D01*
X0059784Y0072650D02*
X0062252Y0072650D01*
X0059784Y0075119D02*
X0061018Y0076353D01*
X0058569Y0075736D02*
X0058569Y0073267D01*
X0057952Y0072650D01*
X0056101Y0072650D01*
X0056101Y0076353D01*
X0057952Y0076353D01*
X0058569Y0075736D01*
X0054886Y0076353D02*
X0052417Y0076353D01*
X0052417Y0072650D01*
X0054886Y0072650D01*
X0053652Y0074502D02*
X0052417Y0074502D01*
X0051203Y0072650D02*
X0048734Y0072650D01*
X0048734Y0076353D01*
X0016850Y0054436D02*
X0016850Y0051967D01*
X0014381Y0054436D01*
X0013764Y0054436D01*
X0013147Y0053818D01*
X0013147Y0052584D01*
X0013764Y0051967D01*
X0013147Y0047069D02*
X0015616Y0047069D01*
X0016850Y0045835D01*
X0015616Y0044601D01*
X0013147Y0044601D01*
X0013147Y0043386D02*
X0013147Y0040917D01*
X0016850Y0040917D01*
X0016850Y0043386D01*
X0014998Y0042152D02*
X0014998Y0040917D01*
X0014998Y0039703D02*
X0015616Y0039086D01*
X0015616Y0037234D01*
X0016850Y0037234D02*
X0013147Y0037234D01*
X0013147Y0039086D01*
X0013764Y0039703D01*
X0014998Y0039703D01*
X0015616Y0038469D02*
X0016850Y0039703D01*
X0014467Y0109150D02*
X0014467Y0109767D01*
X0016936Y0112236D01*
X0016936Y0112853D01*
X0014467Y0112853D01*
X0013252Y0112236D02*
X0012635Y0112853D01*
X0010784Y0112853D01*
X0010784Y0109150D01*
X0012635Y0109150D01*
X0013252Y0109767D01*
X0013252Y0112236D01*
X0009569Y0112853D02*
X0007101Y0112853D01*
X0007101Y0109150D01*
X0009569Y0109150D01*
X0008335Y0111002D02*
X0007101Y0111002D01*
X0005886Y0109150D02*
X0003417Y0109150D01*
X0003417Y0112853D01*
X0006917Y0124150D02*
X0009386Y0124150D01*
X0010601Y0124150D02*
X0013069Y0124150D01*
X0014284Y0124150D02*
X0016135Y0124150D01*
X0016752Y0124767D01*
X0016752Y0127236D01*
X0016135Y0127853D01*
X0014284Y0127853D01*
X0014284Y0124150D01*
X0011835Y0126002D02*
X0010601Y0126002D01*
X0010601Y0127853D02*
X0010601Y0124150D01*
X0006917Y0124150D02*
X0006917Y0127853D01*
X0010601Y0127853D02*
X0013069Y0127853D01*
X0017967Y0127236D02*
X0018584Y0127853D01*
X0019818Y0127853D01*
X0020436Y0127236D01*
X0020436Y0126619D01*
X0019818Y0126002D01*
X0020436Y0125384D01*
X0020436Y0124767D01*
X0019818Y0124150D01*
X0018584Y0124150D01*
X0017967Y0124767D01*
X0019201Y0126002D02*
X0019818Y0126002D01*
X0019784Y0179650D02*
X0021635Y0179650D01*
X0022252Y0180267D01*
X0022252Y0182736D01*
X0021635Y0183353D01*
X0019784Y0183353D01*
X0019784Y0179650D01*
X0018569Y0179650D02*
X0016101Y0179650D01*
X0016101Y0183353D01*
X0018569Y0183353D01*
X0017335Y0181502D02*
X0016101Y0181502D01*
X0014886Y0179650D02*
X0012417Y0179650D01*
X0012417Y0183353D01*
X0023467Y0181502D02*
X0023467Y0180267D01*
X0024084Y0179650D01*
X0025318Y0179650D01*
X0025936Y0180267D01*
X0025936Y0180884D01*
X0025318Y0181502D01*
X0023467Y0181502D01*
X0024701Y0182736D01*
X0025936Y0183353D01*
X0043917Y0207650D02*
X0046386Y0207650D01*
X0047601Y0207650D02*
X0050069Y0207650D01*
X0051284Y0207650D02*
X0051284Y0211353D01*
X0053135Y0211353D01*
X0053752Y0210736D01*
X0053752Y0208267D01*
X0053135Y0207650D01*
X0051284Y0207650D01*
X0048835Y0209502D02*
X0047601Y0209502D01*
X0047601Y0211353D02*
X0047601Y0207650D01*
X0043917Y0207650D02*
X0043917Y0211353D01*
X0047601Y0211353D02*
X0050069Y0211353D01*
X0054967Y0210736D02*
X0055584Y0211353D01*
X0056818Y0211353D01*
X0057436Y0210736D01*
X0057436Y0210119D01*
X0054967Y0207650D01*
X0057436Y0207650D01*
X0170647Y0260150D02*
X0170647Y0262002D01*
X0171264Y0262619D01*
X0172498Y0262619D01*
X0173116Y0262002D01*
X0173116Y0260150D01*
X0174350Y0260150D02*
X0170647Y0260150D01*
X0171264Y0263833D02*
X0173733Y0263833D01*
X0174350Y0264450D01*
X0174350Y0265685D01*
X0173733Y0266302D01*
X0171264Y0266302D01*
X0170647Y0265685D01*
X0170647Y0264450D01*
X0171264Y0263833D01*
X0170647Y0267516D02*
X0170647Y0269985D01*
X0170647Y0268751D02*
X0174350Y0268751D01*
X0174350Y0271199D02*
X0171881Y0271199D01*
X0170647Y0272434D01*
X0171881Y0273668D01*
X0174350Y0273668D01*
X0174350Y0274883D02*
X0170647Y0274883D01*
X0171881Y0276117D01*
X0170647Y0277351D01*
X0174350Y0277351D01*
X0174350Y0278566D02*
X0170647Y0278566D01*
X0170647Y0280417D01*
X0171264Y0281034D01*
X0172498Y0281034D01*
X0173116Y0280417D01*
X0173116Y0278566D01*
X0172498Y0273668D02*
X0172498Y0271199D01*
X0177650Y0267853D02*
X0177650Y0264150D01*
X0177650Y0265384D02*
X0179502Y0265384D01*
X0180119Y0266002D01*
X0180119Y0267236D01*
X0179502Y0267853D01*
X0177650Y0267853D01*
X0181333Y0267236D02*
X0181333Y0264767D01*
X0181950Y0264150D01*
X0183185Y0264150D01*
X0183802Y0264767D01*
X0183802Y0267236D01*
X0183185Y0267853D01*
X0181950Y0267853D01*
X0181333Y0267236D01*
X0185016Y0267853D02*
X0187485Y0267853D01*
X0186251Y0267853D02*
X0186251Y0264150D01*
X0188699Y0264150D02*
X0188699Y0266619D01*
X0189934Y0267853D01*
X0191168Y0266619D01*
X0191168Y0264150D01*
X0192383Y0264150D02*
X0192383Y0267853D01*
X0193617Y0266619D01*
X0194851Y0267853D01*
X0194851Y0264150D01*
X0196066Y0264150D02*
X0196066Y0267853D01*
X0197917Y0267853D01*
X0198534Y0267236D01*
X0198534Y0266002D01*
X0197917Y0265384D01*
X0196066Y0265384D01*
X0191168Y0266002D02*
X0188699Y0266002D01*
X0199749Y0265384D02*
X0200983Y0264150D01*
X0202218Y0265384D01*
X0202218Y0267853D01*
X0203432Y0266619D02*
X0204666Y0267853D01*
X0205901Y0266619D01*
X0205901Y0264150D01*
X0207115Y0264150D02*
X0209584Y0264150D01*
X0210264Y0263619D02*
X0211498Y0263619D01*
X0212116Y0263002D01*
X0212116Y0261150D01*
X0213350Y0261150D02*
X0209647Y0261150D01*
X0209647Y0263002D01*
X0210264Y0263619D01*
X0210264Y0264833D02*
X0212733Y0264833D01*
X0213350Y0265450D01*
X0213350Y0266685D01*
X0212733Y0267302D01*
X0210264Y0267302D01*
X0209647Y0266685D01*
X0209647Y0265450D01*
X0210264Y0264833D01*
X0207115Y0264150D02*
X0207115Y0267853D01*
X0205901Y0266002D02*
X0203432Y0266002D01*
X0203432Y0266619D02*
X0203432Y0264150D01*
X0199749Y0265384D02*
X0199749Y0267853D01*
X0209647Y0268516D02*
X0209647Y0270985D01*
X0209647Y0269751D02*
X0213350Y0269751D01*
X0213350Y0272199D02*
X0210881Y0272199D01*
X0209647Y0273434D01*
X0210881Y0274668D01*
X0213350Y0274668D01*
X0213350Y0275883D02*
X0209647Y0275883D01*
X0210881Y0277117D01*
X0209647Y0278351D01*
X0213350Y0278351D01*
X0213350Y0279566D02*
X0209647Y0279566D01*
X0209647Y0281417D01*
X0210264Y0282034D01*
X0211498Y0282034D01*
X0212116Y0281417D01*
X0212116Y0279566D01*
X0212116Y0283249D02*
X0209647Y0283249D01*
X0212116Y0283249D02*
X0213350Y0284483D01*
X0212116Y0285718D01*
X0209647Y0285718D01*
X0210264Y0286932D02*
X0212733Y0286932D01*
X0213350Y0287549D01*
X0213350Y0288784D01*
X0212733Y0289401D01*
X0212733Y0290615D02*
X0210264Y0290615D01*
X0209647Y0291232D01*
X0209647Y0292467D01*
X0210264Y0293084D01*
X0212733Y0293084D02*
X0213350Y0292467D01*
X0213350Y0291232D01*
X0212733Y0290615D01*
X0210264Y0289401D02*
X0209647Y0288784D01*
X0209647Y0287549D01*
X0210264Y0286932D01*
X0211498Y0274668D02*
X0211498Y0272199D01*
X0235647Y0272384D02*
X0235647Y0271150D01*
X0235647Y0271767D02*
X0239350Y0271767D01*
X0239350Y0271150D02*
X0239350Y0272384D01*
X0239350Y0273605D02*
X0235647Y0273605D01*
X0239350Y0276074D01*
X0235647Y0276074D01*
X0235647Y0277289D02*
X0235647Y0279140D01*
X0236264Y0279757D01*
X0237498Y0279757D01*
X0238116Y0279140D01*
X0238116Y0277289D01*
X0239350Y0277289D02*
X0235647Y0277289D01*
X0235647Y0280972D02*
X0238733Y0280972D01*
X0239350Y0281589D01*
X0239350Y0282823D01*
X0238733Y0283440D01*
X0235647Y0283440D01*
X0235647Y0284655D02*
X0235647Y0287124D01*
X0235647Y0288338D02*
X0238116Y0288338D01*
X0239350Y0289572D01*
X0238116Y0290807D01*
X0235647Y0290807D01*
X0235647Y0285889D02*
X0239350Y0285889D01*
X0269147Y0286021D02*
X0272850Y0288490D01*
X0269147Y0288490D01*
X0269147Y0289704D02*
X0269147Y0291556D01*
X0269764Y0292173D01*
X0272233Y0292173D01*
X0272850Y0291556D01*
X0272850Y0289704D01*
X0269147Y0289704D01*
X0269147Y0286021D02*
X0272850Y0286021D01*
X0272233Y0284807D02*
X0270998Y0284807D01*
X0270998Y0283572D01*
X0269764Y0282338D02*
X0272233Y0282338D01*
X0272850Y0282955D01*
X0272850Y0284190D01*
X0272233Y0284807D01*
X0269764Y0284807D02*
X0269147Y0284190D01*
X0269147Y0282955D01*
X0269764Y0282338D01*
X0269147Y0281124D02*
X0269147Y0278655D01*
X0269147Y0277440D02*
X0272233Y0277440D01*
X0272850Y0276823D01*
X0272850Y0275589D01*
X0272233Y0274972D01*
X0269147Y0274972D01*
X0269764Y0273757D02*
X0270998Y0273757D01*
X0271616Y0273140D01*
X0271616Y0271289D01*
X0272850Y0271289D02*
X0269147Y0271289D01*
X0269147Y0273140D01*
X0269764Y0273757D01*
X0269147Y0270074D02*
X0272850Y0270074D01*
X0269147Y0267605D01*
X0272850Y0267605D01*
X0272850Y0266384D02*
X0272850Y0265150D01*
X0272850Y0265767D02*
X0269147Y0265767D01*
X0269147Y0265150D02*
X0269147Y0266384D01*
X0269147Y0279889D02*
X0272850Y0279889D01*
X0174350Y0282866D02*
X0174350Y0284100D01*
X0173733Y0284718D01*
X0172498Y0284718D01*
X0172498Y0283483D01*
X0171264Y0282249D02*
X0173733Y0282249D01*
X0174350Y0282866D01*
X0174350Y0285932D02*
X0170647Y0285932D01*
X0174350Y0288401D01*
X0170647Y0288401D01*
X0170647Y0289615D02*
X0170647Y0291467D01*
X0171264Y0292084D01*
X0173733Y0292084D01*
X0174350Y0291467D01*
X0174350Y0289615D01*
X0170647Y0289615D01*
X0171264Y0284718D02*
X0170647Y0284100D01*
X0170647Y0282866D01*
X0171264Y0282249D01*
D12*
X0177500Y0283500D02*
X0187500Y0283500D01*
X0187500Y0273500D01*
X0177500Y0273500D01*
X0177500Y0283500D01*
X0187500Y0283500D02*
X0187500Y0273500D01*
X0197500Y0273500D01*
X0197500Y0283500D01*
X0187500Y0283500D01*
X0197500Y0283500D02*
X0197500Y0273500D01*
X0207500Y0273500D01*
X0207500Y0283500D01*
X0197500Y0283500D01*
X0242000Y0285500D02*
X0242000Y0275500D01*
X0252000Y0275500D01*
X0252000Y0285500D01*
X0242000Y0285500D01*
X0257000Y0285500D02*
X0257000Y0275500D01*
X0267000Y0275500D01*
X0267000Y0285500D01*
X0257000Y0285500D01*
X0253750Y0243410D02*
X0253750Y0240407D01*
X0250747Y0243410D01*
X0249997Y0243410D01*
X0249246Y0242659D01*
X0249246Y0241158D01*
X0249997Y0240407D01*
X0253750Y0223910D02*
X0253750Y0220907D01*
X0253750Y0222409D02*
X0249246Y0222409D01*
X0250747Y0220907D01*
X0271446Y0224358D02*
X0272197Y0223607D01*
X0272947Y0223607D01*
X0273698Y0224358D01*
X0273698Y0226610D01*
X0275199Y0226610D02*
X0272197Y0226610D01*
X0271446Y0225859D01*
X0271446Y0224358D01*
X0275199Y0223607D02*
X0275950Y0224358D01*
X0275950Y0225859D01*
X0275199Y0226610D01*
X0274449Y0228211D02*
X0275950Y0229713D01*
X0274449Y0231214D01*
X0271446Y0231214D01*
X0273698Y0232815D02*
X0273698Y0235818D01*
X0274449Y0228211D02*
X0271446Y0228211D01*
X0254750Y0192910D02*
X0254750Y0189907D01*
X0251747Y0192910D01*
X0250997Y0192910D01*
X0250246Y0192159D01*
X0250246Y0190658D01*
X0250997Y0189907D01*
X0254750Y0173410D02*
X0254750Y0170407D01*
X0254750Y0171909D02*
X0250246Y0171909D01*
X0251747Y0170407D01*
X0272446Y0173858D02*
X0273197Y0173107D01*
X0273947Y0173107D01*
X0274698Y0173858D01*
X0274698Y0176110D01*
X0276199Y0176110D02*
X0273197Y0176110D01*
X0272446Y0175359D01*
X0272446Y0173858D01*
X0276199Y0173107D02*
X0276950Y0173858D01*
X0276950Y0175359D01*
X0276199Y0176110D01*
X0275449Y0177711D02*
X0276950Y0179213D01*
X0275449Y0180714D01*
X0272446Y0180714D01*
X0274698Y0182315D02*
X0274698Y0185318D01*
X0273197Y0183817D02*
X0276199Y0183817D01*
X0275449Y0177711D02*
X0272446Y0177711D01*
X0231000Y0146000D02*
X0231000Y0136000D01*
X0231000Y0126000D01*
X0221000Y0126000D01*
X0221000Y0136000D01*
X0231000Y0136000D01*
X0221000Y0136000D01*
X0221000Y0146000D01*
X0231000Y0146000D01*
X0257000Y0127000D02*
X0267000Y0127000D01*
X0267000Y0117000D01*
X0267000Y0107000D01*
X0267000Y0097000D01*
X0257000Y0097000D01*
X0257000Y0107000D01*
X0267000Y0107000D01*
X0257000Y0107000D01*
X0257000Y0117000D01*
X0267000Y0117000D01*
X0257000Y0117000D01*
X0257000Y0127000D01*
X0231000Y0117000D02*
X0231000Y0107000D01*
X0231000Y0097000D01*
X0221000Y0097000D01*
X0221000Y0107000D01*
X0231000Y0107000D01*
X0221000Y0107000D01*
X0221000Y0117000D01*
X0231000Y0117000D01*
X0231000Y0083000D02*
X0221000Y0083000D01*
X0221000Y0073000D01*
X0231000Y0073000D01*
X0231000Y0063000D01*
X0221000Y0063000D01*
X0221000Y0073000D01*
X0231000Y0073000D01*
X0231000Y0083000D01*
X0214159Y0040754D02*
X0212658Y0040754D01*
X0211907Y0040003D01*
X0214159Y0040754D02*
X0214910Y0040003D01*
X0214910Y0039253D01*
X0211907Y0036250D01*
X0214910Y0036250D01*
X0215775Y0018554D02*
X0213523Y0018554D01*
X0213523Y0014050D01*
X0213523Y0015551D02*
X0215775Y0015551D01*
X0216526Y0016302D01*
X0216526Y0017803D01*
X0215775Y0018554D01*
X0215024Y0015551D02*
X0216526Y0014050D01*
X0211922Y0014050D02*
X0208919Y0014050D01*
X0208919Y0018554D01*
X0211922Y0018554D01*
X0210421Y0016302D02*
X0208919Y0016302D01*
X0207318Y0014050D02*
X0207318Y0018554D01*
X0204315Y0018554D02*
X0204315Y0014050D01*
X0205817Y0015551D01*
X0207318Y0014050D01*
X0202714Y0014801D02*
X0202714Y0017803D01*
X0201963Y0018554D01*
X0200462Y0018554D01*
X0199711Y0017803D01*
X0199711Y0014801D01*
X0200462Y0014050D01*
X0201963Y0014050D01*
X0202714Y0014801D01*
X0198110Y0016302D02*
X0198110Y0017803D01*
X0197359Y0018554D01*
X0195107Y0018554D01*
X0195107Y0014050D01*
X0195107Y0015551D02*
X0197359Y0015551D01*
X0198110Y0016302D01*
X0195410Y0036250D02*
X0192407Y0036250D01*
X0193909Y0036250D02*
X0193909Y0040754D01*
X0192407Y0039253D01*
X0131799Y0048051D02*
X0125500Y0048051D01*
X0125500Y0059469D01*
X0131799Y0059469D01*
X0131799Y0048051D01*
X0127500Y0033500D02*
X0117500Y0033500D01*
X0117500Y0023500D01*
X0127500Y0023500D01*
X0127500Y0033500D01*
X0117500Y0033500D02*
X0117500Y0023500D01*
X0107500Y0023500D01*
X0097500Y0023500D01*
X0097500Y0033500D01*
X0107500Y0033500D01*
X0107500Y0023500D01*
X0107500Y0033500D01*
X0117500Y0033500D01*
X0097500Y0033500D02*
X0097500Y0023500D01*
X0087500Y0023500D01*
X0087500Y0033500D01*
X0097500Y0033500D01*
X0087500Y0033500D02*
X0087500Y0023500D01*
X0077500Y0023500D01*
X0077500Y0033500D01*
X0087500Y0033500D01*
X0093098Y0072976D02*
X0080500Y0072976D01*
X0080500Y0084000D01*
X0093098Y0084000D01*
X0093098Y0072976D01*
X0081912Y0082425D02*
X0081914Y0082472D01*
X0081920Y0082518D01*
X0081929Y0082564D01*
X0081943Y0082608D01*
X0081960Y0082652D01*
X0081981Y0082693D01*
X0082005Y0082733D01*
X0082032Y0082771D01*
X0082063Y0082806D01*
X0082096Y0082839D01*
X0082132Y0082869D01*
X0082171Y0082895D01*
X0082211Y0082919D01*
X0082253Y0082938D01*
X0082297Y0082955D01*
X0082342Y0082967D01*
X0082388Y0082976D01*
X0082434Y0082981D01*
X0082481Y0082982D01*
X0082527Y0082979D01*
X0082573Y0082972D01*
X0082619Y0082961D01*
X0082663Y0082947D01*
X0082706Y0082929D01*
X0082747Y0082907D01*
X0082787Y0082882D01*
X0082824Y0082854D01*
X0082859Y0082823D01*
X0082891Y0082789D01*
X0082920Y0082752D01*
X0082945Y0082714D01*
X0082968Y0082673D01*
X0082987Y0082630D01*
X0083002Y0082586D01*
X0083014Y0082541D01*
X0083022Y0082495D01*
X0083026Y0082448D01*
X0083026Y0082402D01*
X0083022Y0082355D01*
X0083014Y0082309D01*
X0083002Y0082264D01*
X0082987Y0082220D01*
X0082968Y0082177D01*
X0082945Y0082136D01*
X0082920Y0082098D01*
X0082891Y0082061D01*
X0082859Y0082027D01*
X0082824Y0081996D01*
X0082787Y0081968D01*
X0082748Y0081943D01*
X0082706Y0081921D01*
X0082663Y0081903D01*
X0082619Y0081889D01*
X0082573Y0081878D01*
X0082527Y0081871D01*
X0082481Y0081868D01*
X0082434Y0081869D01*
X0082388Y0081874D01*
X0082342Y0081883D01*
X0082297Y0081895D01*
X0082253Y0081912D01*
X0082211Y0081931D01*
X0082171Y0081955D01*
X0082132Y0081981D01*
X0082096Y0082011D01*
X0082063Y0082044D01*
X0082032Y0082079D01*
X0082005Y0082117D01*
X0081981Y0082157D01*
X0081960Y0082198D01*
X0081943Y0082242D01*
X0081929Y0082286D01*
X0081920Y0082332D01*
X0081914Y0082378D01*
X0081912Y0082425D01*
X0058598Y0080976D02*
X0046000Y0080976D01*
X0046000Y0092000D01*
X0058598Y0092000D01*
X0058598Y0080976D01*
X0047412Y0090425D02*
X0047414Y0090472D01*
X0047420Y0090518D01*
X0047429Y0090564D01*
X0047443Y0090608D01*
X0047460Y0090652D01*
X0047481Y0090693D01*
X0047505Y0090733D01*
X0047532Y0090771D01*
X0047563Y0090806D01*
X0047596Y0090839D01*
X0047632Y0090869D01*
X0047671Y0090895D01*
X0047711Y0090919D01*
X0047753Y0090938D01*
X0047797Y0090955D01*
X0047842Y0090967D01*
X0047888Y0090976D01*
X0047934Y0090981D01*
X0047981Y0090982D01*
X0048027Y0090979D01*
X0048073Y0090972D01*
X0048119Y0090961D01*
X0048163Y0090947D01*
X0048206Y0090929D01*
X0048247Y0090907D01*
X0048287Y0090882D01*
X0048324Y0090854D01*
X0048359Y0090823D01*
X0048391Y0090789D01*
X0048420Y0090752D01*
X0048445Y0090714D01*
X0048468Y0090673D01*
X0048487Y0090630D01*
X0048502Y0090586D01*
X0048514Y0090541D01*
X0048522Y0090495D01*
X0048526Y0090448D01*
X0048526Y0090402D01*
X0048522Y0090355D01*
X0048514Y0090309D01*
X0048502Y0090264D01*
X0048487Y0090220D01*
X0048468Y0090177D01*
X0048445Y0090136D01*
X0048420Y0090098D01*
X0048391Y0090061D01*
X0048359Y0090027D01*
X0048324Y0089996D01*
X0048287Y0089968D01*
X0048248Y0089943D01*
X0048206Y0089921D01*
X0048163Y0089903D01*
X0048119Y0089889D01*
X0048073Y0089878D01*
X0048027Y0089871D01*
X0047981Y0089868D01*
X0047934Y0089869D01*
X0047888Y0089874D01*
X0047842Y0089883D01*
X0047797Y0089895D01*
X0047753Y0089912D01*
X0047711Y0089931D01*
X0047671Y0089955D01*
X0047632Y0089981D01*
X0047596Y0090011D01*
X0047563Y0090044D01*
X0047532Y0090079D01*
X0047505Y0090117D01*
X0047481Y0090157D01*
X0047460Y0090198D01*
X0047443Y0090242D01*
X0047429Y0090286D01*
X0047420Y0090332D01*
X0047414Y0090378D01*
X0047412Y0090425D01*
X0036598Y0105976D02*
X0024000Y0105976D01*
X0024000Y0117000D01*
X0036598Y0117000D01*
X0036598Y0105976D01*
X0025412Y0115425D02*
X0025414Y0115472D01*
X0025420Y0115518D01*
X0025429Y0115564D01*
X0025443Y0115608D01*
X0025460Y0115652D01*
X0025481Y0115693D01*
X0025505Y0115733D01*
X0025532Y0115771D01*
X0025563Y0115806D01*
X0025596Y0115839D01*
X0025632Y0115869D01*
X0025671Y0115895D01*
X0025711Y0115919D01*
X0025753Y0115938D01*
X0025797Y0115955D01*
X0025842Y0115967D01*
X0025888Y0115976D01*
X0025934Y0115981D01*
X0025981Y0115982D01*
X0026027Y0115979D01*
X0026073Y0115972D01*
X0026119Y0115961D01*
X0026163Y0115947D01*
X0026206Y0115929D01*
X0026247Y0115907D01*
X0026287Y0115882D01*
X0026324Y0115854D01*
X0026359Y0115823D01*
X0026391Y0115789D01*
X0026420Y0115752D01*
X0026445Y0115714D01*
X0026468Y0115673D01*
X0026487Y0115630D01*
X0026502Y0115586D01*
X0026514Y0115541D01*
X0026522Y0115495D01*
X0026526Y0115448D01*
X0026526Y0115402D01*
X0026522Y0115355D01*
X0026514Y0115309D01*
X0026502Y0115264D01*
X0026487Y0115220D01*
X0026468Y0115177D01*
X0026445Y0115136D01*
X0026420Y0115098D01*
X0026391Y0115061D01*
X0026359Y0115027D01*
X0026324Y0114996D01*
X0026287Y0114968D01*
X0026248Y0114943D01*
X0026206Y0114921D01*
X0026163Y0114903D01*
X0026119Y0114889D01*
X0026073Y0114878D01*
X0026027Y0114871D01*
X0025981Y0114868D01*
X0025934Y0114869D01*
X0025888Y0114874D01*
X0025842Y0114883D01*
X0025797Y0114895D01*
X0025753Y0114912D01*
X0025711Y0114931D01*
X0025671Y0114955D01*
X0025632Y0114981D01*
X0025596Y0115011D01*
X0025563Y0115044D01*
X0025532Y0115079D01*
X0025505Y0115117D01*
X0025481Y0115157D01*
X0025460Y0115198D01*
X0025443Y0115242D01*
X0025429Y0115286D01*
X0025420Y0115332D01*
X0025414Y0115378D01*
X0025412Y0115425D01*
X0028098Y0132976D02*
X0015500Y0132976D01*
X0015500Y0144000D01*
X0028098Y0144000D01*
X0028098Y0132976D01*
X0016912Y0142425D02*
X0016914Y0142472D01*
X0016920Y0142518D01*
X0016929Y0142564D01*
X0016943Y0142608D01*
X0016960Y0142652D01*
X0016981Y0142693D01*
X0017005Y0142733D01*
X0017032Y0142771D01*
X0017063Y0142806D01*
X0017096Y0142839D01*
X0017132Y0142869D01*
X0017171Y0142895D01*
X0017211Y0142919D01*
X0017253Y0142938D01*
X0017297Y0142955D01*
X0017342Y0142967D01*
X0017388Y0142976D01*
X0017434Y0142981D01*
X0017481Y0142982D01*
X0017527Y0142979D01*
X0017573Y0142972D01*
X0017619Y0142961D01*
X0017663Y0142947D01*
X0017706Y0142929D01*
X0017747Y0142907D01*
X0017787Y0142882D01*
X0017824Y0142854D01*
X0017859Y0142823D01*
X0017891Y0142789D01*
X0017920Y0142752D01*
X0017945Y0142714D01*
X0017968Y0142673D01*
X0017987Y0142630D01*
X0018002Y0142586D01*
X0018014Y0142541D01*
X0018022Y0142495D01*
X0018026Y0142448D01*
X0018026Y0142402D01*
X0018022Y0142355D01*
X0018014Y0142309D01*
X0018002Y0142264D01*
X0017987Y0142220D01*
X0017968Y0142177D01*
X0017945Y0142136D01*
X0017920Y0142098D01*
X0017891Y0142061D01*
X0017859Y0142027D01*
X0017824Y0141996D01*
X0017787Y0141968D01*
X0017748Y0141943D01*
X0017706Y0141921D01*
X0017663Y0141903D01*
X0017619Y0141889D01*
X0017573Y0141878D01*
X0017527Y0141871D01*
X0017481Y0141868D01*
X0017434Y0141869D01*
X0017388Y0141874D01*
X0017342Y0141883D01*
X0017297Y0141895D01*
X0017253Y0141912D01*
X0017211Y0141931D01*
X0017171Y0141955D01*
X0017132Y0141981D01*
X0017096Y0142011D01*
X0017063Y0142044D01*
X0017032Y0142079D01*
X0017005Y0142117D01*
X0016981Y0142157D01*
X0016960Y0142198D01*
X0016943Y0142242D01*
X0016929Y0142286D01*
X0016920Y0142332D01*
X0016914Y0142378D01*
X0016912Y0142425D01*
X0025500Y0161476D02*
X0025500Y0172500D01*
X0038098Y0172500D01*
X0038098Y0161476D01*
X0025500Y0161476D01*
X0026912Y0170925D02*
X0026914Y0170972D01*
X0026920Y0171018D01*
X0026929Y0171064D01*
X0026943Y0171108D01*
X0026960Y0171152D01*
X0026981Y0171193D01*
X0027005Y0171233D01*
X0027032Y0171271D01*
X0027063Y0171306D01*
X0027096Y0171339D01*
X0027132Y0171369D01*
X0027171Y0171395D01*
X0027211Y0171419D01*
X0027253Y0171438D01*
X0027297Y0171455D01*
X0027342Y0171467D01*
X0027388Y0171476D01*
X0027434Y0171481D01*
X0027481Y0171482D01*
X0027527Y0171479D01*
X0027573Y0171472D01*
X0027619Y0171461D01*
X0027663Y0171447D01*
X0027706Y0171429D01*
X0027747Y0171407D01*
X0027787Y0171382D01*
X0027824Y0171354D01*
X0027859Y0171323D01*
X0027891Y0171289D01*
X0027920Y0171252D01*
X0027945Y0171214D01*
X0027968Y0171173D01*
X0027987Y0171130D01*
X0028002Y0171086D01*
X0028014Y0171041D01*
X0028022Y0170995D01*
X0028026Y0170948D01*
X0028026Y0170902D01*
X0028022Y0170855D01*
X0028014Y0170809D01*
X0028002Y0170764D01*
X0027987Y0170720D01*
X0027968Y0170677D01*
X0027945Y0170636D01*
X0027920Y0170598D01*
X0027891Y0170561D01*
X0027859Y0170527D01*
X0027824Y0170496D01*
X0027787Y0170468D01*
X0027748Y0170443D01*
X0027706Y0170421D01*
X0027663Y0170403D01*
X0027619Y0170389D01*
X0027573Y0170378D01*
X0027527Y0170371D01*
X0027481Y0170368D01*
X0027434Y0170369D01*
X0027388Y0170374D01*
X0027342Y0170383D01*
X0027297Y0170395D01*
X0027253Y0170412D01*
X0027211Y0170431D01*
X0027171Y0170455D01*
X0027132Y0170481D01*
X0027096Y0170511D01*
X0027063Y0170544D01*
X0027032Y0170579D01*
X0027005Y0170617D01*
X0026981Y0170657D01*
X0026960Y0170698D01*
X0026943Y0170742D01*
X0026929Y0170786D01*
X0026920Y0170832D01*
X0026914Y0170878D01*
X0026912Y0170925D01*
X0047500Y0184976D02*
X0047500Y0196000D01*
X0060098Y0196000D01*
X0060098Y0184976D01*
X0047500Y0184976D01*
X0048912Y0194425D02*
X0048914Y0194472D01*
X0048920Y0194518D01*
X0048929Y0194564D01*
X0048943Y0194608D01*
X0048960Y0194652D01*
X0048981Y0194693D01*
X0049005Y0194733D01*
X0049032Y0194771D01*
X0049063Y0194806D01*
X0049096Y0194839D01*
X0049132Y0194869D01*
X0049171Y0194895D01*
X0049211Y0194919D01*
X0049253Y0194938D01*
X0049297Y0194955D01*
X0049342Y0194967D01*
X0049388Y0194976D01*
X0049434Y0194981D01*
X0049481Y0194982D01*
X0049527Y0194979D01*
X0049573Y0194972D01*
X0049619Y0194961D01*
X0049663Y0194947D01*
X0049706Y0194929D01*
X0049747Y0194907D01*
X0049787Y0194882D01*
X0049824Y0194854D01*
X0049859Y0194823D01*
X0049891Y0194789D01*
X0049920Y0194752D01*
X0049945Y0194714D01*
X0049968Y0194673D01*
X0049987Y0194630D01*
X0050002Y0194586D01*
X0050014Y0194541D01*
X0050022Y0194495D01*
X0050026Y0194448D01*
X0050026Y0194402D01*
X0050022Y0194355D01*
X0050014Y0194309D01*
X0050002Y0194264D01*
X0049987Y0194220D01*
X0049968Y0194177D01*
X0049945Y0194136D01*
X0049920Y0194098D01*
X0049891Y0194061D01*
X0049859Y0194027D01*
X0049824Y0193996D01*
X0049787Y0193968D01*
X0049748Y0193943D01*
X0049706Y0193921D01*
X0049663Y0193903D01*
X0049619Y0193889D01*
X0049573Y0193878D01*
X0049527Y0193871D01*
X0049481Y0193868D01*
X0049434Y0193869D01*
X0049388Y0193874D01*
X0049342Y0193883D01*
X0049297Y0193895D01*
X0049253Y0193912D01*
X0049211Y0193931D01*
X0049171Y0193955D01*
X0049132Y0193981D01*
X0049096Y0194011D01*
X0049063Y0194044D01*
X0049032Y0194079D01*
X0049005Y0194117D01*
X0048981Y0194157D01*
X0048960Y0194198D01*
X0048943Y0194242D01*
X0048929Y0194286D01*
X0048920Y0194332D01*
X0048914Y0194378D01*
X0048912Y0194425D01*
X0080500Y0192976D02*
X0080500Y0204000D01*
X0093098Y0204000D01*
X0093098Y0192976D01*
X0080500Y0192976D01*
X0081912Y0202425D02*
X0081914Y0202472D01*
X0081920Y0202518D01*
X0081929Y0202564D01*
X0081943Y0202608D01*
X0081960Y0202652D01*
X0081981Y0202693D01*
X0082005Y0202733D01*
X0082032Y0202771D01*
X0082063Y0202806D01*
X0082096Y0202839D01*
X0082132Y0202869D01*
X0082171Y0202895D01*
X0082211Y0202919D01*
X0082253Y0202938D01*
X0082297Y0202955D01*
X0082342Y0202967D01*
X0082388Y0202976D01*
X0082434Y0202981D01*
X0082481Y0202982D01*
X0082527Y0202979D01*
X0082573Y0202972D01*
X0082619Y0202961D01*
X0082663Y0202947D01*
X0082706Y0202929D01*
X0082747Y0202907D01*
X0082787Y0202882D01*
X0082824Y0202854D01*
X0082859Y0202823D01*
X0082891Y0202789D01*
X0082920Y0202752D01*
X0082945Y0202714D01*
X0082968Y0202673D01*
X0082987Y0202630D01*
X0083002Y0202586D01*
X0083014Y0202541D01*
X0083022Y0202495D01*
X0083026Y0202448D01*
X0083026Y0202402D01*
X0083022Y0202355D01*
X0083014Y0202309D01*
X0083002Y0202264D01*
X0082987Y0202220D01*
X0082968Y0202177D01*
X0082945Y0202136D01*
X0082920Y0202098D01*
X0082891Y0202061D01*
X0082859Y0202027D01*
X0082824Y0201996D01*
X0082787Y0201968D01*
X0082748Y0201943D01*
X0082706Y0201921D01*
X0082663Y0201903D01*
X0082619Y0201889D01*
X0082573Y0201878D01*
X0082527Y0201871D01*
X0082481Y0201868D01*
X0082434Y0201869D01*
X0082388Y0201874D01*
X0082342Y0201883D01*
X0082297Y0201895D01*
X0082253Y0201912D01*
X0082211Y0201931D01*
X0082171Y0201955D01*
X0082132Y0201981D01*
X0082096Y0202011D01*
X0082063Y0202044D01*
X0082032Y0202079D01*
X0082005Y0202117D01*
X0081981Y0202157D01*
X0081960Y0202198D01*
X0081943Y0202242D01*
X0081929Y0202286D01*
X0081920Y0202332D01*
X0081914Y0202378D01*
X0081912Y0202425D01*
X0082000Y0233291D02*
X0082000Y0244709D01*
X0088299Y0244709D01*
X0088299Y0233291D01*
X0082000Y0233291D01*
X0085937Y0235063D02*
X0085939Y0235119D01*
X0085945Y0235174D01*
X0085955Y0235228D01*
X0085968Y0235282D01*
X0085986Y0235335D01*
X0086007Y0235386D01*
X0086031Y0235436D01*
X0086059Y0235484D01*
X0086091Y0235530D01*
X0086125Y0235574D01*
X0086163Y0235615D01*
X0086203Y0235653D01*
X0086246Y0235688D01*
X0086291Y0235720D01*
X0086339Y0235749D01*
X0086388Y0235775D01*
X0086439Y0235797D01*
X0086491Y0235815D01*
X0086545Y0235829D01*
X0086600Y0235840D01*
X0086655Y0235847D01*
X0086710Y0235850D01*
X0086766Y0235849D01*
X0086821Y0235844D01*
X0086876Y0235835D01*
X0086930Y0235823D01*
X0086983Y0235806D01*
X0087035Y0235786D01*
X0087085Y0235762D01*
X0087133Y0235735D01*
X0087180Y0235705D01*
X0087224Y0235671D01*
X0087266Y0235634D01*
X0087304Y0235594D01*
X0087341Y0235552D01*
X0087374Y0235507D01*
X0087403Y0235461D01*
X0087430Y0235412D01*
X0087452Y0235361D01*
X0087472Y0235309D01*
X0087487Y0235255D01*
X0087499Y0235201D01*
X0087507Y0235146D01*
X0087511Y0235091D01*
X0087511Y0235035D01*
X0087507Y0234980D01*
X0087499Y0234925D01*
X0087487Y0234871D01*
X0087472Y0234817D01*
X0087452Y0234765D01*
X0087430Y0234714D01*
X0087403Y0234665D01*
X0087374Y0234619D01*
X0087341Y0234574D01*
X0087304Y0234532D01*
X0087266Y0234492D01*
X0087224Y0234455D01*
X0087180Y0234421D01*
X0087133Y0234391D01*
X0087085Y0234364D01*
X0087035Y0234340D01*
X0086983Y0234320D01*
X0086930Y0234303D01*
X0086876Y0234291D01*
X0086821Y0234282D01*
X0086766Y0234277D01*
X0086710Y0234276D01*
X0086655Y0234279D01*
X0086600Y0234286D01*
X0086545Y0234297D01*
X0086491Y0234311D01*
X0086439Y0234329D01*
X0086388Y0234351D01*
X0086339Y0234377D01*
X0086291Y0234406D01*
X0086246Y0234438D01*
X0086203Y0234473D01*
X0086163Y0234511D01*
X0086125Y0234552D01*
X0086091Y0234596D01*
X0086059Y0234642D01*
X0086031Y0234690D01*
X0086007Y0234740D01*
X0085986Y0234791D01*
X0085968Y0234844D01*
X0085955Y0234898D01*
X0085945Y0234952D01*
X0085939Y0235007D01*
X0085937Y0235063D01*
X0086500Y0264500D02*
X0076500Y0264500D01*
X0076500Y0274500D01*
X0066500Y0274500D01*
X0066500Y0264500D01*
X0056500Y0264500D01*
X0056500Y0274500D01*
X0066500Y0274500D01*
X0066500Y0264500D01*
X0076500Y0264500D01*
X0076500Y0274500D01*
X0086500Y0274500D01*
X0086500Y0264500D01*
X0114000Y0194000D02*
X0114000Y0182976D01*
X0126598Y0182976D01*
X0126598Y0194000D01*
X0114000Y0194000D01*
X0115412Y0192425D02*
X0115414Y0192472D01*
X0115420Y0192518D01*
X0115429Y0192564D01*
X0115443Y0192608D01*
X0115460Y0192652D01*
X0115481Y0192693D01*
X0115505Y0192733D01*
X0115532Y0192771D01*
X0115563Y0192806D01*
X0115596Y0192839D01*
X0115632Y0192869D01*
X0115671Y0192895D01*
X0115711Y0192919D01*
X0115753Y0192938D01*
X0115797Y0192955D01*
X0115842Y0192967D01*
X0115888Y0192976D01*
X0115934Y0192981D01*
X0115981Y0192982D01*
X0116027Y0192979D01*
X0116073Y0192972D01*
X0116119Y0192961D01*
X0116163Y0192947D01*
X0116206Y0192929D01*
X0116247Y0192907D01*
X0116287Y0192882D01*
X0116324Y0192854D01*
X0116359Y0192823D01*
X0116391Y0192789D01*
X0116420Y0192752D01*
X0116445Y0192714D01*
X0116468Y0192673D01*
X0116487Y0192630D01*
X0116502Y0192586D01*
X0116514Y0192541D01*
X0116522Y0192495D01*
X0116526Y0192448D01*
X0116526Y0192402D01*
X0116522Y0192355D01*
X0116514Y0192309D01*
X0116502Y0192264D01*
X0116487Y0192220D01*
X0116468Y0192177D01*
X0116445Y0192136D01*
X0116420Y0192098D01*
X0116391Y0192061D01*
X0116359Y0192027D01*
X0116324Y0191996D01*
X0116287Y0191968D01*
X0116248Y0191943D01*
X0116206Y0191921D01*
X0116163Y0191903D01*
X0116119Y0191889D01*
X0116073Y0191878D01*
X0116027Y0191871D01*
X0115981Y0191868D01*
X0115934Y0191869D01*
X0115888Y0191874D01*
X0115842Y0191883D01*
X0115797Y0191895D01*
X0115753Y0191912D01*
X0115711Y0191931D01*
X0115671Y0191955D01*
X0115632Y0191981D01*
X0115596Y0192011D01*
X0115563Y0192044D01*
X0115532Y0192079D01*
X0115505Y0192117D01*
X0115481Y0192157D01*
X0115460Y0192198D01*
X0115443Y0192242D01*
X0115429Y0192286D01*
X0115420Y0192332D01*
X0115414Y0192378D01*
X0115412Y0192425D01*
X0135902Y0168524D02*
X0148500Y0168524D01*
X0148500Y0157500D01*
X0135902Y0157500D01*
X0135902Y0168524D01*
X0145974Y0159075D02*
X0145976Y0159122D01*
X0145982Y0159168D01*
X0145991Y0159214D01*
X0146005Y0159258D01*
X0146022Y0159302D01*
X0146043Y0159343D01*
X0146067Y0159383D01*
X0146094Y0159421D01*
X0146125Y0159456D01*
X0146158Y0159489D01*
X0146194Y0159519D01*
X0146233Y0159545D01*
X0146273Y0159569D01*
X0146315Y0159588D01*
X0146359Y0159605D01*
X0146404Y0159617D01*
X0146450Y0159626D01*
X0146496Y0159631D01*
X0146543Y0159632D01*
X0146589Y0159629D01*
X0146635Y0159622D01*
X0146681Y0159611D01*
X0146725Y0159597D01*
X0146768Y0159579D01*
X0146809Y0159557D01*
X0146849Y0159532D01*
X0146886Y0159504D01*
X0146921Y0159473D01*
X0146953Y0159439D01*
X0146982Y0159402D01*
X0147007Y0159364D01*
X0147030Y0159323D01*
X0147049Y0159280D01*
X0147064Y0159236D01*
X0147076Y0159191D01*
X0147084Y0159145D01*
X0147088Y0159098D01*
X0147088Y0159052D01*
X0147084Y0159005D01*
X0147076Y0158959D01*
X0147064Y0158914D01*
X0147049Y0158870D01*
X0147030Y0158827D01*
X0147007Y0158786D01*
X0146982Y0158748D01*
X0146953Y0158711D01*
X0146921Y0158677D01*
X0146886Y0158646D01*
X0146849Y0158618D01*
X0146810Y0158593D01*
X0146768Y0158571D01*
X0146725Y0158553D01*
X0146681Y0158539D01*
X0146635Y0158528D01*
X0146589Y0158521D01*
X0146543Y0158518D01*
X0146496Y0158519D01*
X0146450Y0158524D01*
X0146404Y0158533D01*
X0146359Y0158545D01*
X0146315Y0158562D01*
X0146273Y0158581D01*
X0146233Y0158605D01*
X0146194Y0158631D01*
X0146158Y0158661D01*
X0146125Y0158694D01*
X0146094Y0158729D01*
X0146067Y0158767D01*
X0146043Y0158807D01*
X0146022Y0158848D01*
X0146005Y0158892D01*
X0145991Y0158936D01*
X0145982Y0158982D01*
X0145976Y0159028D01*
X0145974Y0159075D01*
X0141902Y0143524D02*
X0154500Y0143524D01*
X0154500Y0132500D01*
X0141902Y0132500D01*
X0141902Y0143524D01*
X0151974Y0134075D02*
X0151976Y0134122D01*
X0151982Y0134168D01*
X0151991Y0134214D01*
X0152005Y0134258D01*
X0152022Y0134302D01*
X0152043Y0134343D01*
X0152067Y0134383D01*
X0152094Y0134421D01*
X0152125Y0134456D01*
X0152158Y0134489D01*
X0152194Y0134519D01*
X0152233Y0134545D01*
X0152273Y0134569D01*
X0152315Y0134588D01*
X0152359Y0134605D01*
X0152404Y0134617D01*
X0152450Y0134626D01*
X0152496Y0134631D01*
X0152543Y0134632D01*
X0152589Y0134629D01*
X0152635Y0134622D01*
X0152681Y0134611D01*
X0152725Y0134597D01*
X0152768Y0134579D01*
X0152809Y0134557D01*
X0152849Y0134532D01*
X0152886Y0134504D01*
X0152921Y0134473D01*
X0152953Y0134439D01*
X0152982Y0134402D01*
X0153007Y0134364D01*
X0153030Y0134323D01*
X0153049Y0134280D01*
X0153064Y0134236D01*
X0153076Y0134191D01*
X0153084Y0134145D01*
X0153088Y0134098D01*
X0153088Y0134052D01*
X0153084Y0134005D01*
X0153076Y0133959D01*
X0153064Y0133914D01*
X0153049Y0133870D01*
X0153030Y0133827D01*
X0153007Y0133786D01*
X0152982Y0133748D01*
X0152953Y0133711D01*
X0152921Y0133677D01*
X0152886Y0133646D01*
X0152849Y0133618D01*
X0152810Y0133593D01*
X0152768Y0133571D01*
X0152725Y0133553D01*
X0152681Y0133539D01*
X0152635Y0133528D01*
X0152589Y0133521D01*
X0152543Y0133518D01*
X0152496Y0133519D01*
X0152450Y0133524D01*
X0152404Y0133533D01*
X0152359Y0133545D01*
X0152315Y0133562D01*
X0152273Y0133581D01*
X0152233Y0133605D01*
X0152194Y0133631D01*
X0152158Y0133661D01*
X0152125Y0133694D01*
X0152094Y0133729D01*
X0152067Y0133767D01*
X0152043Y0133807D01*
X0152022Y0133848D01*
X0152005Y0133892D01*
X0151991Y0133936D01*
X0151982Y0133982D01*
X0151976Y0134028D01*
X0151974Y0134075D01*
X0144000Y0115024D02*
X0131402Y0115024D01*
X0131402Y0104000D01*
X0144000Y0104000D01*
X0144000Y0115024D01*
X0141474Y0105575D02*
X0141476Y0105622D01*
X0141482Y0105668D01*
X0141491Y0105714D01*
X0141505Y0105758D01*
X0141522Y0105802D01*
X0141543Y0105843D01*
X0141567Y0105883D01*
X0141594Y0105921D01*
X0141625Y0105956D01*
X0141658Y0105989D01*
X0141694Y0106019D01*
X0141733Y0106045D01*
X0141773Y0106069D01*
X0141815Y0106088D01*
X0141859Y0106105D01*
X0141904Y0106117D01*
X0141950Y0106126D01*
X0141996Y0106131D01*
X0142043Y0106132D01*
X0142089Y0106129D01*
X0142135Y0106122D01*
X0142181Y0106111D01*
X0142225Y0106097D01*
X0142268Y0106079D01*
X0142309Y0106057D01*
X0142349Y0106032D01*
X0142386Y0106004D01*
X0142421Y0105973D01*
X0142453Y0105939D01*
X0142482Y0105902D01*
X0142507Y0105864D01*
X0142530Y0105823D01*
X0142549Y0105780D01*
X0142564Y0105736D01*
X0142576Y0105691D01*
X0142584Y0105645D01*
X0142588Y0105598D01*
X0142588Y0105552D01*
X0142584Y0105505D01*
X0142576Y0105459D01*
X0142564Y0105414D01*
X0142549Y0105370D01*
X0142530Y0105327D01*
X0142507Y0105286D01*
X0142482Y0105248D01*
X0142453Y0105211D01*
X0142421Y0105177D01*
X0142386Y0105146D01*
X0142349Y0105118D01*
X0142310Y0105093D01*
X0142268Y0105071D01*
X0142225Y0105053D01*
X0142181Y0105039D01*
X0142135Y0105028D01*
X0142089Y0105021D01*
X0142043Y0105018D01*
X0141996Y0105019D01*
X0141950Y0105024D01*
X0141904Y0105033D01*
X0141859Y0105045D01*
X0141815Y0105062D01*
X0141773Y0105081D01*
X0141733Y0105105D01*
X0141694Y0105131D01*
X0141658Y0105161D01*
X0141625Y0105194D01*
X0141594Y0105229D01*
X0141567Y0105267D01*
X0141543Y0105307D01*
X0141522Y0105348D01*
X0141505Y0105392D01*
X0141491Y0105436D01*
X0141482Y0105482D01*
X0141476Y0105528D01*
X0141474Y0105575D01*
X0122000Y0093524D02*
X0122000Y0082500D01*
X0109402Y0082500D01*
X0109402Y0093524D01*
X0122000Y0093524D01*
X0119474Y0084075D02*
X0119476Y0084122D01*
X0119482Y0084168D01*
X0119491Y0084214D01*
X0119505Y0084258D01*
X0119522Y0084302D01*
X0119543Y0084343D01*
X0119567Y0084383D01*
X0119594Y0084421D01*
X0119625Y0084456D01*
X0119658Y0084489D01*
X0119694Y0084519D01*
X0119733Y0084545D01*
X0119773Y0084569D01*
X0119815Y0084588D01*
X0119859Y0084605D01*
X0119904Y0084617D01*
X0119950Y0084626D01*
X0119996Y0084631D01*
X0120043Y0084632D01*
X0120089Y0084629D01*
X0120135Y0084622D01*
X0120181Y0084611D01*
X0120225Y0084597D01*
X0120268Y0084579D01*
X0120309Y0084557D01*
X0120349Y0084532D01*
X0120386Y0084504D01*
X0120421Y0084473D01*
X0120453Y0084439D01*
X0120482Y0084402D01*
X0120507Y0084364D01*
X0120530Y0084323D01*
X0120549Y0084280D01*
X0120564Y0084236D01*
X0120576Y0084191D01*
X0120584Y0084145D01*
X0120588Y0084098D01*
X0120588Y0084052D01*
X0120584Y0084005D01*
X0120576Y0083959D01*
X0120564Y0083914D01*
X0120549Y0083870D01*
X0120530Y0083827D01*
X0120507Y0083786D01*
X0120482Y0083748D01*
X0120453Y0083711D01*
X0120421Y0083677D01*
X0120386Y0083646D01*
X0120349Y0083618D01*
X0120310Y0083593D01*
X0120268Y0083571D01*
X0120225Y0083553D01*
X0120181Y0083539D01*
X0120135Y0083528D01*
X0120089Y0083521D01*
X0120043Y0083518D01*
X0119996Y0083519D01*
X0119950Y0083524D01*
X0119904Y0083533D01*
X0119859Y0083545D01*
X0119815Y0083562D01*
X0119773Y0083581D01*
X0119733Y0083605D01*
X0119694Y0083631D01*
X0119658Y0083661D01*
X0119625Y0083694D01*
X0119594Y0083729D01*
X0119567Y0083767D01*
X0119543Y0083807D01*
X0119522Y0083848D01*
X0119505Y0083892D01*
X0119491Y0083936D01*
X0119482Y0083982D01*
X0119476Y0084028D01*
X0119474Y0084075D01*
X0101248Y0123252D02*
X0069752Y0123252D01*
X0069752Y0154748D01*
X0101248Y0154748D01*
X0101248Y0123252D01*
X0071721Y0151795D02*
X0071723Y0151857D01*
X0071729Y0151920D01*
X0071739Y0151981D01*
X0071753Y0152042D01*
X0071770Y0152102D01*
X0071791Y0152161D01*
X0071817Y0152218D01*
X0071845Y0152273D01*
X0071877Y0152327D01*
X0071913Y0152378D01*
X0071951Y0152428D01*
X0071993Y0152474D01*
X0072037Y0152518D01*
X0072085Y0152559D01*
X0072134Y0152597D01*
X0072186Y0152631D01*
X0072240Y0152662D01*
X0072296Y0152690D01*
X0072354Y0152714D01*
X0072413Y0152735D01*
X0072473Y0152751D01*
X0072534Y0152764D01*
X0072596Y0152773D01*
X0072658Y0152778D01*
X0072721Y0152779D01*
X0072783Y0152776D01*
X0072845Y0152769D01*
X0072907Y0152758D01*
X0072967Y0152743D01*
X0073027Y0152725D01*
X0073085Y0152703D01*
X0073142Y0152677D01*
X0073197Y0152647D01*
X0073250Y0152614D01*
X0073301Y0152578D01*
X0073349Y0152539D01*
X0073395Y0152496D01*
X0073438Y0152451D01*
X0073478Y0152403D01*
X0073515Y0152353D01*
X0073549Y0152300D01*
X0073580Y0152246D01*
X0073606Y0152190D01*
X0073630Y0152132D01*
X0073649Y0152072D01*
X0073665Y0152012D01*
X0073677Y0151950D01*
X0073685Y0151889D01*
X0073689Y0151826D01*
X0073689Y0151764D01*
X0073685Y0151701D01*
X0073677Y0151640D01*
X0073665Y0151578D01*
X0073649Y0151518D01*
X0073630Y0151458D01*
X0073606Y0151400D01*
X0073580Y0151344D01*
X0073549Y0151290D01*
X0073515Y0151237D01*
X0073478Y0151187D01*
X0073438Y0151139D01*
X0073395Y0151094D01*
X0073349Y0151051D01*
X0073301Y0151012D01*
X0073250Y0150976D01*
X0073197Y0150943D01*
X0073142Y0150913D01*
X0073085Y0150887D01*
X0073027Y0150865D01*
X0072967Y0150847D01*
X0072907Y0150832D01*
X0072845Y0150821D01*
X0072783Y0150814D01*
X0072721Y0150811D01*
X0072658Y0150812D01*
X0072596Y0150817D01*
X0072534Y0150826D01*
X0072473Y0150839D01*
X0072413Y0150855D01*
X0072354Y0150876D01*
X0072296Y0150900D01*
X0072240Y0150928D01*
X0072186Y0150959D01*
X0072134Y0150993D01*
X0072085Y0151031D01*
X0072037Y0151072D01*
X0071993Y0151116D01*
X0071951Y0151162D01*
X0071913Y0151212D01*
X0071877Y0151263D01*
X0071845Y0151317D01*
X0071817Y0151372D01*
X0071791Y0151429D01*
X0071770Y0151488D01*
X0071753Y0151548D01*
X0071739Y0151609D01*
X0071729Y0151670D01*
X0071723Y0151733D01*
X0071721Y0151795D01*
X0177000Y0141500D02*
X0177000Y0131500D01*
X0187000Y0131500D01*
X0187000Y0121500D01*
X0177000Y0121500D01*
X0177000Y0131500D01*
X0187000Y0131500D01*
X0187000Y0141500D01*
X0177000Y0141500D01*
X0190000Y0158500D02*
X0200000Y0158500D01*
X0200000Y0168500D01*
X0190000Y0168500D01*
X0190000Y0158500D01*
X0190000Y0168500D02*
X0200000Y0168500D01*
X0200000Y0178500D01*
X0190000Y0178500D01*
X0190000Y0168500D01*
X0190000Y0178500D02*
X0200000Y0178500D01*
X0200000Y0188500D01*
X0190000Y0188500D01*
X0190000Y0178500D01*
X0187500Y0121500D02*
X0177500Y0121500D01*
X0177500Y0111500D01*
X0187500Y0111500D01*
X0187500Y0101500D01*
X0177500Y0101500D01*
X0177500Y0111500D01*
X0187500Y0111500D01*
X0187500Y0121500D01*
D13*
X0183358Y0099804D02*
X0181824Y0098269D01*
X0183358Y0099804D02*
X0183358Y0095200D01*
X0181824Y0095200D02*
X0184893Y0095200D01*
X0180289Y0095200D02*
X0177987Y0097502D01*
X0177220Y0096735D02*
X0180289Y0099804D01*
X0177220Y0099804D02*
X0177220Y0095200D01*
X0175685Y0095967D02*
X0174918Y0095200D01*
X0173383Y0095200D01*
X0172616Y0095967D01*
X0172616Y0099037D01*
X0173383Y0099804D01*
X0174918Y0099804D01*
X0175685Y0099037D01*
X0171081Y0099037D02*
X0171081Y0095967D01*
X0170314Y0095200D01*
X0168779Y0095200D01*
X0168012Y0095967D01*
X0168012Y0099037D01*
X0168779Y0099804D01*
X0170314Y0099804D01*
X0171081Y0099037D01*
X0166477Y0095200D02*
X0163408Y0095200D01*
X0163408Y0099804D01*
X0161873Y0099037D02*
X0161106Y0099804D01*
X0159571Y0099804D01*
X0158804Y0099037D01*
X0158804Y0095967D01*
X0159571Y0095200D01*
X0161106Y0095200D01*
X0161873Y0095967D01*
X0157269Y0095200D02*
X0155735Y0096735D01*
X0156502Y0096735D02*
X0154200Y0096735D01*
X0154200Y0095200D02*
X0154200Y0099804D01*
X0156502Y0099804D01*
X0157269Y0099037D01*
X0157269Y0097502D01*
X0156502Y0096735D01*
X0157700Y0082804D02*
X0160002Y0082804D01*
X0160769Y0082037D01*
X0160769Y0080502D01*
X0160002Y0079735D01*
X0157700Y0079735D01*
X0159235Y0079735D02*
X0160769Y0078200D01*
X0162304Y0078967D02*
X0163071Y0078200D01*
X0164606Y0078200D01*
X0165373Y0078967D01*
X0166908Y0078200D02*
X0169977Y0078200D01*
X0171512Y0078967D02*
X0171512Y0082037D01*
X0172279Y0082804D01*
X0173814Y0082804D01*
X0174581Y0082037D01*
X0174581Y0078967D01*
X0173814Y0078200D01*
X0172279Y0078200D01*
X0171512Y0078967D01*
X0176116Y0078967D02*
X0176116Y0082037D01*
X0176883Y0082804D01*
X0178418Y0082804D01*
X0179185Y0082037D01*
X0180720Y0082804D02*
X0180720Y0078200D01*
X0180720Y0079735D02*
X0183789Y0082804D01*
X0185324Y0082037D02*
X0186091Y0082804D01*
X0187626Y0082804D01*
X0188393Y0082037D01*
X0188393Y0081269D01*
X0185324Y0078200D01*
X0188393Y0078200D01*
X0183789Y0078200D02*
X0181487Y0080502D01*
X0179185Y0078967D02*
X0178418Y0078200D01*
X0176883Y0078200D01*
X0176116Y0078967D01*
X0166908Y0078200D02*
X0166908Y0082804D01*
X0165373Y0082037D02*
X0164606Y0082804D01*
X0163071Y0082804D01*
X0162304Y0082037D01*
X0162304Y0078967D01*
X0157700Y0078200D02*
X0157700Y0082804D01*
X0158967Y0063304D02*
X0158200Y0062537D01*
X0158200Y0059467D01*
X0158967Y0058700D01*
X0160502Y0058700D01*
X0161269Y0059467D01*
X0162804Y0059467D02*
X0163571Y0058700D01*
X0165106Y0058700D01*
X0165873Y0059467D01*
X0167408Y0058700D02*
X0170477Y0058700D01*
X0172012Y0058700D02*
X0172012Y0063304D01*
X0172779Y0061002D02*
X0175081Y0058700D01*
X0176616Y0058700D02*
X0179685Y0061769D01*
X0179685Y0062537D01*
X0178918Y0063304D01*
X0177383Y0063304D01*
X0176616Y0062537D01*
X0175081Y0063304D02*
X0172012Y0060235D01*
X0176616Y0058700D02*
X0179685Y0058700D01*
X0167408Y0058700D02*
X0167408Y0063304D01*
X0165873Y0062537D02*
X0165106Y0063304D01*
X0163571Y0063304D01*
X0162804Y0062537D01*
X0162804Y0059467D01*
X0161269Y0062537D02*
X0160502Y0063304D01*
X0158967Y0063304D01*
X0158467Y0042804D02*
X0157700Y0042037D01*
X0157700Y0038967D01*
X0158467Y0038200D01*
X0160002Y0038200D01*
X0160769Y0038967D01*
X0162304Y0038967D02*
X0163071Y0038200D01*
X0164606Y0038200D01*
X0165373Y0038967D01*
X0166908Y0038200D02*
X0169977Y0038200D01*
X0171512Y0038200D02*
X0171512Y0042804D01*
X0172279Y0040502D02*
X0174581Y0038200D01*
X0176116Y0038200D02*
X0179185Y0038200D01*
X0177650Y0038200D02*
X0177650Y0042804D01*
X0176116Y0041269D01*
X0174581Y0042804D02*
X0171512Y0039735D01*
X0166908Y0038200D02*
X0166908Y0042804D01*
X0165373Y0042037D02*
X0164606Y0042804D01*
X0163071Y0042804D01*
X0162304Y0042037D01*
X0162304Y0038967D01*
X0160769Y0042037D02*
X0160002Y0042804D01*
X0158467Y0042804D01*
X0084977Y0063735D02*
X0083442Y0062200D01*
X0081908Y0063735D01*
X0081908Y0066804D01*
X0080373Y0066037D02*
X0080373Y0065269D01*
X0079606Y0064502D01*
X0080373Y0063735D01*
X0080373Y0062967D01*
X0079606Y0062200D01*
X0078071Y0062200D01*
X0077304Y0062967D01*
X0075769Y0062967D02*
X0075002Y0062200D01*
X0073467Y0062200D01*
X0072700Y0062967D01*
X0072700Y0066037D01*
X0073467Y0066804D01*
X0075002Y0066804D01*
X0075769Y0066037D01*
X0077304Y0066037D02*
X0078071Y0066804D01*
X0079606Y0066804D01*
X0080373Y0066037D01*
X0079606Y0064502D02*
X0078839Y0064502D01*
X0084977Y0063735D02*
X0084977Y0066804D01*
X0062977Y0067304D02*
X0062977Y0064235D01*
X0061442Y0062700D01*
X0059908Y0064235D01*
X0059908Y0067304D01*
X0058373Y0067304D02*
X0055304Y0067304D01*
X0055304Y0065002D01*
X0056839Y0065769D01*
X0057606Y0065769D01*
X0058373Y0065002D01*
X0058373Y0063467D01*
X0057606Y0062700D01*
X0056071Y0062700D01*
X0055304Y0063467D01*
X0053769Y0063467D02*
X0053002Y0062700D01*
X0051467Y0062700D01*
X0050700Y0063467D01*
X0050700Y0066537D01*
X0051467Y0067304D01*
X0053002Y0067304D01*
X0053769Y0066537D01*
X0148967Y0211200D02*
X0150502Y0211200D01*
X0151269Y0211967D01*
X0152804Y0212735D02*
X0154339Y0211200D01*
X0155873Y0212735D01*
X0155873Y0215804D01*
X0157408Y0215804D02*
X0158942Y0215804D01*
X0158175Y0215804D02*
X0158175Y0211200D01*
X0157408Y0211200D02*
X0158942Y0211200D01*
X0160477Y0211200D02*
X0160477Y0215804D01*
X0163546Y0211200D01*
X0163546Y0215804D01*
X0152804Y0215804D02*
X0152804Y0212735D01*
X0151269Y0215037D02*
X0150502Y0215804D01*
X0148967Y0215804D01*
X0148200Y0215037D01*
X0148200Y0211967D01*
X0148967Y0211200D01*
X0148200Y0235200D02*
X0148200Y0239804D01*
X0150502Y0239804D01*
X0151269Y0239037D01*
X0151269Y0237502D01*
X0150502Y0236735D01*
X0148200Y0236735D01*
X0149735Y0236735D02*
X0151269Y0235200D01*
X0152804Y0237502D02*
X0155873Y0237502D01*
X0155606Y0257700D02*
X0156373Y0258467D01*
X0156373Y0260002D01*
X0154839Y0260002D01*
X0156373Y0261537D02*
X0155606Y0262304D01*
X0154071Y0262304D01*
X0153304Y0261537D01*
X0153304Y0258467D01*
X0154071Y0257700D01*
X0155606Y0257700D01*
X0157908Y0257700D02*
X0157908Y0260769D01*
X0159442Y0262304D01*
X0160977Y0260769D01*
X0160977Y0257700D01*
X0162512Y0257700D02*
X0164046Y0257700D01*
X0163279Y0257700D02*
X0163279Y0262304D01*
X0162512Y0262304D02*
X0164046Y0262304D01*
X0165581Y0262304D02*
X0168650Y0257700D01*
X0168650Y0262304D01*
X0165581Y0262304D02*
X0165581Y0257700D01*
X0160977Y0260002D02*
X0157908Y0260002D01*
X0151769Y0260002D02*
X0151002Y0259235D01*
X0148700Y0259235D01*
X0150235Y0259235D02*
X0151769Y0257700D01*
X0151769Y0260002D02*
X0151769Y0261537D01*
X0151002Y0262304D01*
X0148700Y0262304D01*
X0148700Y0257700D01*
X0116665Y0245200D02*
X0113596Y0245200D01*
X0115131Y0245200D02*
X0115131Y0249804D01*
X0113596Y0248269D01*
X0112061Y0249037D02*
X0111294Y0249804D01*
X0109759Y0249804D01*
X0108992Y0249037D01*
X0108992Y0245967D01*
X0109759Y0245200D01*
X0111294Y0245200D01*
X0112061Y0245967D01*
X0107457Y0245967D02*
X0107457Y0249037D01*
X0106690Y0249804D01*
X0104388Y0249804D01*
X0104388Y0245200D01*
X0106690Y0245200D01*
X0107457Y0245967D01*
X0102854Y0245200D02*
X0102854Y0248269D01*
X0101319Y0249804D01*
X0099784Y0248269D01*
X0099784Y0245200D01*
X0098250Y0245967D02*
X0097482Y0245200D01*
X0095948Y0245200D01*
X0095180Y0245967D01*
X0095180Y0249037D01*
X0095948Y0249804D01*
X0097482Y0249804D01*
X0098250Y0249037D01*
X0099784Y0247502D02*
X0102854Y0247502D01*
X0104388Y0234804D02*
X0106690Y0234804D01*
X0107457Y0234037D01*
X0107457Y0230967D01*
X0106690Y0230200D01*
X0104388Y0230200D01*
X0104388Y0234804D01*
X0102854Y0233269D02*
X0102854Y0230200D01*
X0102854Y0232502D02*
X0099784Y0232502D01*
X0099784Y0233269D02*
X0101319Y0234804D01*
X0102854Y0233269D01*
X0099784Y0233269D02*
X0099784Y0230200D01*
X0098250Y0230967D02*
X0097482Y0230200D01*
X0095948Y0230200D01*
X0095180Y0230967D01*
X0095180Y0234037D01*
X0095948Y0234804D01*
X0097482Y0234804D01*
X0098250Y0234037D01*
X0108992Y0234037D02*
X0108992Y0230967D01*
X0109759Y0230200D01*
X0111294Y0230200D01*
X0112061Y0230967D01*
X0113596Y0230200D02*
X0116665Y0233269D01*
X0116665Y0234037D01*
X0115898Y0234804D01*
X0114363Y0234804D01*
X0113596Y0234037D01*
X0112061Y0234037D02*
X0111294Y0234804D01*
X0109759Y0234804D01*
X0108992Y0234037D01*
X0113596Y0230200D02*
X0116665Y0230200D01*
X0113665Y0265700D02*
X0113665Y0270304D01*
X0110596Y0270304D02*
X0113665Y0265700D01*
X0110596Y0265700D02*
X0110596Y0270304D01*
X0109061Y0270304D02*
X0107527Y0270304D01*
X0108294Y0270304D02*
X0108294Y0265700D01*
X0107527Y0265700D02*
X0109061Y0265700D01*
X0105992Y0267235D02*
X0105992Y0270304D01*
X0102923Y0270304D02*
X0102923Y0267235D01*
X0104457Y0265700D01*
X0105992Y0267235D01*
X0101388Y0268002D02*
X0100621Y0267235D01*
X0098319Y0267235D01*
X0099854Y0267235D02*
X0101388Y0265700D01*
X0101388Y0268002D02*
X0101388Y0269537D01*
X0100621Y0270304D01*
X0098319Y0270304D01*
X0098319Y0265700D01*
X0055789Y0257269D02*
X0055789Y0254200D01*
X0055789Y0256502D02*
X0052720Y0256502D01*
X0052720Y0257269D02*
X0054254Y0258804D01*
X0055789Y0257269D01*
X0052720Y0257269D02*
X0052720Y0254200D01*
X0049650Y0254200D02*
X0049650Y0258804D01*
X0048116Y0258804D02*
X0051185Y0258804D01*
X0046581Y0257269D02*
X0046581Y0254200D01*
X0046581Y0256502D02*
X0043512Y0256502D01*
X0043512Y0257269D02*
X0045046Y0258804D01*
X0046581Y0257269D01*
X0043512Y0257269D02*
X0043512Y0254200D01*
X0041977Y0254967D02*
X0041977Y0258037D01*
X0041210Y0258804D01*
X0038908Y0258804D01*
X0038908Y0254200D01*
X0041210Y0254200D01*
X0041977Y0254967D01*
X0037373Y0254967D02*
X0037373Y0255735D01*
X0036606Y0256502D01*
X0035071Y0256502D01*
X0034304Y0257269D01*
X0034304Y0258037D01*
X0035071Y0258804D01*
X0036606Y0258804D01*
X0037373Y0258037D01*
X0037363Y0261200D02*
X0036596Y0261967D01*
X0037363Y0261200D02*
X0038898Y0261200D01*
X0039665Y0261967D01*
X0039665Y0262735D01*
X0038898Y0263502D01*
X0037363Y0263502D01*
X0036596Y0264269D01*
X0036596Y0265037D01*
X0037363Y0265804D01*
X0038898Y0265804D01*
X0039665Y0265037D01*
X0035061Y0265037D02*
X0034294Y0265804D01*
X0032759Y0265804D01*
X0031992Y0265037D01*
X0031992Y0261967D01*
X0032759Y0261200D01*
X0034294Y0261200D01*
X0035061Y0261967D01*
X0032002Y0258804D02*
X0032769Y0258037D01*
X0032769Y0256502D01*
X0032002Y0255735D01*
X0029700Y0255735D01*
X0031235Y0255735D02*
X0032769Y0254200D01*
X0034304Y0254967D02*
X0035071Y0254200D01*
X0036606Y0254200D01*
X0037373Y0254967D01*
X0032002Y0258804D02*
X0029700Y0258804D01*
X0029700Y0254200D01*
X0030457Y0261200D02*
X0028923Y0262735D01*
X0029690Y0262735D02*
X0027388Y0262735D01*
X0027388Y0261200D02*
X0027388Y0265804D01*
X0029690Y0265804D01*
X0030457Y0265037D01*
X0030457Y0263502D01*
X0029690Y0262735D01*
X0029700Y0237304D02*
X0032002Y0237304D01*
X0032769Y0236537D01*
X0032769Y0235002D01*
X0032002Y0234235D01*
X0029700Y0234235D01*
X0031235Y0234235D02*
X0032769Y0232700D01*
X0034304Y0233467D02*
X0035071Y0232700D01*
X0036606Y0232700D01*
X0037373Y0233467D01*
X0037373Y0234235D01*
X0036606Y0235002D01*
X0035071Y0235002D01*
X0034304Y0235769D01*
X0034304Y0236537D01*
X0035071Y0237304D01*
X0036606Y0237304D01*
X0037373Y0236537D01*
X0038908Y0236537D02*
X0038908Y0233467D01*
X0039675Y0232700D01*
X0041210Y0232700D01*
X0041977Y0233467D01*
X0043512Y0232700D02*
X0046581Y0232700D01*
X0048116Y0232700D02*
X0048116Y0237304D01*
X0048883Y0235002D02*
X0051185Y0232700D01*
X0048116Y0234235D02*
X0051185Y0237304D01*
X0043512Y0237304D02*
X0043512Y0232700D01*
X0041977Y0236537D02*
X0041210Y0237304D01*
X0039675Y0237304D01*
X0038908Y0236537D01*
X0029700Y0237304D02*
X0029700Y0232700D01*
X0212319Y0256967D02*
X0213086Y0256200D01*
X0214621Y0256200D01*
X0215388Y0256967D01*
X0216923Y0256200D02*
X0218457Y0256200D01*
X0217690Y0256200D02*
X0217690Y0260804D01*
X0216923Y0260804D02*
X0218457Y0260804D01*
X0219992Y0260804D02*
X0219992Y0256200D01*
X0219200Y0253304D02*
X0221502Y0253304D01*
X0222269Y0252537D01*
X0222269Y0251002D01*
X0221502Y0250235D01*
X0219200Y0250235D01*
X0220735Y0250235D02*
X0222269Y0248700D01*
X0223804Y0248700D02*
X0225339Y0248700D01*
X0224571Y0248700D02*
X0224571Y0253304D01*
X0223804Y0253304D02*
X0225339Y0253304D01*
X0226873Y0253304D02*
X0229942Y0248700D01*
X0229942Y0253304D01*
X0226873Y0253304D02*
X0226873Y0248700D01*
X0226131Y0256200D02*
X0226131Y0260804D01*
X0224596Y0259269D01*
X0223061Y0260804D02*
X0223061Y0256200D01*
X0219992Y0260804D01*
X0224596Y0256200D02*
X0227665Y0256200D01*
X0219200Y0253304D02*
X0219200Y0248700D01*
X0212319Y0256967D02*
X0212319Y0260037D01*
X0213086Y0260804D01*
X0214621Y0260804D01*
X0215388Y0260037D01*
X0216700Y0216304D02*
X0219002Y0216304D01*
X0219769Y0215537D01*
X0219769Y0214002D01*
X0219002Y0213235D01*
X0216700Y0213235D01*
X0218235Y0213235D02*
X0219769Y0211700D01*
X0221304Y0211700D02*
X0223606Y0211700D01*
X0224373Y0212467D01*
X0224373Y0213235D01*
X0223606Y0214002D01*
X0221304Y0214002D01*
X0223606Y0214002D02*
X0224373Y0214769D01*
X0224373Y0215537D01*
X0223606Y0216304D01*
X0221304Y0216304D01*
X0221304Y0211700D01*
X0216700Y0211700D02*
X0216700Y0216304D01*
X0225908Y0216304D02*
X0227442Y0216304D01*
X0226675Y0216304D02*
X0226675Y0211700D01*
X0225908Y0211700D02*
X0227442Y0211700D01*
X0228977Y0211700D02*
X0228977Y0214769D01*
X0230512Y0216304D01*
X0232046Y0214769D01*
X0232046Y0211700D01*
X0233581Y0212467D02*
X0234348Y0211700D01*
X0235883Y0211700D01*
X0236650Y0212467D01*
X0236650Y0213235D01*
X0235883Y0214002D01*
X0234348Y0214002D01*
X0233581Y0214769D01*
X0233581Y0215537D01*
X0234348Y0216304D01*
X0235883Y0216304D01*
X0236650Y0215537D01*
X0232046Y0214002D02*
X0228977Y0214002D01*
X0257200Y0152304D02*
X0259502Y0152304D01*
X0260269Y0151537D01*
X0260269Y0150002D01*
X0259502Y0149235D01*
X0257200Y0149235D01*
X0258735Y0149235D02*
X0260269Y0147700D01*
X0261804Y0147700D02*
X0261804Y0152304D01*
X0263339Y0150769D01*
X0264873Y0152304D01*
X0264873Y0147700D01*
X0266408Y0148467D02*
X0267175Y0147700D01*
X0268710Y0147700D01*
X0269477Y0148467D01*
X0269477Y0151537D01*
X0268710Y0152304D01*
X0267175Y0152304D01*
X0266408Y0151537D01*
X0266408Y0148467D01*
X0271012Y0147700D02*
X0271012Y0152304D01*
X0272546Y0150769D01*
X0274081Y0152304D01*
X0274081Y0147700D01*
X0275616Y0147700D02*
X0278685Y0147700D01*
X0277150Y0147700D02*
X0277150Y0152304D01*
X0275616Y0150769D01*
X0257200Y0152304D02*
X0257200Y0147700D01*
X0257700Y0087804D02*
X0260002Y0087804D01*
X0260769Y0087037D01*
X0260769Y0085502D01*
X0260002Y0084735D01*
X0257700Y0084735D01*
X0259235Y0084735D02*
X0260769Y0083200D01*
X0262304Y0083200D02*
X0262304Y0087804D01*
X0263839Y0086269D01*
X0265373Y0087804D01*
X0265373Y0083200D01*
X0266908Y0083967D02*
X0267675Y0083200D01*
X0269210Y0083200D01*
X0269977Y0083967D01*
X0269977Y0087037D01*
X0269210Y0087804D01*
X0267675Y0087804D01*
X0266908Y0087037D01*
X0266908Y0083967D01*
X0271512Y0083200D02*
X0271512Y0087804D01*
X0273046Y0086269D01*
X0274581Y0087804D01*
X0274581Y0083200D01*
X0276116Y0083200D02*
X0279185Y0086269D01*
X0279185Y0087037D01*
X0278418Y0087804D01*
X0276883Y0087804D01*
X0276116Y0087037D01*
X0276116Y0083200D02*
X0279185Y0083200D01*
X0257700Y0083200D02*
X0257700Y0087804D01*
X0258700Y0058804D02*
X0261002Y0058804D01*
X0261769Y0058037D01*
X0261769Y0056502D01*
X0261002Y0055735D01*
X0258700Y0055735D01*
X0260235Y0055735D02*
X0261769Y0054200D01*
X0263304Y0054200D02*
X0263304Y0058804D01*
X0264839Y0057269D01*
X0266373Y0058804D01*
X0266373Y0054200D01*
X0267908Y0054967D02*
X0267908Y0058037D01*
X0268675Y0058804D01*
X0270210Y0058804D01*
X0270977Y0058037D01*
X0270977Y0054967D01*
X0270210Y0054200D01*
X0268675Y0054200D01*
X0267908Y0054967D01*
X0272512Y0054200D02*
X0272512Y0058804D01*
X0274046Y0057269D01*
X0275581Y0058804D01*
X0275581Y0054200D01*
X0277116Y0054967D02*
X0277883Y0054200D01*
X0279418Y0054200D01*
X0280185Y0054967D01*
X0280185Y0055735D01*
X0279418Y0056502D01*
X0278650Y0056502D01*
X0279418Y0056502D02*
X0280185Y0057269D01*
X0280185Y0058037D01*
X0279418Y0058804D01*
X0277883Y0058804D01*
X0277116Y0058037D01*
X0258700Y0058804D02*
X0258700Y0054200D01*
D14*
X0229657Y0048201D02*
X0229657Y0047402D01*
X0229657Y0021402D01*
X0229657Y0012000D01*
X0190358Y0012000D01*
X0190358Y0021402D01*
X0190358Y0047402D01*
X0190358Y0048201D01*
X0229657Y0048201D01*
X0229657Y0047402D02*
X0190358Y0047402D01*
X0198157Y0042200D02*
X0198159Y0042289D01*
X0198165Y0042378D01*
X0198175Y0042467D01*
X0198189Y0042555D01*
X0198206Y0042642D01*
X0198228Y0042728D01*
X0198254Y0042814D01*
X0198283Y0042898D01*
X0198316Y0042981D01*
X0198352Y0043062D01*
X0198393Y0043142D01*
X0198436Y0043219D01*
X0198483Y0043295D01*
X0198534Y0043368D01*
X0198587Y0043439D01*
X0198644Y0043508D01*
X0198704Y0043574D01*
X0198767Y0043638D01*
X0198832Y0043698D01*
X0198900Y0043756D01*
X0198971Y0043810D01*
X0199044Y0043861D01*
X0199119Y0043909D01*
X0199196Y0043954D01*
X0199275Y0043995D01*
X0199356Y0044032D01*
X0199438Y0044066D01*
X0199522Y0044097D01*
X0199607Y0044123D01*
X0199693Y0044146D01*
X0199780Y0044164D01*
X0199868Y0044179D01*
X0199957Y0044190D01*
X0200046Y0044197D01*
X0200135Y0044200D01*
X0200224Y0044199D01*
X0200313Y0044194D01*
X0200401Y0044185D01*
X0200490Y0044172D01*
X0200577Y0044155D01*
X0200664Y0044135D01*
X0200750Y0044110D01*
X0200834Y0044082D01*
X0200917Y0044050D01*
X0200999Y0044014D01*
X0201079Y0043975D01*
X0201157Y0043932D01*
X0201233Y0043886D01*
X0201307Y0043836D01*
X0201379Y0043783D01*
X0201448Y0043727D01*
X0201515Y0043668D01*
X0201579Y0043606D01*
X0201640Y0043542D01*
X0201699Y0043474D01*
X0201754Y0043404D01*
X0201806Y0043332D01*
X0201855Y0043257D01*
X0201900Y0043181D01*
X0201942Y0043102D01*
X0201980Y0043022D01*
X0202015Y0042940D01*
X0202046Y0042856D01*
X0202074Y0042771D01*
X0202097Y0042685D01*
X0202117Y0042598D01*
X0202133Y0042511D01*
X0202145Y0042422D01*
X0202153Y0042334D01*
X0202157Y0042245D01*
X0202157Y0042155D01*
X0202153Y0042066D01*
X0202145Y0041978D01*
X0202133Y0041889D01*
X0202117Y0041802D01*
X0202097Y0041715D01*
X0202074Y0041629D01*
X0202046Y0041544D01*
X0202015Y0041460D01*
X0201980Y0041378D01*
X0201942Y0041298D01*
X0201900Y0041219D01*
X0201855Y0041143D01*
X0201806Y0041068D01*
X0201754Y0040996D01*
X0201699Y0040926D01*
X0201640Y0040858D01*
X0201579Y0040794D01*
X0201515Y0040732D01*
X0201448Y0040673D01*
X0201379Y0040617D01*
X0201307Y0040564D01*
X0201233Y0040514D01*
X0201157Y0040468D01*
X0201079Y0040425D01*
X0200999Y0040386D01*
X0200917Y0040350D01*
X0200834Y0040318D01*
X0200750Y0040290D01*
X0200664Y0040265D01*
X0200577Y0040245D01*
X0200490Y0040228D01*
X0200401Y0040215D01*
X0200313Y0040206D01*
X0200224Y0040201D01*
X0200135Y0040200D01*
X0200046Y0040203D01*
X0199957Y0040210D01*
X0199868Y0040221D01*
X0199780Y0040236D01*
X0199693Y0040254D01*
X0199607Y0040277D01*
X0199522Y0040303D01*
X0199438Y0040334D01*
X0199356Y0040368D01*
X0199275Y0040405D01*
X0199196Y0040446D01*
X0199119Y0040491D01*
X0199044Y0040539D01*
X0198971Y0040590D01*
X0198900Y0040644D01*
X0198832Y0040702D01*
X0198767Y0040762D01*
X0198704Y0040826D01*
X0198644Y0040892D01*
X0198587Y0040961D01*
X0198534Y0041032D01*
X0198483Y0041105D01*
X0198436Y0041181D01*
X0198393Y0041258D01*
X0198352Y0041338D01*
X0198316Y0041419D01*
X0198283Y0041502D01*
X0198254Y0041586D01*
X0198228Y0041672D01*
X0198206Y0041758D01*
X0198189Y0041845D01*
X0198175Y0041933D01*
X0198165Y0042022D01*
X0198159Y0042111D01*
X0198157Y0042200D01*
X0196657Y0021402D02*
X0190358Y0021402D01*
X0203657Y0021402D02*
X0216358Y0021402D01*
X0223358Y0021402D02*
X0229657Y0021402D01*
X0217857Y0042200D02*
X0217859Y0042289D01*
X0217865Y0042378D01*
X0217875Y0042467D01*
X0217889Y0042555D01*
X0217906Y0042642D01*
X0217928Y0042728D01*
X0217954Y0042814D01*
X0217983Y0042898D01*
X0218016Y0042981D01*
X0218052Y0043062D01*
X0218093Y0043142D01*
X0218136Y0043219D01*
X0218183Y0043295D01*
X0218234Y0043368D01*
X0218287Y0043439D01*
X0218344Y0043508D01*
X0218404Y0043574D01*
X0218467Y0043638D01*
X0218532Y0043698D01*
X0218600Y0043756D01*
X0218671Y0043810D01*
X0218744Y0043861D01*
X0218819Y0043909D01*
X0218896Y0043954D01*
X0218975Y0043995D01*
X0219056Y0044032D01*
X0219138Y0044066D01*
X0219222Y0044097D01*
X0219307Y0044123D01*
X0219393Y0044146D01*
X0219480Y0044164D01*
X0219568Y0044179D01*
X0219657Y0044190D01*
X0219746Y0044197D01*
X0219835Y0044200D01*
X0219924Y0044199D01*
X0220013Y0044194D01*
X0220101Y0044185D01*
X0220190Y0044172D01*
X0220277Y0044155D01*
X0220364Y0044135D01*
X0220450Y0044110D01*
X0220534Y0044082D01*
X0220617Y0044050D01*
X0220699Y0044014D01*
X0220779Y0043975D01*
X0220857Y0043932D01*
X0220933Y0043886D01*
X0221007Y0043836D01*
X0221079Y0043783D01*
X0221148Y0043727D01*
X0221215Y0043668D01*
X0221279Y0043606D01*
X0221340Y0043542D01*
X0221399Y0043474D01*
X0221454Y0043404D01*
X0221506Y0043332D01*
X0221555Y0043257D01*
X0221600Y0043181D01*
X0221642Y0043102D01*
X0221680Y0043022D01*
X0221715Y0042940D01*
X0221746Y0042856D01*
X0221774Y0042771D01*
X0221797Y0042685D01*
X0221817Y0042598D01*
X0221833Y0042511D01*
X0221845Y0042422D01*
X0221853Y0042334D01*
X0221857Y0042245D01*
X0221857Y0042155D01*
X0221853Y0042066D01*
X0221845Y0041978D01*
X0221833Y0041889D01*
X0221817Y0041802D01*
X0221797Y0041715D01*
X0221774Y0041629D01*
X0221746Y0041544D01*
X0221715Y0041460D01*
X0221680Y0041378D01*
X0221642Y0041298D01*
X0221600Y0041219D01*
X0221555Y0041143D01*
X0221506Y0041068D01*
X0221454Y0040996D01*
X0221399Y0040926D01*
X0221340Y0040858D01*
X0221279Y0040794D01*
X0221215Y0040732D01*
X0221148Y0040673D01*
X0221079Y0040617D01*
X0221007Y0040564D01*
X0220933Y0040514D01*
X0220857Y0040468D01*
X0220779Y0040425D01*
X0220699Y0040386D01*
X0220617Y0040350D01*
X0220534Y0040318D01*
X0220450Y0040290D01*
X0220364Y0040265D01*
X0220277Y0040245D01*
X0220190Y0040228D01*
X0220101Y0040215D01*
X0220013Y0040206D01*
X0219924Y0040201D01*
X0219835Y0040200D01*
X0219746Y0040203D01*
X0219657Y0040210D01*
X0219568Y0040221D01*
X0219480Y0040236D01*
X0219393Y0040254D01*
X0219307Y0040277D01*
X0219222Y0040303D01*
X0219138Y0040334D01*
X0219056Y0040368D01*
X0218975Y0040405D01*
X0218896Y0040446D01*
X0218819Y0040491D01*
X0218744Y0040539D01*
X0218671Y0040590D01*
X0218600Y0040644D01*
X0218532Y0040702D01*
X0218467Y0040762D01*
X0218404Y0040826D01*
X0218344Y0040892D01*
X0218287Y0040961D01*
X0218234Y0041032D01*
X0218183Y0041105D01*
X0218136Y0041181D01*
X0218093Y0041258D01*
X0218052Y0041338D01*
X0218016Y0041419D01*
X0217983Y0041502D01*
X0217954Y0041586D01*
X0217928Y0041672D01*
X0217906Y0041758D01*
X0217889Y0041845D01*
X0217875Y0041933D01*
X0217865Y0042022D01*
X0217859Y0042111D01*
X0217857Y0042200D01*
X0242799Y0168358D02*
X0243598Y0168358D01*
X0243598Y0207657D01*
X0269598Y0207657D01*
X0279000Y0207657D01*
X0279000Y0168358D01*
X0269598Y0168358D01*
X0243598Y0168358D01*
X0242799Y0168358D02*
X0242799Y0207657D01*
X0243598Y0207657D01*
X0242598Y0218858D02*
X0241799Y0218858D01*
X0241799Y0258157D01*
X0242598Y0258157D01*
X0268598Y0258157D01*
X0278000Y0258157D01*
X0278000Y0218858D01*
X0268598Y0218858D01*
X0242598Y0218858D01*
X0242598Y0258157D01*
X0245800Y0248357D02*
X0245802Y0248446D01*
X0245808Y0248535D01*
X0245818Y0248624D01*
X0245832Y0248712D01*
X0245849Y0248799D01*
X0245871Y0248885D01*
X0245897Y0248971D01*
X0245926Y0249055D01*
X0245959Y0249138D01*
X0245995Y0249219D01*
X0246036Y0249299D01*
X0246079Y0249376D01*
X0246126Y0249452D01*
X0246177Y0249525D01*
X0246230Y0249596D01*
X0246287Y0249665D01*
X0246347Y0249731D01*
X0246410Y0249795D01*
X0246475Y0249855D01*
X0246543Y0249913D01*
X0246614Y0249967D01*
X0246687Y0250018D01*
X0246762Y0250066D01*
X0246839Y0250111D01*
X0246918Y0250152D01*
X0246999Y0250189D01*
X0247081Y0250223D01*
X0247165Y0250254D01*
X0247250Y0250280D01*
X0247336Y0250303D01*
X0247423Y0250321D01*
X0247511Y0250336D01*
X0247600Y0250347D01*
X0247689Y0250354D01*
X0247778Y0250357D01*
X0247867Y0250356D01*
X0247956Y0250351D01*
X0248044Y0250342D01*
X0248133Y0250329D01*
X0248220Y0250312D01*
X0248307Y0250292D01*
X0248393Y0250267D01*
X0248477Y0250239D01*
X0248560Y0250207D01*
X0248642Y0250171D01*
X0248722Y0250132D01*
X0248800Y0250089D01*
X0248876Y0250043D01*
X0248950Y0249993D01*
X0249022Y0249940D01*
X0249091Y0249884D01*
X0249158Y0249825D01*
X0249222Y0249763D01*
X0249283Y0249699D01*
X0249342Y0249631D01*
X0249397Y0249561D01*
X0249449Y0249489D01*
X0249498Y0249414D01*
X0249543Y0249338D01*
X0249585Y0249259D01*
X0249623Y0249179D01*
X0249658Y0249097D01*
X0249689Y0249013D01*
X0249717Y0248928D01*
X0249740Y0248842D01*
X0249760Y0248755D01*
X0249776Y0248668D01*
X0249788Y0248579D01*
X0249796Y0248491D01*
X0249800Y0248402D01*
X0249800Y0248312D01*
X0249796Y0248223D01*
X0249788Y0248135D01*
X0249776Y0248046D01*
X0249760Y0247959D01*
X0249740Y0247872D01*
X0249717Y0247786D01*
X0249689Y0247701D01*
X0249658Y0247617D01*
X0249623Y0247535D01*
X0249585Y0247455D01*
X0249543Y0247376D01*
X0249498Y0247300D01*
X0249449Y0247225D01*
X0249397Y0247153D01*
X0249342Y0247083D01*
X0249283Y0247015D01*
X0249222Y0246951D01*
X0249158Y0246889D01*
X0249091Y0246830D01*
X0249022Y0246774D01*
X0248950Y0246721D01*
X0248876Y0246671D01*
X0248800Y0246625D01*
X0248722Y0246582D01*
X0248642Y0246543D01*
X0248560Y0246507D01*
X0248477Y0246475D01*
X0248393Y0246447D01*
X0248307Y0246422D01*
X0248220Y0246402D01*
X0248133Y0246385D01*
X0248044Y0246372D01*
X0247956Y0246363D01*
X0247867Y0246358D01*
X0247778Y0246357D01*
X0247689Y0246360D01*
X0247600Y0246367D01*
X0247511Y0246378D01*
X0247423Y0246393D01*
X0247336Y0246411D01*
X0247250Y0246434D01*
X0247165Y0246460D01*
X0247081Y0246491D01*
X0246999Y0246525D01*
X0246918Y0246562D01*
X0246839Y0246603D01*
X0246762Y0246648D01*
X0246687Y0246696D01*
X0246614Y0246747D01*
X0246543Y0246801D01*
X0246475Y0246859D01*
X0246410Y0246919D01*
X0246347Y0246983D01*
X0246287Y0247049D01*
X0246230Y0247118D01*
X0246177Y0247189D01*
X0246126Y0247262D01*
X0246079Y0247338D01*
X0246036Y0247415D01*
X0245995Y0247495D01*
X0245959Y0247576D01*
X0245926Y0247659D01*
X0245897Y0247743D01*
X0245871Y0247829D01*
X0245849Y0247915D01*
X0245832Y0248002D01*
X0245818Y0248090D01*
X0245808Y0248179D01*
X0245802Y0248268D01*
X0245800Y0248357D01*
X0245800Y0228657D02*
X0245802Y0228746D01*
X0245808Y0228835D01*
X0245818Y0228924D01*
X0245832Y0229012D01*
X0245849Y0229099D01*
X0245871Y0229185D01*
X0245897Y0229271D01*
X0245926Y0229355D01*
X0245959Y0229438D01*
X0245995Y0229519D01*
X0246036Y0229599D01*
X0246079Y0229676D01*
X0246126Y0229752D01*
X0246177Y0229825D01*
X0246230Y0229896D01*
X0246287Y0229965D01*
X0246347Y0230031D01*
X0246410Y0230095D01*
X0246475Y0230155D01*
X0246543Y0230213D01*
X0246614Y0230267D01*
X0246687Y0230318D01*
X0246762Y0230366D01*
X0246839Y0230411D01*
X0246918Y0230452D01*
X0246999Y0230489D01*
X0247081Y0230523D01*
X0247165Y0230554D01*
X0247250Y0230580D01*
X0247336Y0230603D01*
X0247423Y0230621D01*
X0247511Y0230636D01*
X0247600Y0230647D01*
X0247689Y0230654D01*
X0247778Y0230657D01*
X0247867Y0230656D01*
X0247956Y0230651D01*
X0248044Y0230642D01*
X0248133Y0230629D01*
X0248220Y0230612D01*
X0248307Y0230592D01*
X0248393Y0230567D01*
X0248477Y0230539D01*
X0248560Y0230507D01*
X0248642Y0230471D01*
X0248722Y0230432D01*
X0248800Y0230389D01*
X0248876Y0230343D01*
X0248950Y0230293D01*
X0249022Y0230240D01*
X0249091Y0230184D01*
X0249158Y0230125D01*
X0249222Y0230063D01*
X0249283Y0229999D01*
X0249342Y0229931D01*
X0249397Y0229861D01*
X0249449Y0229789D01*
X0249498Y0229714D01*
X0249543Y0229638D01*
X0249585Y0229559D01*
X0249623Y0229479D01*
X0249658Y0229397D01*
X0249689Y0229313D01*
X0249717Y0229228D01*
X0249740Y0229142D01*
X0249760Y0229055D01*
X0249776Y0228968D01*
X0249788Y0228879D01*
X0249796Y0228791D01*
X0249800Y0228702D01*
X0249800Y0228612D01*
X0249796Y0228523D01*
X0249788Y0228435D01*
X0249776Y0228346D01*
X0249760Y0228259D01*
X0249740Y0228172D01*
X0249717Y0228086D01*
X0249689Y0228001D01*
X0249658Y0227917D01*
X0249623Y0227835D01*
X0249585Y0227755D01*
X0249543Y0227676D01*
X0249498Y0227600D01*
X0249449Y0227525D01*
X0249397Y0227453D01*
X0249342Y0227383D01*
X0249283Y0227315D01*
X0249222Y0227251D01*
X0249158Y0227189D01*
X0249091Y0227130D01*
X0249022Y0227074D01*
X0248950Y0227021D01*
X0248876Y0226971D01*
X0248800Y0226925D01*
X0248722Y0226882D01*
X0248642Y0226843D01*
X0248560Y0226807D01*
X0248477Y0226775D01*
X0248393Y0226747D01*
X0248307Y0226722D01*
X0248220Y0226702D01*
X0248133Y0226685D01*
X0248044Y0226672D01*
X0247956Y0226663D01*
X0247867Y0226658D01*
X0247778Y0226657D01*
X0247689Y0226660D01*
X0247600Y0226667D01*
X0247511Y0226678D01*
X0247423Y0226693D01*
X0247336Y0226711D01*
X0247250Y0226734D01*
X0247165Y0226760D01*
X0247081Y0226791D01*
X0246999Y0226825D01*
X0246918Y0226862D01*
X0246839Y0226903D01*
X0246762Y0226948D01*
X0246687Y0226996D01*
X0246614Y0227047D01*
X0246543Y0227101D01*
X0246475Y0227159D01*
X0246410Y0227219D01*
X0246347Y0227283D01*
X0246287Y0227349D01*
X0246230Y0227418D01*
X0246177Y0227489D01*
X0246126Y0227562D01*
X0246079Y0227638D01*
X0246036Y0227715D01*
X0245995Y0227795D01*
X0245959Y0227876D01*
X0245926Y0227959D01*
X0245897Y0228043D01*
X0245871Y0228129D01*
X0245849Y0228215D01*
X0245832Y0228302D01*
X0245818Y0228390D01*
X0245808Y0228479D01*
X0245802Y0228568D01*
X0245800Y0228657D01*
X0268598Y0225157D02*
X0268598Y0218858D01*
X0269598Y0207657D02*
X0269598Y0201358D01*
X0269598Y0194358D02*
X0269598Y0181657D01*
X0269598Y0174657D02*
X0269598Y0168358D01*
X0246800Y0178157D02*
X0246802Y0178246D01*
X0246808Y0178335D01*
X0246818Y0178424D01*
X0246832Y0178512D01*
X0246849Y0178599D01*
X0246871Y0178685D01*
X0246897Y0178771D01*
X0246926Y0178855D01*
X0246959Y0178938D01*
X0246995Y0179019D01*
X0247036Y0179099D01*
X0247079Y0179176D01*
X0247126Y0179252D01*
X0247177Y0179325D01*
X0247230Y0179396D01*
X0247287Y0179465D01*
X0247347Y0179531D01*
X0247410Y0179595D01*
X0247475Y0179655D01*
X0247543Y0179713D01*
X0247614Y0179767D01*
X0247687Y0179818D01*
X0247762Y0179866D01*
X0247839Y0179911D01*
X0247918Y0179952D01*
X0247999Y0179989D01*
X0248081Y0180023D01*
X0248165Y0180054D01*
X0248250Y0180080D01*
X0248336Y0180103D01*
X0248423Y0180121D01*
X0248511Y0180136D01*
X0248600Y0180147D01*
X0248689Y0180154D01*
X0248778Y0180157D01*
X0248867Y0180156D01*
X0248956Y0180151D01*
X0249044Y0180142D01*
X0249133Y0180129D01*
X0249220Y0180112D01*
X0249307Y0180092D01*
X0249393Y0180067D01*
X0249477Y0180039D01*
X0249560Y0180007D01*
X0249642Y0179971D01*
X0249722Y0179932D01*
X0249800Y0179889D01*
X0249876Y0179843D01*
X0249950Y0179793D01*
X0250022Y0179740D01*
X0250091Y0179684D01*
X0250158Y0179625D01*
X0250222Y0179563D01*
X0250283Y0179499D01*
X0250342Y0179431D01*
X0250397Y0179361D01*
X0250449Y0179289D01*
X0250498Y0179214D01*
X0250543Y0179138D01*
X0250585Y0179059D01*
X0250623Y0178979D01*
X0250658Y0178897D01*
X0250689Y0178813D01*
X0250717Y0178728D01*
X0250740Y0178642D01*
X0250760Y0178555D01*
X0250776Y0178468D01*
X0250788Y0178379D01*
X0250796Y0178291D01*
X0250800Y0178202D01*
X0250800Y0178112D01*
X0250796Y0178023D01*
X0250788Y0177935D01*
X0250776Y0177846D01*
X0250760Y0177759D01*
X0250740Y0177672D01*
X0250717Y0177586D01*
X0250689Y0177501D01*
X0250658Y0177417D01*
X0250623Y0177335D01*
X0250585Y0177255D01*
X0250543Y0177176D01*
X0250498Y0177100D01*
X0250449Y0177025D01*
X0250397Y0176953D01*
X0250342Y0176883D01*
X0250283Y0176815D01*
X0250222Y0176751D01*
X0250158Y0176689D01*
X0250091Y0176630D01*
X0250022Y0176574D01*
X0249950Y0176521D01*
X0249876Y0176471D01*
X0249800Y0176425D01*
X0249722Y0176382D01*
X0249642Y0176343D01*
X0249560Y0176307D01*
X0249477Y0176275D01*
X0249393Y0176247D01*
X0249307Y0176222D01*
X0249220Y0176202D01*
X0249133Y0176185D01*
X0249044Y0176172D01*
X0248956Y0176163D01*
X0248867Y0176158D01*
X0248778Y0176157D01*
X0248689Y0176160D01*
X0248600Y0176167D01*
X0248511Y0176178D01*
X0248423Y0176193D01*
X0248336Y0176211D01*
X0248250Y0176234D01*
X0248165Y0176260D01*
X0248081Y0176291D01*
X0247999Y0176325D01*
X0247918Y0176362D01*
X0247839Y0176403D01*
X0247762Y0176448D01*
X0247687Y0176496D01*
X0247614Y0176547D01*
X0247543Y0176601D01*
X0247475Y0176659D01*
X0247410Y0176719D01*
X0247347Y0176783D01*
X0247287Y0176849D01*
X0247230Y0176918D01*
X0247177Y0176989D01*
X0247126Y0177062D01*
X0247079Y0177138D01*
X0247036Y0177215D01*
X0246995Y0177295D01*
X0246959Y0177376D01*
X0246926Y0177459D01*
X0246897Y0177543D01*
X0246871Y0177629D01*
X0246849Y0177715D01*
X0246832Y0177802D01*
X0246818Y0177890D01*
X0246808Y0177979D01*
X0246802Y0178068D01*
X0246800Y0178157D01*
X0246800Y0197857D02*
X0246802Y0197946D01*
X0246808Y0198035D01*
X0246818Y0198124D01*
X0246832Y0198212D01*
X0246849Y0198299D01*
X0246871Y0198385D01*
X0246897Y0198471D01*
X0246926Y0198555D01*
X0246959Y0198638D01*
X0246995Y0198719D01*
X0247036Y0198799D01*
X0247079Y0198876D01*
X0247126Y0198952D01*
X0247177Y0199025D01*
X0247230Y0199096D01*
X0247287Y0199165D01*
X0247347Y0199231D01*
X0247410Y0199295D01*
X0247475Y0199355D01*
X0247543Y0199413D01*
X0247614Y0199467D01*
X0247687Y0199518D01*
X0247762Y0199566D01*
X0247839Y0199611D01*
X0247918Y0199652D01*
X0247999Y0199689D01*
X0248081Y0199723D01*
X0248165Y0199754D01*
X0248250Y0199780D01*
X0248336Y0199803D01*
X0248423Y0199821D01*
X0248511Y0199836D01*
X0248600Y0199847D01*
X0248689Y0199854D01*
X0248778Y0199857D01*
X0248867Y0199856D01*
X0248956Y0199851D01*
X0249044Y0199842D01*
X0249133Y0199829D01*
X0249220Y0199812D01*
X0249307Y0199792D01*
X0249393Y0199767D01*
X0249477Y0199739D01*
X0249560Y0199707D01*
X0249642Y0199671D01*
X0249722Y0199632D01*
X0249800Y0199589D01*
X0249876Y0199543D01*
X0249950Y0199493D01*
X0250022Y0199440D01*
X0250091Y0199384D01*
X0250158Y0199325D01*
X0250222Y0199263D01*
X0250283Y0199199D01*
X0250342Y0199131D01*
X0250397Y0199061D01*
X0250449Y0198989D01*
X0250498Y0198914D01*
X0250543Y0198838D01*
X0250585Y0198759D01*
X0250623Y0198679D01*
X0250658Y0198597D01*
X0250689Y0198513D01*
X0250717Y0198428D01*
X0250740Y0198342D01*
X0250760Y0198255D01*
X0250776Y0198168D01*
X0250788Y0198079D01*
X0250796Y0197991D01*
X0250800Y0197902D01*
X0250800Y0197812D01*
X0250796Y0197723D01*
X0250788Y0197635D01*
X0250776Y0197546D01*
X0250760Y0197459D01*
X0250740Y0197372D01*
X0250717Y0197286D01*
X0250689Y0197201D01*
X0250658Y0197117D01*
X0250623Y0197035D01*
X0250585Y0196955D01*
X0250543Y0196876D01*
X0250498Y0196800D01*
X0250449Y0196725D01*
X0250397Y0196653D01*
X0250342Y0196583D01*
X0250283Y0196515D01*
X0250222Y0196451D01*
X0250158Y0196389D01*
X0250091Y0196330D01*
X0250022Y0196274D01*
X0249950Y0196221D01*
X0249876Y0196171D01*
X0249800Y0196125D01*
X0249722Y0196082D01*
X0249642Y0196043D01*
X0249560Y0196007D01*
X0249477Y0195975D01*
X0249393Y0195947D01*
X0249307Y0195922D01*
X0249220Y0195902D01*
X0249133Y0195885D01*
X0249044Y0195872D01*
X0248956Y0195863D01*
X0248867Y0195858D01*
X0248778Y0195857D01*
X0248689Y0195860D01*
X0248600Y0195867D01*
X0248511Y0195878D01*
X0248423Y0195893D01*
X0248336Y0195911D01*
X0248250Y0195934D01*
X0248165Y0195960D01*
X0248081Y0195991D01*
X0247999Y0196025D01*
X0247918Y0196062D01*
X0247839Y0196103D01*
X0247762Y0196148D01*
X0247687Y0196196D01*
X0247614Y0196247D01*
X0247543Y0196301D01*
X0247475Y0196359D01*
X0247410Y0196419D01*
X0247347Y0196483D01*
X0247287Y0196549D01*
X0247230Y0196618D01*
X0247177Y0196689D01*
X0247126Y0196762D01*
X0247079Y0196838D01*
X0247036Y0196915D01*
X0246995Y0196995D01*
X0246959Y0197076D01*
X0246926Y0197159D01*
X0246897Y0197243D01*
X0246871Y0197329D01*
X0246849Y0197415D01*
X0246832Y0197502D01*
X0246818Y0197590D01*
X0246808Y0197679D01*
X0246802Y0197768D01*
X0246800Y0197857D01*
X0268598Y0232157D02*
X0268598Y0244858D01*
X0268598Y0251858D02*
X0268598Y0258157D01*
M02*
